<svg xmlns="http://www.w3.org/2000/svg" width="552.1572488199595" xmlns:xlink="http://www.w3.org/1999/xlink" viewBox="-0.49920000000000186 -741.0 818.8492 741.5" height="500.0"><style>svg {
  color-scheme: light dark;
}
{
  .canvas g, .title g, .axisbar g, .ticktext g, .tickglyph g, .ticklines g, .legendContent g text {
    fill: #0d0d0d;
  }
  .ticklines g, .tickglyph g, .legendBorder g {
    stroke: #0d0d0d;
  }
  .legendBorder g {
    fill: #f0f0f0;
  }
}
@media (prefers-color-scheme:dark) {
  .canvas g, .title g, .axisbar g, .ticktext g, .tickglyph g, .ticklines g, .legendContent g text {
    fill: #f0f0f0;
  }
  .ticklines g, .tickglyph g, .legendBorder g {
    stroke: #f0f0f0;
  }
  .legendBorder g {
    fill: #0d0d0d;
  }
}</style><g class="chart"><g class="edges"><g fill="rgb(0%, 0%, 0%)" stroke="rgb(-51%, 30%, 37%)" stroke-width="1.0" fill-opacity="0.0" stroke-opacity="1.0"><path d="M 301.43,-71.983 C 319.9,-80.773 340.83,-94.271 352.08,-113.46 C 359.35,-125.8500 350.43,-164.59 355.53,-178.02 C 367.68,-209.99 391.75,-206.08 403.5,-238.2000 C 404.63,-241.28 402.99,-294.79 405.19,-297.22 C 418.2,-311.63 435.7000,-288.31 448.51,-302.9 C 460.93,-317.07 454.21,-327.34 448.51,-345.3 C 448.0100,-346.87 447.3600,-348.43 446.6,-349.95"/></g><g fill="rgb(0%, 0%, 0%)" stroke="rgb(-51%, 30%, 37%)" stroke-width="1.0" fill-opacity="0.0" stroke-opacity="1.0"><path d="M 301.43,-71.983 C 319.9,-80.773 340.83,-94.271 352.08,-113.46 C 359.35,-125.8500 349.38,-165.04 355.53,-178.02 C 372.0,-212.81 406.95,-240.92 432.51,-257.9800"/></g><g fill="rgb(0%, 0%, 0%)" stroke="rgb(-51%, 30%, 37%)" stroke-width="1.0" fill-opacity="0.0" stroke-opacity="1.0"><path d="M 344.99,-704.27 C 351.33,-689.52 361.98,-669.0000 376.59,-655.3 C 385.45,-647.0 394.51,-653.46 401.12,-643.27 C 404.02,-638.8 401.44,-600.49 402.8,-595.34 C 410.76,-565.22 427.83,-563.47 435.2500,-533.22 C 439.75,-514.92 435.4700,-509.66 435.2500,-490.8200 C 434.8200,-453.7500 433.6500,-410.4 432.95,-386.4200"/></g><g fill="rgb(0%, 0%, 0%)" stroke="rgb(-51%, 30%, 37%)" stroke-width="1.0" fill-opacity="0.0" stroke-opacity="1.0"><path d="M 305.92,-714.89 C 288.84,-709.52 268.4500,-700.82 253.99,-687.31 C 240.73,-674.93 232.19,-655.82 227.33,-641.78"/></g><g fill="rgb(0%, 0%, 0%)" stroke="rgb(-51%, 30%, 37%)" stroke-width="1.0" fill-opacity="0.0" stroke-opacity="1.0"><path d="M 344.99,-704.27 C 351.33,-689.52 361.98,-669.0000 376.59,-655.3 C 385.45,-647.0 394.51,-653.46 401.12,-643.27 C 404.02,-638.8 401.04,-600.37 402.8,-595.34 C 415.48,-559.21 444.76,-525.08 464.36,-505.0500"/></g><g fill="rgb(0%, 0%, 0%)" stroke="rgb(-51%, 30%, 37%)" stroke-width="1.0" fill-opacity="0.0" stroke-opacity="1.0"><path d="M 444.8900,-598.31 C 441.8100,-563.54 435.39,-491.1200 435.2500,-490.8200 C 417.02,-447.96 377.73,-409.42 352.62,-387.8"/></g><g fill="rgb(0%, 0%, 0%)" stroke="rgb(-51%, 30%, 37%)" stroke-width="1.0" fill-opacity="0.0" stroke-opacity="1.0"><path d="M 444.59,-598.51 C 442.38,-576.99 438.8000,-539.91 436.88,-507.9900 C 434.25,-464.34 433.1000,-412.9300 432.65,-386.25"/></g><g fill="rgb(0%, 0%, 0%)" stroke="rgb(-51%, 30%, 37%)" stroke-width="1.0" fill-opacity="0.0" stroke-opacity="1.0"><path d="M 487.19,-629.93 C 500.43,-634.29 514.98,-639.08 527.7,-643.27"/></g><g fill="rgb(0%, 0%, 0%)" stroke="rgb(-51%, 30%, 37%)" stroke-width="1.0" fill-opacity="0.0" stroke-opacity="1.0"><path d="M 444.91,-598.49 C 441.88,-564.02 435.52,-492.12 435.2500,-490.8200 C 425.73,-444.3500 409.63,-436.1900 402.19,-389.34 C 399.24,-370.72 399.73,-365.62 402.19,-346.94 C 402.39,-345.39 402.67,-343.8 403.0,-342.21"/></g><g fill="rgb(0%, 0%, 0%)" stroke="rgb(-51%, 30%, 37%)" stroke-width="1.0" fill-opacity="0.0" stroke-opacity="1.0"><path d="M 418.86,-634.61 C 413.15,-637.83 407.06,-640.9000 401.12,-643.27 C 384.09,-650.06 364.57,-655.11 347.4,-658.7"/></g><g fill="rgb(0%, 0%, 0%)" stroke="rgb(-51%, 30%, 37%)" stroke-width="1.0" fill-opacity="0.0" stroke-opacity="1.0"><path d="M 487.25,-615.29 C 521.23,-614.25 569.3800,-612.77 603.16,-611.73"/></g><g fill="rgb(0%, 0%, 0%)" stroke="rgb(-51%, 30%, 37%)" stroke-width="1.0" fill-opacity="0.0" stroke-opacity="1.0"><path d="M 418.25,-598.4 C 399.95,-586.65 376.24,-571.44 358.16,-559.83"/></g><g fill="rgb(0%, 0%, 0%)" stroke="rgb(-51%, 30%, 37%)" stroke-width="1.0" fill-opacity="0.0" stroke-opacity="1.0"><path d="M 487.3300,-626.83 C 521.61,-632.79 569.48,-634.42 598.25,-606.63 C 601.03,-603.94 597.5,-592.28 599.98,-589.3 C 612.54,-574.25 634.33,-568.77 651.89,-566.92"/></g><g fill="rgb(0%, 0%, 0%)" stroke="rgb(-51%, 30%, 37%)" stroke-width="1.0" fill-opacity="0.0" stroke-opacity="1.0"><path d="M 459.53,-634.74 C 469.25,-648.33 482.49,-666.83 492.2000,-680.4"/></g><g fill="rgb(0%, 0%, 0%)" stroke="rgb(-51%, 30%, 37%)" stroke-width="1.0" fill-opacity="0.0" stroke-opacity="1.0"><path d="M 458.5600,-598.48 C 466.81,-587.31 478.6100,-573.41 491.85,-564.23 C 504.69,-555.32 520.1300,-548.38 534.68,-543.14"/></g><g fill="rgb(0%, 0%, 0%)" stroke="rgb(-51%, 30%, 37%)" stroke-width="1.0" fill-opacity="0.0" stroke-opacity="1.0"><path d="M 460.3100,-598.51 C 493.86,-554.85 578.18,-446.17 595.31,-434.32 C 634.77,-407.0400 687.78,-390.51 723.91,-381.6500"/></g><g fill="rgb(0%, 0%, 0%)" stroke="rgb(-51%, 30%, 37%)" stroke-width="1.0" fill-opacity="0.0" stroke-opacity="1.0"><path d="M 456.94,-598.53 C 464.8900,-586.62 476.98,-571.86 491.85,-564.23 C 549.6100,-534.6 580.43,-582.23 637.3,-550.92 C 646.83,-545.67 654.43,-536.24 659.81,-527.7"/></g><g fill="rgb(0%, 0%, 0%)" stroke="rgb(-51%, 30%, 37%)" stroke-width="1.0" fill-opacity="0.0" stroke-opacity="1.0"><path d="M 451.66,-598.5 C 458.7,-573.85 471.26,-529.88 478.3500,-505.1000"/></g><g fill="rgb(0%, 0%, 0%)" stroke="rgb(-51%, 30%, 37%)" stroke-width="1.0" fill-opacity="0.0" stroke-opacity="1.0"><path d="M 405.85,-601.79 C 404.26,-601.44 402.68,-601.13 401.12,-600.87 C 324.57,-588.03 232.42,-594.8 187.47,-599.51"/></g><g fill="rgb(0%, 0%, 0%)" stroke="rgb(-51%, 30%, 37%)" stroke-width="1.0" fill-opacity="0.0" stroke-opacity="1.0"><path d="M 405.93,-618.49 C 403.34,-618.62 400.7,-618.74 398.03,-618.87"/></g><g fill="rgb(0%, 0%, 0%)" stroke="rgb(-51%, 30%, 37%)" stroke-width="1.0" fill-opacity="0.0" stroke-opacity="1.0"><path d="M 357.08,-369.19 C 371.91,-368.9800 390.21,-368.72 405.06,-368.52"/></g><g fill="rgb(0%, 0%, 0%)" stroke="rgb(-51%, 30%, 37%)" stroke-width="1.0" fill-opacity="0.0" stroke-opacity="1.0"><path d="M 760.51,-419.7400 C 715.59,-422.68 624.07,-423.75 555.54,-392.3 C 538.46,-384.4600 542.18,-370.28 524.7,-363.37 C 503.96,-355.17 478.5300,-357.27 459.61,-360.92"/></g><g fill="rgb(0%, 0%, 0%)" stroke="rgb(-51%, 30%, 37%)" stroke-width="1.0" fill-opacity="0.0" stroke-opacity="1.0"><path d="M 760.42,-424.1000 C 735.63,-430.31 698.87,-439.5200 671.55,-446.3700"/></g><g fill="rgb(0%, 0%, 0%)" stroke="rgb(-51%, 30%, 37%)" stroke-width="1.0" fill-opacity="0.0" stroke-opacity="1.0"><path d="M 760.6,-423.94 C 742.12,-429.59 718.01,-439.22 700.98,-454.32 C 689.65,-464.38 681.33,-479.47 676.04,-491.33"/></g><g fill="rgb(0%, 0%, 0%)" stroke="rgb(-51%, 30%, 37%)" stroke-width="1.0" fill-opacity="0.0" stroke-opacity="1.0"><path d="M 405.31,-359.07 C 393.76,-355.07 380.19,-350.17 368.11,-345.3 C 335.3,-332.1 328.16,-326.31 295.57,-312.57 C 259.73,-297.46 236.32,-312.53 214.1,-280.6 C 211.41,-276.74 213.48,-200.49 212.47,-195.8900 C 208.57,-178.15 199.92,-159.35 192.94,-146.03"/></g><g fill="rgb(0%, 0%, 0%)" stroke="rgb(-51%, 30%, 37%)" stroke-width="1.0" fill-opacity="0.0" stroke-opacity="1.0"><path d="M 459.76,-354.12 C 480.2800,-342.03 507.06,-322.52 520.5900,-297.22 C 532.4100,-275.11 532.4200,-245.42 530.83,-226.6000"/></g><g fill="rgb(0%, 0%, 0%)" stroke="rgb(-51%, 30%, 37%)" stroke-width="1.0" fill-opacity="0.0" stroke-opacity="1.0"><path d="M 598.48,-451.12 C 562.06,-445.37 505.74,-432.66 464.3000,-405.77 C 456.54,-400.74 449.65,-393.25 444.27,-386.28"/></g><g fill="rgb(0%, 0%, 0%)" stroke="rgb(-51%, 30%, 37%)" stroke-width="1.0" fill-opacity="0.0" stroke-opacity="1.0"><path d="M 636.24,-473.9300 C 637.83,-499.6500 640.1,-544.01 637.3,-550.92 C 628.35,-572.96 610.02,-567.73 599.98,-589.3 C 596.72,-596.32 601.08,-599.43 598.25,-606.63 C 593.97,-617.51 586.48,-628.04 579.41,-636.44"/></g><g fill="rgb(0%, 0%, 0%)" stroke="rgb(-51%, 30%, 37%)" stroke-width="1.0" fill-opacity="0.0" stroke-opacity="1.0"><path d="M 611.31,-437.4800 C 595.29,-425.0900 573.81,-408.0900 555.54,-392.3 C 541.3200,-380.01 540.8300,-373.02 524.7,-363.37 C 500.0900,-348.64 469.21,-338.55 445.44,-332.29"/></g><g fill="rgb(0%, 0%, 0%)" stroke="rgb(-51%, 30%, 37%)" stroke-width="1.0" fill-opacity="0.0" stroke-opacity="1.0"><path d="M 598.35,-463.09 C 576.91,-467.52 549.71,-473.1400 527.17,-477.7900"/></g><g fill="rgb(0%, 0%, 0%)" stroke="rgb(-51%, 30%, 37%)" stroke-width="1.0" fill-opacity="0.0" stroke-opacity="1.0"><path d="M 671.77,-461.96 C 682.06,-463.7600 693.38,-465.75 704.1,-467.63"/></g><g fill="rgb(0%, 0%, 0%)" stroke="rgb(-51%, 30%, 37%)" stroke-width="1.0" fill-opacity="0.0" stroke-opacity="1.0"><path d="M 609.45,-437.51 C 593.24,-425.54 572.25,-409.0000 555.54,-392.3 C 523.77,-360.55 492.38,-318.24 475.5400,-294.4"/></g><g fill="rgb(0%, 0%, 0%)" stroke="rgb(-51%, 30%, 37%)" stroke-width="1.0" fill-opacity="0.0" stroke-opacity="1.0"><path d="M 636.45,-437.28 C 637.36,-424.65 638.47,-407.4700 638.94,-392.3 C 639.52,-373.46 639.66,-368.73 638.94,-349.9 C 638.88,-348.47 638.81,-346.99 638.72,-345.5"/></g><g fill="rgb(0%, 0%, 0%)" stroke="rgb(-51%, 30%, 37%)" stroke-width="1.0" fill-opacity="0.0" stroke-opacity="1.0"><path d="M 587.39,-214.95 C 566.73,-249.54 515.9300,-323.57 448.51,-345.3 C 438.7,-348.46 412.34,-345.2 402.19,-346.94 C 386.89,-349.55 370.33,-354.56 356.92,-359.21"/></g><g fill="rgb(0%, 0%, 0%)" stroke="rgb(-51%, 30%, 37%)" stroke-width="1.0" fill-opacity="0.0" stroke-opacity="1.0"><path d="M 585.63,-214.9400 C 571.44,-235.87 546.36,-270.84 520.5900,-297.22 C 501.2300,-317.04 476.44,-336.54 458.07,-350.06"/></g><g fill="rgb(0%, 0%, 0%)" stroke="rgb(-51%, 30%, 37%)" stroke-width="1.0" fill-opacity="0.0" stroke-opacity="1.0"><path d="M 609.27,-178.82 C 616.04,-168.44 624.52,-155.43 631.31,-145.01"/></g><g fill="rgb(0%, 0%, 0%)" stroke="rgb(-51%, 30%, 37%)" stroke-width="1.0" fill-opacity="0.0" stroke-opacity="1.0"><path d="M 588.54,-215.16 C 576.37,-237.98 552.44,-276.54 520.5900,-297.22 C 498.15,-311.79 468.58,-318.48 445.4100,-321.54"/></g><g fill="rgb(0%, 0%, 0%)" stroke="rgb(-51%, 30%, 37%)" stroke-width="1.0" fill-opacity="0.0" stroke-opacity="1.0"><path d="M 607.17,-140.86 C 592.11,-148.72 576.1,-160.12 567.31,-175.67 C 564.3600,-180.89 567.48,-223.91 565.6500,-229.62 C 554.6600,-264.02 544.96,-270.58 520.5900,-297.22 C 502.1600,-317.38 477.74,-336.55 459.27,-349.87"/></g><g fill="rgb(0%, 0%, 0%)" stroke="rgb(-51%, 30%, 37%)" stroke-width="1.0" fill-opacity="0.0" stroke-opacity="1.0"><path d="M 607.12,-134.3 C 574.01,-141.21 525.45,-151.34 493.9800,-157.91"/></g><g fill="rgb(0%, 0%, 0%)" stroke="rgb(-51%, 30%, 37%)" stroke-width="1.0" fill-opacity="0.0" stroke-opacity="1.0"><path d="M 613.05,-144.96 C 598.88,-153.82 581.93,-164.87 567.31,-175.67 C 561.21,-180.18 554.82,-185.36 549.03,-190.24"/></g><g fill="rgb(0%, 0%, 0%)" stroke="rgb(-51%, 30%, 37%)" stroke-width="1.0" fill-opacity="0.0" stroke-opacity="1.0"><path d="M 606.95,-142.65 C 577.62,-155.18 535.06,-172.66 496.98,-185.62 C 494.48,-186.47 493.15,-185.39 491.25,-187.22 C 471.92,-205.88 465.73,-237.68 463.77,-257.73"/></g><g fill="rgb(0%, 0%, 0%)" stroke="rgb(-51%, 30%, 37%)" stroke-width="1.0" fill-opacity="0.0" stroke-opacity="1.0"><path d="M 527.91,-638.98 C 514.57,-631.16 500.42,-620.38 491.85,-606.63 C 489.1600,-602.33 491.92,-600.11 490.2000,-595.34 C 474.77,-552.56 449.89,-551.57 436.88,-507.9900 C 435.17,-502.27 433.44,-422.9300 432.73,-386.3600"/></g><g fill="rgb(0%, 0%, 0%)" stroke="rgb(-51%, 30%, 37%)" stroke-width="1.0" fill-opacity="0.0" stroke-opacity="1.0"><path d="M 579.41,-636.44 C 586.48,-628.04 593.97,-617.51 598.25,-606.63 C 601.08,-599.43 596.72,-596.32 599.98,-589.3 C 610.02,-567.73 621.73,-568.91 637.3,-550.92 C 643.71,-543.51 650.38,-534.98 655.95,-527.59"/></g><g fill="rgb(0%, 0%, 0%)" stroke="rgb(-51%, 30%, 37%)" stroke-width="1.0" fill-opacity="0.0" stroke-opacity="1.0"><path d="M 527.76,-639.5 C 514.22,-631.71 499.97,-620.83 491.85,-606.63 C 490.6,-604.45 486.55,-537.79 484.62,-504.8500"/></g><g fill="rgb(0%, 0%, 0%)" stroke="rgb(-51%, 30%, 37%)" stroke-width="1.0" fill-opacity="0.0" stroke-opacity="1.0"><path d="M 527.6300,-652.02 C 495.3000,-649.39 445.5800,-644.67 402.8,-637.74 C 401.3,-637.5 399.78,-637.24 398.25,-636.98"/></g><g fill="rgb(0%, 0%, 0%)" stroke="rgb(-51%, 30%, 37%)" stroke-width="1.0" fill-opacity="0.0" stroke-opacity="1.0"><path d="M 558.53,-366.21 C 547.61,-365.04 535.7,-363.96 524.7,-363.37 C 497.9000,-361.95 491.0700,-361.38 464.3000,-363.37 C 462.7400,-363.49 461.13,-363.63 459.52,-363.81"/></g><g fill="rgb(0%, 0%, 0%)" stroke="rgb(-51%, 30%, 37%)" stroke-width="1.0" fill-opacity="0.0" stroke-opacity="1.0"><path d="M 588.69,-352.85 C 588.21,-351.32 587.79,-349.77 587.48,-348.25 C 577.82,-301.03 587.09,-243.9600 593.17,-215.26"/></g><g fill="rgb(0%, 0%, 0%)" stroke="rgb(-51%, 30%, 37%)" stroke-width="1.0" fill-opacity="0.0" stroke-opacity="1.0"><path d="M 587.47,-353.0800 C 574.1,-329.25 548.55,-286.58 520.5900,-254.82 C 509.23,-241.92 501.4700,-243.4500 491.25,-229.62 C 480.61,-215.22 472.89,-196.21 468.19,-182.44"/></g><g fill="rgb(0%, 0%, 0%)" stroke="rgb(-51%, 30%, 37%)" stroke-width="1.0" fill-opacity="0.0" stroke-opacity="1.0"><path d="M 587.78,-352.8 C 574.74,-328.67 549.57,-285.66 520.5900,-254.82 C 503.07,-236.18 448.94,-201.12 428.58,-185.62 C 424.0200,-182.14 419.16,-178.42 414.51,-174.84"/></g><g fill="rgb(0%, 0%, 0%)" stroke="rgb(-51%, 30%, 37%)" stroke-width="1.0" fill-opacity="0.0" stroke-opacity="1.0"><path d="M 592.03,-389.4 C 586.84,-411.39 581.43,-448.8 595.31,-476.72 C 605.73,-497.6800 626.11,-487.96 637.3,-508.52 C 642.02,-517.2 634.57,-521.84 638.95,-530.7 C 642.18,-537.23 647.18,-543.11 652.56,-548.12"/></g><g fill="rgb(0%, 0%, 0%)" stroke="rgb(-51%, 30%, 37%)" stroke-width="1.0" fill-opacity="0.0" stroke-opacity="1.0"><path d="M 579.48,-389.1800 C 558.25,-410.78 522.9300,-446.7400 501.59,-468.46"/></g><g fill="rgb(0%, 0%, 0%)" stroke="rgb(-51%, 30%, 37%)" stroke-width="1.0" fill-opacity="0.0" stroke-opacity="1.0"><path d="M 589.35,-352.64 C 588.72,-351.16 588.09,-349.68 587.48,-348.25 C 568.94,-304.59 547.29,-253.2 536.07,-226.53"/></g><g fill="rgb(0%, 0%, 0%)" stroke="rgb(-51%, 30%, 37%)" stroke-width="1.0" fill-opacity="0.0" stroke-opacity="1.0"><path d="M 592.08,-389.52 C 583.37,-417.88 563.37,-472.64 530.28,-507.9900 C 487.98,-553.17 423.69,-585.56 379.74,-604.02"/></g><g fill="rgb(0%, 0%, 0%)" stroke="rgb(-51%, 30%, 37%)" stroke-width="1.0" fill-opacity="0.0" stroke-opacity="1.0"><path d="M 635.97,-366.64 C 652.6,-363.4 671.66,-357.83 686.88,-348.25 C 721.12,-326.7 748.53,-287.01 762.58,-263.79"/></g><g fill="rgb(0%, 0%, 0%)" stroke="rgb(-51%, 30%, 37%)" stroke-width="1.0" fill-opacity="0.0" stroke-opacity="1.0"><path d="M 376.86,-342.33 C 370.38,-346.09 363.61,-350.0100 357.29,-353.68"/></g><g fill="rgb(0%, 0%, 0%)" stroke="rgb(-51%, 30%, 37%)" stroke-width="1.0" fill-opacity="0.0" stroke-opacity="1.0"><path d="M 418.24,-342.27 C 419.64,-344.82 421.08,-347.46 422.48,-350.0100"/></g><g fill="rgb(0%, 0%, 0%)" stroke="rgb(-51%, 30%, 37%)" stroke-width="1.0" fill-opacity="0.0" stroke-opacity="1.0"><path d="M 405.91,-305.91 C 405.61,-303.01 405.35,-300.04 405.19,-297.22 C 404.65,-287.82 402.55,-263.87 405.19,-254.82 C 413.26,-227.13 432.67,-199.83 446.7300,-182.6"/></g><g fill="rgb(0%, 0%, 0%)" stroke="rgb(-51%, 30%, 37%)" stroke-width="1.0" fill-opacity="0.0" stroke-opacity="1.0"><path d="M 347.35,-661.05 C 369.98,-657.51 394.05,-651.84 401.12,-643.27 C 404.51,-639.16 401.44,-600.49 402.8,-595.34 C 410.76,-565.22 427.83,-563.47 435.2500,-533.22 C 439.75,-514.92 435.4700,-509.66 435.2500,-490.8200 C 434.8200,-453.7500 433.6500,-410.4 432.95,-386.4200"/></g><g fill="rgb(0%, 0%, 0%)" stroke="rgb(-51%, 30%, 37%)" stroke-width="1.0" fill-opacity="0.0" stroke-opacity="1.0"><path d="M 347.35,-661.05 C 369.98,-657.51 394.05,-651.84 401.12,-643.27 C 404.51,-639.16 401.04,-600.37 402.8,-595.34 C 415.48,-559.21 444.76,-525.08 464.36,-505.0500"/></g><g fill="rgb(0%, 0%, 0%)" stroke="rgb(-51%, 30%, 37%)" stroke-width="1.0" fill-opacity="0.0" stroke-opacity="1.0"><path d="M 447.15,-182.73 C 433.38,-200.0500 414.16,-227.41 405.19,-254.82 C 403.4,-260.28 406.44,-275.67 403.5,-280.6 C 393.99,-296.58 380.98,-289.48 368.11,-302.9 C 354.53,-317.06 343.94,-336.94 337.38,-351.3"/></g><g fill="rgb(0%, 0%, 0%)" stroke="rgb(-51%, 30%, 37%)" stroke-width="1.0" fill-opacity="0.0" stroke-opacity="1.0"><path d="M 446.7300,-182.6 C 432.67,-199.83 413.26,-227.13 405.19,-254.82 C 404.53,-257.08 403.64,-295.45 405.19,-297.22 C 418.0,-311.82 435.7000,-288.31 448.51,-302.9 C 460.93,-317.07 454.21,-327.34 448.51,-345.3 C 448.0100,-346.87 447.3600,-348.43 446.6,-349.95"/></g><g fill="rgb(0%, 0%, 0%)" stroke="rgb(-51%, 30%, 37%)" stroke-width="1.0" fill-opacity="0.0" stroke-opacity="1.0"><path d="M 642.25,-592.46 C 640.73,-563.41 637.84,-509.4 637.3,-508.52 C 625.68,-489.41 481.38,-420.2 464.3000,-405.77 C 457.63,-400.13 451.21,-393.01 445.9,-386.4800"/></g><g fill="rgb(0%, 0%, 0%)" stroke="rgb(-51%, 30%, 37%)" stroke-width="1.0" fill-opacity="0.0" stroke-opacity="1.0"><path d="M 629.77,-592.05 C 621.71,-582.3 610.63,-570.98 598.25,-564.23 C 571.84,-549.84 557.3500,-566.93 531.9,-550.92 C 514.2,-539.78 500.65,-519.6800 492.4700,-504.94"/></g><g fill="rgb(0%, 0%, 0%)" stroke="rgb(-51%, 30%, 37%)" stroke-width="1.0" fill-opacity="0.0" stroke-opacity="1.0"><path d="M 683.2,-603.05 C 692.73,-599.67 702.21,-594.77 709.38,-587.67 C 735.35,-561.93 744.44,-518.17 747.57,-493.62"/></g><g fill="rgb(0%, 0%, 0%)" stroke="rgb(-51%, 30%, 37%)" stroke-width="1.0" fill-opacity="0.0" stroke-opacity="1.0"><path d="M 409.19,-658.38 C 406.6,-652.0 404.1,-644.69 402.8,-637.74 C 401.07,-628.48 400.56,-604.49 402.8,-595.34 C 410.23,-565.09 427.83,-563.47 435.2500,-533.22 C 438.67,-519.3000 435.0000,-426.3700 433.23,-386.38"/></g><g fill="rgb(0%, 0%, 0%)" stroke="rgb(-51%, 30%, 37%)" stroke-width="1.0" fill-opacity="0.0" stroke-opacity="1.0"><path d="M 456.26,-660.5800 C 476.55,-652.28 501.9100,-642.07 524.71,-633.33 C 557.18,-620.88 576.89,-634.07 598.25,-606.63 C 603.0,-600.52 595.03,-595.25 599.98,-589.3 C 612.54,-574.25 634.33,-568.77 651.89,-566.92"/></g><g fill="rgb(0%, 0%, 0%)" stroke="rgb(-51%, 30%, 37%)" stroke-width="1.0" fill-opacity="0.0" stroke-opacity="1.0"><path d="M 386.22,-658.37 C 375.23,-652.97 362.6,-647.75 350.39,-644.91 C 331.19,-640.4500 280.87,-647.92 261.72,-643.27 C 257.55,-642.26 253.3100,-640.76 249.2300,-639.03"/></g><g fill="rgb(0%, 0%, 0%)" stroke="rgb(-51%, 30%, 37%)" stroke-width="1.0" fill-opacity="0.0" stroke-opacity="1.0"><path d="M 409.19,-658.38 C 406.6,-652.0 404.1,-644.69 402.8,-637.74 C 401.07,-628.48 400.56,-604.49 402.8,-595.34 C 410.23,-565.09 427.47,-563.38 435.2500,-533.22 C 439.01,-518.66 434.27,-480.3900 436.88,-465.5900 C 443.09,-430.3700 456.75,-424.62 462.59,-389.34 C 464.09,-380.26 463.56,-323.98 463.16,-294.3"/></g><g fill="rgb(0%, 0%, 0%)" stroke="rgb(-51%, 30%, 37%)" stroke-width="1.0" fill-opacity="0.0" stroke-opacity="1.0"><path d="M 357.35,-71.213 C 354.05,-101.01 348.83,-158.86 355.53,-178.02 C 366.83,-210.31 391.75,-206.08 403.5,-238.2000 C 404.63,-241.28 402.99,-294.79 405.19,-297.22 C 418.2,-311.63 435.7000,-288.31 448.51,-302.9 C 460.93,-317.07 454.21,-327.34 448.51,-345.3 C 448.0100,-346.87 447.3600,-348.43 446.6,-349.95"/></g><g fill="rgb(0%, 0%, 0%)" stroke="rgb(-51%, 30%, 37%)" stroke-width="1.0" fill-opacity="0.0" stroke-opacity="1.0"><path d="M 346.95,-497.0800 C 352.31,-504.16 357.79,-512.63 361.19,-521.19 C 363.19,-526.2000 360.45,-528.39 362.85,-533.22 C 376.2,-560.0 401.53,-583.34 420.84,-598.45"/></g><g fill="rgb(0%, 0%, 0%)" stroke="rgb(-51%, 30%, 37%)" stroke-width="1.0" fill-opacity="0.0" stroke-opacity="1.0"><path d="M 347.76,-460.5500 C 366.54,-440.04 396.83,-406.96 415.63,-386.44"/></g><g fill="rgb(0%, 0%, 0%)" stroke="rgb(-51%, 30%, 37%)" stroke-width="1.0" fill-opacity="0.0" stroke-opacity="1.0"><path d="M 358.37,-474.84 C 379.72,-471.87 410.12,-467.94 436.88,-465.5900 C 493.15,-460.65 558.6400,-457.9100 598.44,-456.5700"/></g><g fill="rgb(0%, 0%, 0%)" stroke="rgb(-51%, 30%, 37%)" stroke-width="1.0" fill-opacity="0.0" stroke-opacity="1.0"><path d="M 346.95,-497.0800 C 352.31,-504.16 357.79,-512.63 361.19,-521.19 C 363.19,-526.2000 359.69,-528.85 362.85,-533.22 C 399.81,-584.21 453.0700,-544.48 490.2000,-595.34 C 493.19,-599.44 489.1600,-602.33 491.85,-606.63 C 500.42,-620.38 514.57,-631.16 527.91,-638.98"/></g><g fill="rgb(0%, 0%, 0%)" stroke="rgb(-51%, 30%, 37%)" stroke-width="1.0" fill-opacity="0.0" stroke-opacity="1.0"><path d="M 358.25,-469.38 C 396.0,-456.1 466.19,-430.7300 524.7,-405.77 C 536.6400,-400.68 549.48,-394.7100 560.99,-389.17"/></g><g fill="rgb(0%, 0%, 0%)" stroke="rgb(-51%, 30%, 37%)" stroke-width="1.0" fill-opacity="0.0" stroke-opacity="1.0"><path d="M 316.28,-496.8300 C 298.89,-519.4600 271.13,-560.28 261.72,-600.87 C 257.4600,-619.23 252.22,-627.0 261.72,-643.27 C 262.69,-644.94 263.8400,-646.5 265.12,-647.96"/></g><g fill="rgb(0%, 0%, 0%)" stroke="rgb(-51%, 30%, 37%)" stroke-width="1.0" fill-opacity="0.0" stroke-opacity="1.0"><path d="M 358.12,-473.48 C 381.89,-470.5100 415.62,-470.78 435.2500,-490.8200 C 437.94,-493.56 434.65,-504.8700 436.88,-507.9900 C 463.8200,-545.69 487.7800,-536.73 531.9,-550.92 C 560.53,-560.13 571.84,-549.84 598.25,-564.23 C 610.63,-570.98 621.71,-582.3 629.77,-592.05"/></g><g fill="rgb(0%, 0%, 0%)" stroke="rgb(-51%, 30%, 37%)" stroke-width="1.0" fill-opacity="0.0" stroke-opacity="1.0"><path d="M 358.38,-463.05 C 388.65,-445.6 437.13,-417.65 467.3200,-400.24"/></g><g fill="rgb(0%, 0%, 0%)" stroke="rgb(-51%, 30%, 37%)" stroke-width="1.0" fill-opacity="0.0" stroke-opacity="1.0"><path d="M 358.12,-473.48 C 381.89,-470.5100 415.62,-470.78 435.2500,-490.8200 C 437.94,-493.56 434.65,-504.8700 436.88,-507.9900 C 463.8200,-545.69 487.1700,-538.79 531.9,-550.92 C 572.84,-562.02 622.19,-565.27 652.1,-566.18"/></g><g fill="rgb(0%, 0%, 0%)" stroke="rgb(-51%, 30%, 37%)" stroke-width="1.0" fill-opacity="0.0" stroke-opacity="1.0"><path d="M 318.63,-460.7300 C 304.88,-442.0200 281.0,-413.27 253.66,-396.83 C 205.98,-368.17 141.18,-355.83 104.18,-350.84"/></g><g fill="rgb(0%, 0%, 0%)" stroke="rgb(-51%, 30%, 37%)" stroke-width="1.0" fill-opacity="0.0" stroke-opacity="1.0"><path d="M 346.95,-497.0800 C 352.31,-504.16 357.79,-512.63 361.19,-521.19 C 363.19,-526.2000 361.13,-528.1 362.85,-533.22 C 373.92,-565.94 391.56,-567.68 401.12,-600.87 C 402.25,-604.81 400.3,-634.49 402.8,-637.74 C 418.78,-658.46 436.39,-642.13 458.9900,-655.3 C 470.38,-661.94 481.2400,-671.86 489.5700,-680.52"/></g><g fill="rgb(0%, 0%, 0%)" stroke="rgb(-51%, 30%, 37%)" stroke-width="1.0" fill-opacity="0.0" stroke-opacity="1.0"><path d="M 303.94,-487.6 C 285.11,-493.7000 259.84,-501.88 239.52,-508.46"/></g><g fill="rgb(0%, 0%, 0%)" stroke="rgb(-51%, 30%, 37%)" stroke-width="1.0" fill-opacity="0.0" stroke-opacity="1.0"><path d="M 358.12,-473.48 C 381.89,-470.5100 415.62,-470.78 435.2500,-490.8200 C 437.94,-493.56 434.24,-505.21 436.88,-507.9900 C 461.51,-533.93 502.5100,-538.22 535.08,-536.66"/></g><g fill="rgb(0%, 0%, 0%)" stroke="rgb(-51%, 30%, 37%)" stroke-width="1.0" fill-opacity="0.0" stroke-opacity="1.0"><path d="M 358.29,-480.2500 C 380.92,-481.4300 413.52,-483.13 439.8,-484.5000"/></g><g fill="rgb(0%, 0%, 0%)" stroke="rgb(-51%, 30%, 37%)" stroke-width="1.0" fill-opacity="0.0" stroke-opacity="1.0"><path d="M 338.39,-460.6100 C 345.17,-443.03 354.93,-415.5100 360.08,-390.77 C 364.07,-371.5700 357.86,-319.62 368.11,-302.9 C 377.82,-287.05 394.52,-296.88 403.5,-280.6 C 405.77,-276.48 405.05,-242.65 403.5,-238.2000 C 392.21,-205.9200 376.68,-204.91 355.53,-178.02 C 349.05,-169.78 341.93,-160.62 335.91,-152.84"/></g><g fill="rgb(0%, 0%, 0%)" stroke="rgb(-51%, 30%, 37%)" stroke-width="1.0" fill-opacity="0.0" stroke-opacity="1.0"><path d="M 317.66,-460.7500 C 303.47,-442.5900 279.55,-414.79 253.66,-396.83 C 214.24,-369.49 188.87,-388.1 154.1700,-354.9700 C 140.13,-341.5700 131.54,-320.7700 126.83,-305.85"/></g><g fill="rgb(0%, 0%, 0%)" stroke="rgb(-51%, 30%, 37%)" stroke-width="1.0" fill-opacity="0.0" stroke-opacity="1.0"><path d="M 317.79,-460.7500 C 297.45,-432.9500 258.71,-380.01 238.27,-352.08"/></g><g fill="rgb(0%, 0%, 0%)" stroke="rgb(-51%, 30%, 37%)" stroke-width="1.0" fill-opacity="0.0" stroke-opacity="1.0"><path d="M 346.77,-524.06 C 352.12,-516.97 357.65,-508.52 361.22,-500.0300 C 362.83,-496.19 361.45,-494.7300 362.85,-490.8200 C 377.13,-451.2 403.61,-409.4400 419.46,-386.3000"/></g><g fill="rgb(0%, 0%, 0%)" stroke="rgb(-51%, 30%, 37%)" stroke-width="1.0" fill-opacity="0.0" stroke-opacity="1.0"><path d="M 358.28,-543.15 C 394.38,-545.75 457.2900,-556.03 490.2000,-595.34 C 493.46,-599.23 489.1600,-602.33 491.85,-606.63 C 500.42,-620.38 514.57,-631.16 527.91,-638.98"/></g><g fill="rgb(0%, 0%, 0%)" stroke="rgb(-51%, 30%, 37%)" stroke-width="1.0" fill-opacity="0.0" stroke-opacity="1.0"><path d="M 346.77,-524.06 C 352.12,-516.97 357.65,-508.52 361.22,-500.0300 C 362.83,-496.19 361.94,-494.8700 362.85,-490.8200 C 375.09,-436.3800 393.54,-373.0400 402.71,-342.47"/></g><g fill="rgb(0%, 0%, 0%)" stroke="rgb(-51%, 30%, 37%)" stroke-width="1.0" fill-opacity="0.0" stroke-opacity="1.0"><path d="M 358.28,-543.15 C 394.38,-545.75 457.2900,-556.03 490.2000,-595.34 C 493.46,-599.23 488.0500,-603.27 491.85,-606.63 C 521.62,-633.07 569.1600,-629.57 603.0,-622.31"/></g><g fill="rgb(0%, 0%, 0%)" stroke="rgb(-51%, 30%, 37%)" stroke-width="1.0" fill-opacity="0.0" stroke-opacity="1.0"><path d="M 358.22,-557.3 C 373.74,-567.39 391.89,-582.27 401.12,-600.87 C 402.94,-604.55 401.96,-633.73 402.8,-637.74 C 404.26,-644.66 406.8,-651.96 409.37,-658.34"/></g><g fill="rgb(0%, 0%, 0%)" stroke="rgb(-51%, 30%, 37%)" stroke-width="1.0" fill-opacity="0.0" stroke-opacity="1.0"><path d="M 358.13,-541.03 C 400.3,-538.92 482.19,-534.83 535.08,-532.19"/></g><g fill="rgb(0%, 0%, 0%)" stroke="rgb(-51%, 30%, 37%)" stroke-width="1.0" fill-opacity="0.0" stroke-opacity="1.0"><path d="M 358.38,-544.83 C 380.17,-545.65 410.94,-544.27 435.2500,-533.22 C 449.02,-526.96 461.27,-515.08 469.9900,-504.9100"/></g><g fill="rgb(0%, 0%, 0%)" stroke="rgb(-51%, 30%, 37%)" stroke-width="1.0" fill-opacity="0.0" stroke-opacity="1.0"><path d="M 310.0500,-524.3 C 282.74,-500.73 235.25,-459.72 207.93,-436.1300"/></g><g fill="rgb(0%, 0%, 0%)" stroke="rgb(-51%, 30%, 37%)" stroke-width="1.0" fill-opacity="0.0" stroke-opacity="1.0"><path d="M 346.77,-524.06 C 352.12,-516.97 357.65,-508.52 361.22,-500.0300 C 362.83,-496.19 360.95,-494.51 362.85,-490.8200 C 391.86,-434.62 438.57,-447.83 462.59,-389.34 C 464.36,-385.04 463.68,-325.32 463.2,-294.36"/></g><g fill="rgb(0%, 0%, 0%)" stroke="rgb(-51%, 30%, 37%)" stroke-width="1.0" fill-opacity="0.0" stroke-opacity="1.0"><path d="M 346.77,-524.06 C 352.12,-516.97 357.65,-508.52 361.22,-500.0300 C 362.83,-496.19 360.4,-494.17 362.85,-490.8200 C 410.83,-425.23 466.66,-462.6400 524.7,-405.77 C 544.96,-385.9200 533.3,-367.51 555.54,-349.9 C 565.58,-341.95 578.22,-336.77 590.54,-333.38"/></g><g fill="rgb(0%, 0%, 0%)" stroke="rgb(-51%, 30%, 37%)" stroke-width="1.0" fill-opacity="0.0" stroke-opacity="1.0"><path d="M 303.86,-545.81 C 270.98,-549.12 214.15,-552.16 167.1000,-540.91 C 155.51,-538.14 143.61,-532.96 133.29,-527.59"/></g><g fill="rgb(0%, 0%, 0%)" stroke="rgb(-51%, 30%, 37%)" stroke-width="1.0" fill-opacity="0.0" stroke-opacity="1.0"><path d="M 394.59,-174.85 C 397.5,-191.29 401.54,-216.28 403.5,-238.2000 C 403.79,-241.47 402.99,-294.79 405.19,-297.22 C 418.2,-311.63 435.7000,-288.31 448.51,-302.9 C 460.93,-317.07 454.21,-327.34 448.51,-345.3 C 448.0100,-346.87 447.3600,-348.43 446.6,-349.95"/></g><g fill="rgb(0%, 0%, 0%)" stroke="rgb(-51%, 30%, 37%)" stroke-width="1.0" fill-opacity="0.0" stroke-opacity="1.0"><path d="M 424.08,-144.3 C 425.59,-143.9 427.1000,-143.54 428.58,-143.22 C 490.31,-129.87 564.06,-126.9800 607.07,-126.56"/></g><g fill="rgb(0%, 0%, 0%)" stroke="rgb(-51%, 30%, 37%)" stroke-width="1.0" fill-opacity="0.0" stroke-opacity="1.0"><path d="M 394.59,-174.85 C 397.5,-191.29 401.54,-216.28 403.5,-238.2000 C 405.83,-264.34 403.3,-271.05 405.19,-297.22 C 405.39,-300.03 405.67,-303.0 405.98,-305.9"/></g><g fill="rgb(0%, 0%, 0%)" stroke="rgb(-51%, 30%, 37%)" stroke-width="1.0" fill-opacity="0.0" stroke-opacity="1.0"><path d="M 424.08,-160.31 C 426.57,-160.57 429.09,-160.84 431.58,-161.1"/></g><g fill="rgb(0%, 0%, 0%)" stroke="rgb(-51%, 30%, 37%)" stroke-width="1.0" fill-opacity="0.0" stroke-opacity="1.0"><path d="M 423.96,-139.48 C 446.31,-127.6400 475.58,-112.13 496.6000,-100.98"/></g><g fill="rgb(0%, 0%, 0%)" stroke="rgb(-51%, 30%, 37%)" stroke-width="1.0" fill-opacity="0.0" stroke-opacity="1.0"><path d="M 411.52,-174.98 C 416.79,-178.96 422.66,-182.82 428.58,-185.62 C 449.3300,-195.4 474.53,-201.12 494.4200,-204.3800"/></g><g fill="rgb(0%, 0%, 0%)" stroke="rgb(-51%, 30%, 37%)" stroke-width="1.0" fill-opacity="0.0" stroke-opacity="1.0"><path d="M 399.85,-530.02 C 401.32,-564.87 404.06,-638.56 401.12,-643.27 C 394.69,-653.58 385.45,-647.0 376.59,-655.3 C 361.98,-669.0000 351.33,-689.52 344.99,-704.27"/></g><g fill="rgb(0%, 0%, 0%)" stroke="rgb(-51%, 30%, 37%)" stroke-width="1.0" fill-opacity="0.0" stroke-opacity="1.0"><path d="M 390.29,-493.98 C 377.06,-466.73 352.11,-415.3400 338.79,-387.91"/></g><g fill="rgb(0%, 0%, 0%)" stroke="rgb(-51%, 30%, 37%)" stroke-width="1.0" fill-opacity="0.0" stroke-opacity="1.0"><path d="M 403.28,-493.8 C 409.69,-466.12 421.81,-413.8 428.2000,-386.21"/></g><g fill="rgb(0%, 0%, 0%)" stroke="rgb(-51%, 30%, 37%)" stroke-width="1.0" fill-opacity="0.0" stroke-opacity="1.0"><path d="M 432.2200,-514.9 C 459.09,-516.31 497.6800,-516.23 530.28,-507.9900 C 557.88,-501.0100 586.62,-485.97 606.99,-473.78"/></g><g fill="rgb(0%, 0%, 0%)" stroke="rgb(-51%, 30%, 37%)" stroke-width="1.0" fill-opacity="0.0" stroke-opacity="1.0"><path d="M 427.83,-530.24 C 448.71,-545.11 475.75,-568.06 490.2000,-595.34 C 492.58,-599.82 489.1600,-602.33 491.85,-606.63 C 500.42,-620.38 514.57,-631.16 527.91,-638.98"/></g><g fill="rgb(0%, 0%, 0%)" stroke="rgb(-51%, 30%, 37%)" stroke-width="1.0" fill-opacity="0.0" stroke-opacity="1.0"><path d="M 397.96,-493.5800 C 396.46,-462.9500 394.73,-399.7300 402.19,-346.94 C 402.41,-345.39 402.7,-343.8 403.03,-342.22"/></g><g fill="rgb(0%, 0%, 0%)" stroke="rgb(-51%, 30%, 37%)" stroke-width="1.0" fill-opacity="0.0" stroke-opacity="1.0"><path d="M 399.94,-530.08 C 401.57,-565.04 404.58,-638.92 401.12,-643.27 C 394.18,-652.0 369.94,-657.68 347.2,-661.1900"/></g><g fill="rgb(0%, 0%, 0%)" stroke="rgb(-51%, 30%, 37%)" stroke-width="1.0" fill-opacity="0.0" stroke-opacity="1.0"><path d="M 427.83,-530.24 C 448.7200,-545.11 475.75,-568.06 490.2000,-595.34 C 490.2000,-595.34 498.2,-650.41 502.5100,-680.1"/></g><g fill="rgb(0%, 0%, 0%)" stroke="rgb(-51%, 30%, 37%)" stroke-width="1.0" fill-opacity="0.0" stroke-opacity="1.0"><path d="M 389.24,-530.37 C 382.58,-541.3 372.88,-554.74 361.19,-563.59 C 323.55,-592.09 304.41,-580.7 261.72,-600.87 C 257.7000,-602.77 253.54,-604.94 249.5,-607.16"/></g><g fill="rgb(0%, 0%, 0%)" stroke="rgb(-51%, 30%, 37%)" stroke-width="1.0" fill-opacity="0.0" stroke-opacity="1.0"><path d="M 432.08,-510.91 C 458.9500,-510.06 497.87,-508.9700 531.9,-508.52 C 578.74,-507.9 590.46,-507.8000 637.3,-508.52 C 638.85,-508.5400 640.44,-508.57 642.04,-508.6100"/></g><g fill="rgb(0%, 0%, 0%)" stroke="rgb(-51%, 30%, 37%)" stroke-width="1.0" fill-opacity="0.0" stroke-opacity="1.0"><path d="M 432.46,-502.05 C 434.95,-501.3000 437.49,-500.55 440.0300,-499.79"/></g><g fill="rgb(0%, 0%, 0%)" stroke="rgb(-51%, 30%, 37%)" stroke-width="1.0" fill-opacity="0.0" stroke-opacity="1.0"><path d="M 411.51,-493.9 C 426.6400,-470.8000 451.5100,-429.0800 462.59,-389.34 C 465.7,-378.2000 459.95,-374.0900 464.3000,-363.37 C 478.8100,-327.6000 505.68,-332.83 520.5900,-297.22 C 530.22,-274.24 530.84,-245.0400 529.98,-226.5400"/></g><g fill="rgb(0%, 0%, 0%)" stroke="rgb(-51%, 30%, 37%)" stroke-width="1.0" fill-opacity="0.0" stroke-opacity="1.0"><path d="M 411.92,-494.0000 C 427.47,-471.01 452.77,-429.41 462.59,-389.34 C 464.78,-380.4 463.93,-324.06 463.31,-294.33"/></g><g fill="rgb(0%, 0%, 0%)" stroke="rgb(-51%, 30%, 37%)" stroke-width="1.0" fill-opacity="0.0" stroke-opacity="1.0"><path d="M 411.95,-493.7700 C 418.8,-484.75 427.69,-474.02 436.88,-465.5900 C 471.67,-433.65 492.9100,-440.69 524.7,-405.77 C 543.8,-384.8 533.3,-367.51 555.54,-349.9 C 565.58,-341.95 578.22,-336.77 590.54,-333.38"/></g><g fill="rgb(0%, 0%, 0%)" stroke="rgb(-51%, 30%, 37%)" stroke-width="1.0" fill-opacity="0.0" stroke-opacity="1.0"><path d="M 387.89,-530.19 C 375.35,-550.58 355.14,-583.47 342.6,-603.87"/></g><g fill="rgb(0%, 0%, 0%)" stroke="rgb(-51%, 30%, 37%)" stroke-width="1.0" fill-opacity="0.0" stroke-opacity="1.0"><path d="M 387.91,-493.8800 C 380.83,-482.93 371.16,-468.95 361.22,-457.63 C 325.13,-416.5400 276.4200,-375.0800 248.05,-352.08"/></g><g fill="rgb(0%, 0%, 0%)" stroke="rgb(-51%, 30%, 37%)" stroke-width="1.0" fill-opacity="0.0" stroke-opacity="1.0"><path d="M 467.3700,-388.9 C 465.76,-389.0700 464.15,-389.22 462.59,-389.34 C 435.82,-391.32 428.8,-392.91 402.19,-389.34 C 386.97,-387.29 370.42,-382.9300 356.99,-378.83"/></g><g fill="rgb(0%, 0%, 0%)" stroke="rgb(-51%, 30%, 37%)" stroke-width="1.0" fill-opacity="0.0" stroke-opacity="1.0"><path d="M 521.53,-388.1 C 532.13,-389.46 544.4,-391.0 555.54,-392.3 C 629.63,-400.97 717.16,-410.07 760.54,-414.51"/></g><g fill="rgb(0%, 0%, 0%)" stroke="rgb(-51%, 30%, 37%)" stroke-width="1.0" fill-opacity="0.0" stroke-opacity="1.0"><path d="M 467.44,-377.41 C 464.82,-376.7200 462.17,-376.02 459.55,-375.3200"/></g><g fill="rgb(0%, 0%, 0%)" stroke="rgb(-51%, 30%, 37%)" stroke-width="1.0" fill-opacity="0.0" stroke-opacity="1.0"><path d="M 521.59,-398.25 C 543.68,-409.41 575.07,-425.25 599.23,-437.45"/></g><g fill="rgb(0%, 0%, 0%)" stroke="rgb(-51%, 30%, 37%)" stroke-width="1.0" fill-opacity="0.0" stroke-opacity="1.0"><path d="M 514.55,-366.29 C 544.45,-337.77 600.15,-279.55 627.71,-218.0700 C 638.36,-194.31 641.73,-164.06 642.77,-145.05"/></g><g fill="rgb(0%, 0%, 0%)" stroke="rgb(-51%, 30%, 37%)" stroke-width="1.0" fill-opacity="0.0" stroke-opacity="1.0"><path d="M 505.2000,-402.8100 C 513.9,-418.7700 525.49,-442.87 530.28,-465.5900 C 534.1700,-484.03 535.84,-489.98 530.28,-507.9900 C 521.34,-536.91 500.7800,-535.31 491.85,-564.23 C 490.4500,-568.73 489.65,-602.47 491.85,-606.63 C 499.55,-621.23 513.9200,-632.22 527.66,-639.97"/></g><g fill="rgb(0%, 0%, 0%)" stroke="rgb(-51%, 30%, 37%)" stroke-width="1.0" fill-opacity="0.0" stroke-opacity="1.0"><path d="M 482.01,-366.4800 C 476.64,-359.68 469.91,-352.31 462.59,-346.94 C 457.4000,-343.13 451.47,-339.81 445.49,-336.97"/></g><g fill="rgb(0%, 0%, 0%)" stroke="rgb(-51%, 30%, 37%)" stroke-width="1.0" fill-opacity="0.0" stroke-opacity="1.0"><path d="M 476.69,-402.72 C 462.9400,-418.06 444.9400,-441.3500 436.88,-465.5900 C 432.1300,-479.85 439.01,-518.66 435.2500,-533.22 C 427.47,-563.38 410.76,-565.22 402.8,-595.34 C 401.44,-600.49 404.51,-639.16 401.12,-643.27 C 394.05,-651.84 369.98,-657.51 347.35,-661.05"/></g><g fill="rgb(0%, 0%, 0%)" stroke="rgb(-51%, 30%, 37%)" stroke-width="1.0" fill-opacity="0.0" stroke-opacity="1.0"><path d="M 513.3600,-402.78 C 533.26,-421.7700 565.79,-452.14 595.31,-476.72 C 613.3,-491.7 626.28,-487.8700 637.3,-508.52 C 637.79,-509.43 640.7,-563.43 642.24,-592.47"/></g><g fill="rgb(0%, 0%, 0%)" stroke="rgb(-51%, 30%, 37%)" stroke-width="1.0" fill-opacity="0.0" stroke-opacity="1.0"><path d="M 476.69,-402.72 C 462.9400,-418.06 444.9400,-441.3500 436.88,-465.5900 C 432.1300,-479.85 439.01,-518.66 435.2500,-533.22 C 427.47,-563.38 410.23,-565.09 402.8,-595.34 C 400.56,-604.49 401.07,-628.48 402.8,-637.74 C 404.1,-644.69 406.6,-652.0 409.19,-658.38"/></g><g fill="rgb(0%, 0%, 0%)" stroke="rgb(-51%, 30%, 37%)" stroke-width="1.0" fill-opacity="0.0" stroke-opacity="1.0"><path d="M 489.5200,-366.3 C 483.28,-347.16 470.62,-317.84 448.51,-302.9 C 432.4200,-292.03 418.2,-311.63 405.19,-297.22 C 402.99,-294.79 404.63,-241.28 403.5,-238.2000 C 391.75,-206.08 366.83,-210.31 355.53,-178.02 C 348.83,-158.86 354.05,-101.01 357.35,-71.213"/></g><g fill="rgb(0%, 0%, 0%)" stroke="rgb(-51%, 30%, 37%)" stroke-width="1.0" fill-opacity="0.0" stroke-opacity="1.0"><path d="M 467.43,-398.55 C 436.82,-415.86 387.97,-448.34 362.85,-490.8200 C 360.74,-494.4 362.83,-496.19 361.22,-500.0300 C 357.65,-508.52 352.12,-516.97 346.77,-524.06"/></g><g fill="rgb(0%, 0%, 0%)" stroke="rgb(-51%, 30%, 37%)" stroke-width="1.0" fill-opacity="0.0" stroke-opacity="1.0"><path d="M 489.5200,-366.3 C 483.28,-347.16 470.62,-317.84 448.51,-302.9 C 432.4200,-292.03 418.2,-311.63 405.19,-297.22 C 402.99,-294.79 403.79,-241.47 403.5,-238.2000 C 401.54,-216.28 397.5,-191.29 394.59,-174.85"/></g><g fill="rgb(0%, 0%, 0%)" stroke="rgb(-51%, 30%, 37%)" stroke-width="1.0" fill-opacity="0.0" stroke-opacity="1.0"><path d="M 513.3600,-402.78 C 533.26,-421.7700 565.79,-452.14 595.31,-476.72 C 613.3,-491.7 626.11,-487.96 637.3,-508.52 C 642.02,-517.2 634.57,-521.84 638.95,-530.7 C 642.18,-537.23 647.18,-543.11 652.56,-548.12"/></g><g fill="rgb(0%, 0%, 0%)" stroke="rgb(-51%, 30%, 37%)" stroke-width="1.0" fill-opacity="0.0" stroke-opacity="1.0"><path d="M 512.36,-366.37 C 530.14,-349.02 558.84,-323.07 587.48,-305.85 C 605.86,-294.79 628.37,-285.88 645.96,-279.82"/></g><g fill="rgb(0%, 0%, 0%)" stroke="rgb(-51%, 30%, 37%)" stroke-width="1.0" fill-opacity="0.0" stroke-opacity="1.0"><path d="M 505.2000,-402.8100 C 513.9,-418.7700 525.49,-442.87 530.28,-465.5900 C 534.1700,-484.03 535.84,-489.98 530.28,-507.9900 C 521.34,-536.91 500.7800,-535.31 491.85,-564.23 C 486.28,-582.24 490.49,-587.84 491.85,-606.63 C 493.7000,-632.37 498.45,-661.84 501.75,-680.33"/></g><g fill="rgb(0%, 0%, 0%)" stroke="rgb(-51%, 30%, 37%)" stroke-width="1.0" fill-opacity="0.0" stroke-opacity="1.0"><path d="M 467.42,-392.76 C 429.2600,-404.75 357.93,-428.81 300.82,-457.63 C 275.47,-470.41 248.49,-488.2900 229.6,-501.57"/></g><g fill="rgb(0%, 0%, 0%)" stroke="rgb(-51%, 30%, 37%)" stroke-width="1.0" fill-opacity="0.0" stroke-opacity="1.0"><path d="M 505.73,-402.66 C 523.0,-430.4700 555.88,-483.4500 573.23,-511.4"/></g><g fill="rgb(0%, 0%, 0%)" stroke="rgb(-51%, 30%, 37%)" stroke-width="1.0" fill-opacity="0.0" stroke-opacity="1.0"><path d="M 510.9100,-402.7400 C 529.76,-422.83 562.3700,-455.18 595.31,-476.72 C 609.87,-486.24 627.65,-494.23 642.11,-499.93"/></g><g fill="rgb(0%, 0%, 0%)" stroke="rgb(-51%, 30%, 37%)" stroke-width="1.0" fill-opacity="0.0" stroke-opacity="1.0"><path d="M 506.0200,-366.41 C 523.04,-338.37 554.14,-282.25 565.6500,-229.62 C 567.66,-220.42 567.5,-196.4600 565.6500,-187.22 C 559.5800,-156.98 544.2,-124.49 533.8200,-104.87"/></g><g fill="rgb(0%, 0%, 0%)" stroke="rgb(-51%, 30%, 37%)" stroke-width="1.0" fill-opacity="0.0" stroke-opacity="1.0"><path d="M 505.8100,-366.36 C 522.57,-338.26 553.34,-282.07 565.6500,-229.62 C 568.39,-217.9500 564.27,-187.27 567.31,-175.67 C 576.23,-141.66 582.51,-133.41 603.99,-105.5800 C 605.22,-103.99 606.56,-102.42 607.97,-100.89"/></g><g fill="rgb(0%, 0%, 0%)" stroke="rgb(-51%, 30%, 37%)" stroke-width="1.0" fill-opacity="0.0" stroke-opacity="1.0"><path d="M 492.55,-402.85 C 490.56,-421.45 487.5,-450.1200 485.51,-468.67"/></g><g fill="rgb(0%, 0%, 0%)" stroke="rgb(-51%, 30%, 37%)" stroke-width="1.0" fill-opacity="0.0" stroke-opacity="1.0"><path d="M 489.5200,-366.3 C 483.28,-347.16 470.62,-317.84 448.51,-302.9 C 432.4200,-292.03 418.2,-311.63 405.19,-297.22 C 402.99,-294.79 404.63,-241.28 403.5,-238.2000 C 391.75,-206.08 376.68,-204.91 355.53,-178.02 C 349.05,-169.78 341.93,-160.62 335.91,-152.84"/></g><g fill="rgb(0%, 0%, 0%)" stroke="rgb(-51%, 30%, 37%)" stroke-width="1.0" fill-opacity="0.0" stroke-opacity="1.0"><path d="M 521.72,-389.9800 C 557.5900,-397.58 622.27,-412.9300 674.71,-434.32 C 690.31,-440.6800 706.78,-449.55 720.26,-457.4300"/></g><g fill="rgb(0%, 0%, 0%)" stroke="rgb(-51%, 30%, 37%)" stroke-width="1.0" fill-opacity="0.0" stroke-opacity="1.0"><path d="M 484.09,-366.5400 C 478.71,-359.04 471.42,-351.12 462.59,-346.94 C 457.85,-344.69 373.23,-346.45 368.11,-345.3 C 333.6,-337.56 328.16,-326.31 295.57,-312.57 C 259.73,-297.46 249.51,-296.7 214.1,-280.6 C 185.42,-267.5600 153.7300,-250.92 130.76,-238.43"/></g><g fill="rgb(0%, 0%, 0%)" stroke="rgb(-51%, 30%, 37%)" stroke-width="1.0" fill-opacity="0.0" stroke-opacity="1.0"><path d="M 501.09,-366.43 C 507.1600,-348.95 515.9100,-321.63 520.5900,-297.22 C 525.22,-273.05 527.13,-244.65 527.91,-226.6000"/></g><g fill="rgb(0%, 0%, 0%)" stroke="rgb(-51%, 30%, 37%)" stroke-width="1.0" fill-opacity="0.0" stroke-opacity="1.0"><path d="M 467.3600,-388.71 C 465.74,-388.9300 464.15,-389.14 462.59,-389.34 C 390.04,-398.5200 306.47,-406.9200 250.5500,-412.22"/></g><g fill="rgb(0%, 0%, 0%)" stroke="rgb(-51%, 30%, 37%)" stroke-width="1.0" fill-opacity="0.0" stroke-opacity="1.0"><path d="M 489.5200,-366.3 C 483.28,-347.16 470.62,-317.84 448.51,-302.9 C 432.4200,-292.03 423.99,-302.07 405.19,-297.22 C 386.04,-292.29 365.55,-284.61 348.41,-277.46"/></g><g fill="rgb(0%, 0%, 0%)" stroke="rgb(-51%, 30%, 37%)" stroke-width="1.0" fill-opacity="0.0" stroke-opacity="1.0"><path d="M 505.09,-402.84 C 513.72,-418.8 525.27,-442.92 530.28,-465.5900 C 538.46,-502.63 524.6800,-513.68 531.9,-550.92 C 532.95,-556.33 534.78,-562.0 536.74,-567.15"/></g><g fill="rgb(0%, 0%, 0%)" stroke="rgb(-51%, 30%, 37%)" stroke-width="1.0" fill-opacity="0.0" stroke-opacity="1.0"><path d="M 513.24,-366.56 C 540.93,-340.17 594.72,-289.76 642.87,-249.64 C 647.6,-245.69 652.78,-241.6000 657.77,-237.76"/></g><g fill="rgb(0%, 0%, 0%)" stroke="rgb(-51%, 30%, 37%)" stroke-width="1.0" fill-opacity="0.0" stroke-opacity="1.0"><path d="M 489.1400,-366.16 C 483.29,-346.08 473.9900,-314.14 468.17,-294.16"/></g><g fill="rgb(0%, 0%, 0%)" stroke="rgb(-51%, 30%, 37%)" stroke-width="1.0" fill-opacity="0.0" stroke-opacity="1.0"><path d="M 521.73,-367.22 C 532.04,-361.16 544.06,-354.68 555.54,-349.9 C 566.54,-345.31 578.76,-341.34 590.32,-338.06"/></g><g fill="rgb(0%, 0%, 0%)" stroke="rgb(-51%, 30%, 37%)" stroke-width="1.0" fill-opacity="0.0" stroke-opacity="1.0"><path d="M 476.69,-402.72 C 462.9400,-418.06 444.9400,-441.3500 436.88,-465.5900 C 434.51,-472.72 438.48,-526.43 435.2500,-533.22 C 420.49,-564.29 389.14,-588.67 364.73,-603.97"/></g><g fill="rgb(0%, 0%, 0%)" stroke="rgb(-51%, 30%, 37%)" stroke-width="1.0" fill-opacity="0.0" stroke-opacity="1.0"><path d="M 467.23,-391.91 C 448.3,-395.6 422.86,-397.73 402.19,-389.34 C 378.0,-379.51 383.71,-359.48 360.08,-348.37 C 339.35,-338.62 314.92,-334.17 292.57,-332.39"/></g><g fill="rgb(0%, 0%, 0%)" stroke="rgb(-51%, 30%, 37%)" stroke-width="1.0" fill-opacity="0.0" stroke-opacity="1.0"><path d="M 652.56,-548.12 C 647.18,-543.11 642.18,-537.23 638.95,-530.7 C 636.76,-526.27 639.9,-512.7200 637.3,-508.52 C 625.53,-489.51 481.38,-420.2 464.3000,-405.77 C 457.63,-400.13 451.21,-393.01 445.9,-386.4800"/></g><g fill="rgb(0%, 0%, 0%)" stroke="rgb(-51%, 30%, 37%)" stroke-width="1.0" fill-opacity="0.0" stroke-opacity="1.0"><path d="M 652.04,-566.16 C 615.24,-565.31 551.81,-562.19 531.9,-550.92 C 513.5800,-540.55 500.06,-520.1 492.05,-505.07"/></g><g fill="rgb(0%, 0%, 0%)" stroke="rgb(-51%, 30%, 37%)" stroke-width="1.0" fill-opacity="0.0" stroke-opacity="1.0"><path d="M 645.79,-281.61 C 593.83,-300.53 487.3300,-338.38 448.51,-345.3 C 428.2300,-348.92 422.49,-343.47 402.19,-346.94 C 386.89,-349.55 370.33,-354.56 356.92,-359.21"/></g><g fill="rgb(0%, 0%, 0%)" stroke="rgb(-51%, 30%, 37%)" stroke-width="1.0" fill-opacity="0.0" stroke-opacity="1.0"><path d="M 645.87,-282.5 C 628.83,-289.3 606.94,-298.05 587.48,-305.85 C 542.63,-323.82 490.52,-344.76 459.56,-357.21"/></g><g fill="rgb(0%, 0%, 0%)" stroke="rgb(-51%, 30%, 37%)" stroke-width="1.0" fill-opacity="0.0" stroke-opacity="1.0"><path d="M 646.01,-276.64 C 597.26,-286.37 499.09,-305.98 445.42,-316.69"/></g><g fill="rgb(0%, 0%, 0%)" stroke="rgb(-51%, 30%, 37%)" stroke-width="1.0" fill-opacity="0.0" stroke-opacity="1.0"><path d="M 645.81,-265.12 C 620.41,-258.48 585.01,-244.82 567.31,-218.0700 C 563.52,-212.35 570.09,-192.46 565.6500,-187.22 C 548.38,-166.85 517.35,-162.3 493.87,-162.14"/></g><g fill="rgb(0%, 0%, 0%)" stroke="rgb(-51%, 30%, 37%)" stroke-width="1.0" fill-opacity="0.0" stroke-opacity="1.0"><path d="M 104.3300,-351.06 C 119.23,-352.59 137.64,-354.22 154.1700,-354.9700 C 216.95,-357.84 240.6500,-385.52 295.57,-354.9700 C 298.6,-353.29 296.6600,-350.05 299.68,-348.37 C 323.14,-335.32 333.47,-344.8 360.08,-348.37 C 375.3,-350.41 391.85,-354.77 405.28,-358.88"/></g><g fill="rgb(0%, 0%, 0%)" stroke="rgb(-51%, 30%, 37%)" stroke-width="1.0" fill-opacity="0.0" stroke-opacity="1.0"><path d="M 71.762,-366.06 C 68.621,-383.4700 63.925,-409.5000 60.789,-426.88"/></g><g fill="rgb(0%, 0%, 0%)" stroke="rgb(-51%, 30%, 37%)" stroke-width="1.0" fill-opacity="0.0" stroke-opacity="1.0"><path d="M 270.01,-126.88 C 275.7100,-136.1 283.34,-147.19 291.6800,-155.86 C 334.47,-200.34 374.87,-183.52 403.5,-238.2000 C 405.02,-241.1100 402.99,-294.79 405.19,-297.22 C 418.2,-311.63 435.7000,-288.31 448.51,-302.9 C 460.93,-317.07 454.21,-327.34 448.51,-345.3 C 448.0100,-346.87 447.3600,-348.43 446.6,-349.95"/></g><g fill="rgb(0%, 0%, 0%)" stroke="rgb(-51%, 30%, 37%)" stroke-width="1.0" fill-opacity="0.0" stroke-opacity="1.0"><path d="M 286.91,-108.03 C 321.4,-108.1100 381.9,-112.05 426.93,-135.62 C 432.45,-138.51 437.93,-142.31 442.8900,-146.2"/></g><g fill="rgb(0%, 0%, 0%)" stroke="rgb(-51%, 30%, 37%)" stroke-width="1.0" fill-opacity="0.0" stroke-opacity="1.0"><path d="M 268.49,-127.05 C 273.9500,-136.79 281.82,-148.29 291.6800,-155.86 C 351.81,-202.0 444.44,-209.24 494.1400,-209.47"/></g><g fill="rgb(0%, 0%, 0%)" stroke="rgb(-51%, 30%, 37%)" stroke-width="1.0" fill-opacity="0.0" stroke-opacity="1.0"><path d="M 182.48,-235.1900 C 188.9,-249.26 199.54,-268.3900 214.1,-280.6 C 243.9,-305.6 259.73,-297.46 295.57,-312.57 C 328.16,-326.31 335.3,-332.1 368.11,-345.3 C 380.19,-350.17 393.76,-355.07 405.31,-359.07"/></g><g fill="rgb(0%, 0%, 0%)" stroke="rgb(-51%, 30%, 37%)" stroke-width="1.0" fill-opacity="0.0" stroke-opacity="1.0"><path d="M 209.52,-214.06 C 258.38,-209.2300 350.63,-198.19 426.93,-178.02 C 428.48,-177.62 430.05,-177.16 431.63,-176.68"/></g><g fill="rgb(0%, 0%, 0%)" stroke="rgb(-51%, 30%, 37%)" stroke-width="1.0" fill-opacity="0.0" stroke-opacity="1.0"><path d="M 182.48,-235.1900 C 188.9,-249.26 199.54,-268.3900 214.1,-280.6 C 243.9,-305.6 260.38,-296.0 295.57,-312.57 C 325.23,-326.55 334.47,-327.89 360.08,-348.37 C 384.23,-367.67 441.6200,-435.8800 468.81,-468.7800"/></g><g fill="rgb(0%, 0%, 0%)" stroke="rgb(-51%, 30%, 37%)" stroke-width="1.0" fill-opacity="0.0" stroke-opacity="1.0"><path d="M 209.57,-215.32 C 255.15,-214.07 337.61,-215.66 403.5,-238.2000 C 416.57,-242.67 429.67,-250.5600 440.23,-257.9900"/></g><g fill="rgb(0%, 0%, 0%)" stroke="rgb(-51%, 30%, 37%)" stroke-width="1.0" fill-opacity="0.0" stroke-opacity="1.0"><path d="M 502.5200,-680.12 C 498.21,-650.45 490.22,-595.4 490.2000,-595.34 C 474.77,-552.55 449.89,-551.57 436.88,-507.9900 C 435.17,-502.27 433.44,-422.9300 432.73,-386.3600"/></g><g fill="rgb(0%, 0%, 0%)" stroke="rgb(-51%, 30%, 37%)" stroke-width="1.0" fill-opacity="0.0" stroke-opacity="1.0"><path d="M 506.2700,-680.3100 C 508.0500,-665.86 512.7,-646.05 524.71,-633.33 C 548.5800,-608.05 576.89,-634.07 598.25,-606.63 C 600.62,-603.58 598.35,-592.81 599.98,-589.3 C 610.02,-567.73 628.35,-572.96 637.3,-550.92 C 640.1,-544.01 637.83,-499.6500 636.24,-473.9300"/></g><g fill="rgb(0%, 0%, 0%)" stroke="rgb(-51%, 30%, 37%)" stroke-width="1.0" fill-opacity="0.0" stroke-opacity="1.0"><path d="M 528.59,-680.39 C 531.89,-677.83 535.27,-675.2 538.57,-672.65"/></g><g fill="rgb(0%, 0%, 0%)" stroke="rgb(-51%, 30%, 37%)" stroke-width="1.0" fill-opacity="0.0" stroke-opacity="1.0"><path d="M 464.5100,-702.34 C 438.9900,-703.71 405.56,-703.7 376.59,-697.7 C 363.12,-694.91 349.06,-689.63 336.84,-684.1700"/></g><g fill="rgb(0%, 0%, 0%)" stroke="rgb(-51%, 30%, 37%)" stroke-width="1.0" fill-opacity="0.0" stroke-opacity="1.0"><path d="M 545.79,-695.28 C 563.4200,-692.27 583.54,-686.55 599.11,-675.73 C 615.94,-664.03 628.18,-643.64 635.43,-628.77"/></g><g fill="rgb(0%, 0%, 0%)" stroke="rgb(-51%, 30%, 37%)" stroke-width="1.0" fill-opacity="0.0" stroke-opacity="1.0"><path d="M 506.2700,-680.3100 C 508.0500,-665.86 512.7,-646.05 524.71,-633.33 C 548.5800,-608.05 576.89,-634.07 598.25,-606.63 C 600.62,-603.58 598.35,-592.81 599.98,-589.3 C 610.02,-567.73 621.73,-568.91 637.3,-550.92 C 643.71,-543.51 650.38,-534.98 655.95,-527.59"/></g><g fill="rgb(0%, 0%, 0%)" stroke="rgb(-51%, 30%, 37%)" stroke-width="1.0" fill-opacity="0.0" stroke-opacity="1.0"><path d="M 502.13,-680.29 C 499.12,-661.78 494.5900,-632.29 491.85,-606.63 C 488.0100,-570.76 485.5800,-528.64 484.41,-505.1000"/></g><g fill="rgb(0%, 0%, 0%)" stroke="rgb(-51%, 30%, 37%)" stroke-width="1.0" fill-opacity="0.0" stroke-opacity="1.0"><path d="M 506.2700,-680.3100 C 508.0500,-665.86 512.7,-646.05 524.71,-633.33 C 548.5800,-608.05 576.89,-634.07 598.25,-606.63 C 600.62,-603.58 598.23,-592.76 599.98,-589.3 C 613.22,-563.19 623.38,-559.48 648.98,-545.27 C 669.35,-533.96 679.59,-543.06 699.35,-530.7 C 714.56,-521.19 727.95,-505.74 737.0,-493.6"/></g><g fill="rgb(0%, 0%, 0%)" stroke="rgb(-51%, 30%, 37%)" stroke-width="1.0" fill-opacity="0.0" stroke-opacity="1.0"><path d="M 232.26,-501.4300 C 276.12,-472.21 361.5,-415.35 405.2,-386.25"/></g><g fill="rgb(0%, 0%, 0%)" stroke="rgb(-51%, 30%, 37%)" stroke-width="1.0" fill-opacity="0.0" stroke-opacity="1.0"><path d="M 570.22,-511.47 C 559.6,-498.33 544.5800,-480.3800 530.28,-465.5900 C 502.7700,-437.13 491.82,-434.2200 464.3000,-405.77 C 458.3500,-399.6100 452.1700,-392.52 446.86,-386.1700"/></g><g fill="rgb(0%, 0%, 0%)" stroke="rgb(-51%, 30%, 37%)" stroke-width="1.0" fill-opacity="0.0" stroke-opacity="1.0"><path d="M 597.06,-511.3800 C 604.87,-499.88 614.91,-485.1100 622.69,-473.65"/></g><g fill="rgb(0%, 0%, 0%)" stroke="rgb(-51%, 30%, 37%)" stroke-width="1.0" fill-opacity="0.0" stroke-opacity="1.0"><path d="M 542.05,-511.64 C 536.77,-509.39 531.3600,-507.0900 526.08,-504.8500"/></g><g fill="rgb(0%, 0%, 0%)" stroke="rgb(-51%, 30%, 37%)" stroke-width="1.0" fill-opacity="0.0" stroke-opacity="1.0"><path d="M 603.14,-511.58 C 612.98,-503.06 625.75,-493.62 638.95,-488.3000 C 659.41,-480.05 683.62,-476.62 704.13,-475.36"/></g><g fill="rgb(0%, 0%, 0%)" stroke="rgb(-51%, 30%, 37%)" stroke-width="1.0" fill-opacity="0.0" stroke-opacity="1.0"><path d="M 579.81,-511.57 C 571.18,-480.2600 551.39,-414.54 524.7,-363.37 C 511.39,-337.84 491.5300,-311.2 477.94,-294.16"/></g><g fill="rgb(0%, 0%, 0%)" stroke="rgb(-51%, 30%, 37%)" stroke-width="1.0" fill-opacity="0.0" stroke-opacity="1.0"><path d="M 534.77,-547.52 C 498.21,-560.63 447.3700,-578.96 402.8,-595.34 C 395.23,-598.13 387.21,-601.1 379.39,-604.02"/></g><g fill="rgb(0%, 0%, 0%)" stroke="rgb(-51%, 30%, 37%)" stroke-width="1.0" fill-opacity="0.0" stroke-opacity="1.0"><path d="M 723.85,-363.7 C 699.39,-358.47 667.56,-352.53 638.94,-349.9 C 620.48,-348.2000 574.02,-348.54 555.54,-349.9 C 522.3400,-352.34 484.52,-358.44 459.6500,-362.9200"/></g><g fill="rgb(0%, 0%, 0%)" stroke="rgb(-51%, 30%, 37%)" stroke-width="1.0" fill-opacity="0.0" stroke-opacity="1.0"><path d="M 229.88,-605.49 C 249.7600,-558.58 302.4,-434.4 322.2,-387.68"/></g><g fill="rgb(0%, 0%, 0%)" stroke="rgb(-51%, 30%, 37%)" stroke-width="1.0" fill-opacity="0.0" stroke-opacity="1.0"><path d="M 227.26,-605.52 C 237.14,-572.9 261.39,-503.6900 300.82,-457.63 C 330.37,-423.1 376.27,-395.9900 405.31,-381.0300"/></g><g fill="rgb(0%, 0%, 0%)" stroke="rgb(-51%, 30%, 37%)" stroke-width="1.0" fill-opacity="0.0" stroke-opacity="1.0"><path d="M 641.81,-499.97 C 600.4,-484.64 520.63,-451.5 464.3000,-405.77 C 457.39,-400.1600 450.8200,-392.89 445.47,-386.2400"/></g><g fill="rgb(0%, 0%, 0%)" stroke="rgb(-51%, 30%, 37%)" stroke-width="1.0" fill-opacity="0.0" stroke-opacity="1.0"><path d="M 523.83,-105.0 C 523.0700,-127.11 518.3800,-163.99 496.98,-185.62 C 495.12,-187.5 493.61,-186.03 491.25,-187.22 C 447.88,-209.2300 427.87,-211.8 405.19,-254.82 C 402.51,-259.9000 406.44,-275.67 403.5,-280.6 C 393.99,-296.58 380.98,-289.48 368.11,-302.9 C 354.53,-317.06 343.94,-336.94 337.38,-351.3"/></g><g fill="rgb(0%, 0%, 0%)" stroke="rgb(-51%, 30%, 37%)" stroke-width="1.0" fill-opacity="0.0" stroke-opacity="1.0"><path d="M 523.83,-105.0 C 523.0700,-127.11 518.3800,-163.99 496.98,-185.62 C 495.12,-187.5 492.85,-185.11 491.25,-187.22 C 479.8700,-202.24 483.3900,-212.5 491.25,-229.62 C 498.43,-245.24 513.41,-239.2 520.5900,-254.82 C 528.45,-271.95 528.73,-280.23 520.5900,-297.22 C 508.0200,-323.45 480.5100,-343.05 459.53,-354.92"/></g><g fill="rgb(0%, 0%, 0%)" stroke="rgb(-51%, 30%, 37%)" stroke-width="1.0" fill-opacity="0.0" stroke-opacity="1.0"><path d="M 535.81,-104.87 C 549.5,-125.29 571.59,-158.22 585.29,-178.65"/></g><g fill="rgb(0%, 0%, 0%)" stroke="rgb(-51%, 30%, 37%)" stroke-width="1.0" fill-opacity="0.0" stroke-opacity="1.0"><path d="M 550.74,-95.775 C 567.42,-101.37 588.99,-108.6 607.09,-114.67"/></g><g fill="rgb(0%, 0%, 0%)" stroke="rgb(-51%, 30%, 37%)" stroke-width="1.0" fill-opacity="0.0" stroke-opacity="1.0"><path d="M 509.5,-104.71 C 499.74,-117.17 486.81,-133.71 477.0200,-146.21"/></g><g fill="rgb(0%, 0%, 0%)" stroke="rgb(-51%, 30%, 37%)" stroke-width="1.0" fill-opacity="0.0" stroke-opacity="1.0"><path d="M 524.3300,-104.9 C 525.25,-127.85 526.81,-167.06 527.72,-190.07"/></g><g fill="rgb(0%, 0%, 0%)" stroke="rgb(-51%, 30%, 37%)" stroke-width="1.0" fill-opacity="0.0" stroke-opacity="1.0"><path d="M 523.83,-105.0 C 523.0700,-127.11 518.3800,-163.99 496.98,-185.62 C 495.12,-187.5 493.15,-185.39 491.25,-187.22 C 471.92,-205.88 465.73,-237.68 463.77,-257.73"/></g><g fill="rgb(0%, 0%, 0%)" stroke="rgb(-51%, 30%, 37%)" stroke-width="1.0" fill-opacity="0.0" stroke-opacity="1.0"><path d="M 607.97,-100.89 C 606.56,-102.42 605.22,-103.99 603.99,-105.5800 C 582.51,-133.41 576.23,-141.66 567.31,-175.67 C 564.27,-187.27 569.3,-218.2 565.6500,-229.62 C 554.6600,-264.02 544.96,-270.58 520.5900,-297.22 C 502.1600,-317.38 477.74,-336.55 459.27,-349.87"/></g><g fill="rgb(0%, 0%, 0%)" stroke="rgb(-51%, 30%, 37%)" stroke-width="1.0" fill-opacity="0.0" stroke-opacity="1.0"><path d="M 606.76,-100.99 C 605.7,-102.45 604.77,-103.99 603.99,-105.5800 C 592.68,-128.88 593.15,-159.52 594.98,-178.71"/></g><g fill="rgb(0%, 0%, 0%)" stroke="rgb(-51%, 30%, 37%)" stroke-width="1.0" fill-opacity="0.0" stroke-opacity="1.0"><path d="M 602.05,-96.015 C 572.4,-110.5800 524.96,-133.88 493.83,-149.16"/></g><g fill="rgb(0%, 0%, 0%)" stroke="rgb(-51%, 30%, 37%)" stroke-width="1.0" fill-opacity="0.0" stroke-opacity="1.0"><path d="M 475.8,-468.77 C 466.18,-446.47 449.89,-408.7100 440.24,-386.33"/></g><g fill="rgb(0%, 0%, 0%)" stroke="rgb(-51%, 30%, 37%)" stroke-width="1.0" fill-opacity="0.0" stroke-opacity="1.0"><path d="M 335.91,-152.84 C 341.93,-160.62 349.05,-169.78 355.53,-178.02 C 376.68,-204.91 391.75,-206.08 403.5,-238.2000 C 404.63,-241.28 402.99,-294.79 405.19,-297.22 C 418.2,-311.63 435.7000,-288.31 448.51,-302.9 C 460.93,-317.07 454.21,-327.34 448.51,-345.3 C 448.0100,-346.87 447.3600,-348.43 446.6,-349.95"/></g><g fill="rgb(0%, 0%, 0%)" stroke="rgb(-51%, 30%, 37%)" stroke-width="1.0" fill-opacity="0.0" stroke-opacity="1.0"><path d="M 349.06,-130.13 C 370.79,-127.6300 401.68,-126.61 426.93,-135.62 C 433.4,-137.93 439.57,-141.94 444.9000,-146.24"/></g><g fill="rgb(0%, 0%, 0%)" stroke="rgb(-51%, 30%, 37%)" stroke-width="1.0" fill-opacity="0.0" stroke-opacity="1.0"><path d="M 294.65,-149.97 C 269.97,-163.84 233.58,-184.31 207.47,-198.99"/></g><g fill="rgb(0%, 0%, 0%)" stroke="rgb(-51%, 30%, 37%)" stroke-width="1.0" fill-opacity="0.0" stroke-opacity="1.0"><path d="M 349.07,-120.49 C 387.18,-100.62 456.51,-64.489 498.35,-42.684"/></g><g fill="rgb(0%, 0%, 0%)" stroke="rgb(-51%, 30%, 37%)" stroke-width="1.0" fill-opacity="0.0" stroke-opacity="1.0"><path d="M 187.44,-585.5 C 204.37,-574.04 225.96,-558.01 242.5,-540.91 C 273.92,-508.4300 268.65,-489.36 300.82,-457.63 C 332.77,-426.1 377.18,-398.54 405.35,-382.6100"/></g><g fill="rgb(0%, 0%, 0%)" stroke="rgb(-51%, 30%, 37%)" stroke-width="1.0" fill-opacity="0.0" stroke-opacity="1.0"><path d="M 719.33,-457.52 C 705.95,-449.84 689.81,-441.1000 674.71,-434.32 C 623.48,-411.31 603.53,-421.47 555.54,-392.3 C 539.48,-382.54 542.18,-370.28 524.7,-363.37 C 503.96,-355.17 478.5300,-357.27 459.61,-360.92"/></g><g fill="rgb(0%, 0%, 0%)" stroke="rgb(-51%, 30%, 37%)" stroke-width="1.0" fill-opacity="0.0" stroke-opacity="1.0"><path d="M 742.76,-457.39 C 727.43,-414.2 689.77,-308.6 686.88,-305.85 C 672.04,-291.7 661.17,-301.28 642.87,-292.04 C 607.29,-274.07 570.92,-245.36 549.01,-226.7"/></g><g fill="rgb(0%, 0%, 0%)" stroke="rgb(-51%, 30%, 37%)" stroke-width="1.0" fill-opacity="0.0" stroke-opacity="1.0"><path d="M 130.76,-238.43 C 153.7300,-250.92 185.42,-267.5600 214.1,-280.6 C 249.51,-296.7 259.73,-297.46 295.57,-312.57 C 328.16,-326.31 335.3,-332.1 368.11,-345.3 C 380.19,-350.17 393.76,-355.07 405.31,-359.07"/></g><g fill="rgb(0%, 0%, 0%)" stroke="rgb(-51%, 30%, 37%)" stroke-width="1.0" fill-opacity="0.0" stroke-opacity="1.0"><path d="M 115.19,-448.61 C 154.6,-449.73 207.79,-448.73 253.66,-439.23 C 309.74,-427.61 370.89,-399.65 405.16,-382.46"/></g><g fill="rgb(0%, 0%, 0%)" stroke="rgb(-51%, 30%, 37%)" stroke-width="1.0" fill-opacity="0.0" stroke-opacity="1.0"><path d="M 157.95,-289.87 C 193.46,-292.73 249.1300,-299.06 295.57,-312.57 C 329.53,-322.46 335.3,-332.1 368.11,-345.3 C 380.19,-350.17 393.76,-355.07 405.31,-359.07"/></g><g fill="rgb(0%, 0%, 0%)" stroke="rgb(-51%, 30%, 37%)" stroke-width="1.0" fill-opacity="0.0" stroke-opacity="1.0"><path d="M 157.78,-292.22 C 212.32,-299.16 315.94,-312.3500 371.28,-319.39"/></g><g fill="rgb(0%, 0%, 0%)" stroke="rgb(-51%, 30%, 37%)" stroke-width="1.0" fill-opacity="0.0" stroke-opacity="1.0"><path d="M 154.63,-269.54 C 172.12,-259.9600 194.13,-248.1400 214.1,-238.2000 C 263.93,-213.38 322.86,-186.86 358.62,-171.07"/></g><g fill="rgb(0%, 0%, 0%)" stroke="rgb(-51%, 30%, 37%)" stroke-width="1.0" fill-opacity="0.0" stroke-opacity="1.0"><path d="M 157.7700,-303.67 C 166.4600,-307.57 175.82,-311.77 184.7100,-315.76"/></g><g fill="rgb(0%, 0%, 0%)" stroke="rgb(-51%, 30%, 37%)" stroke-width="1.0" fill-opacity="0.0" stroke-opacity="1.0"><path d="M 224.95,-141.59 C 259.75,-152.47 310.49,-167.57 355.53,-178.02 C 403.34,-189.12 459.41,-198.2800 494.44,-203.5500"/></g><g fill="rgb(0%, 0%, 0%)" stroke="rgb(-51%, 30%, 37%)" stroke-width="1.0" fill-opacity="0.0" stroke-opacity="1.0"><path d="M 436.14,-36.239 C 434.23,-60.6090 430.8500,-105.14 428.58,-143.22 C 427.66,-158.68 429.43,-162.74 426.93,-178.02 C 421.23,-213.0400 410.07,-219.68 405.19,-254.82 C 404.54,-259.4900 402.08,-293.68 405.19,-297.22 C 418.0,-311.82 435.7000,-288.31 448.51,-302.9 C 460.93,-317.07 454.21,-327.34 448.51,-345.3 C 448.0100,-346.87 447.3600,-348.43 446.6,-349.95"/></g><g fill="rgb(0%, 0%, 0%)" stroke="rgb(-51%, 30%, 37%)" stroke-width="1.0" fill-opacity="0.0" stroke-opacity="1.0"><path d="M 240.18,-399.9800 C 261.45,-392.77 285.03,-384.7800 302.67,-378.79"/></g><g fill="rgb(0%, 0%, 0%)" stroke="rgb(-51%, 30%, 37%)" stroke-width="1.0" fill-opacity="0.0" stroke-opacity="1.0"><path d="M 250.7,-410.28 C 283.59,-405.7000 324.23,-399.15 360.08,-390.77 C 375.19,-387.23 391.74,-382.15 405.18,-377.69"/></g><g fill="rgb(0%, 0%, 0%)" stroke="rgb(-51%, 30%, 37%)" stroke-width="1.0" fill-opacity="0.0" stroke-opacity="1.0"><path d="M 228.6,-399.9100 C 250.3,-389.0700 276.25,-373.73 295.57,-354.9700 C 298.0600,-352.57 296.86,-350.37 299.68,-348.37 C 320.48,-333.6 348.71,-327.61 371.18,-325.27"/></g><g fill="rgb(0%, 0%, 0%)" stroke="rgb(-51%, 30%, 37%)" stroke-width="1.0" fill-opacity="0.0" stroke-opacity="1.0"><path d="M 250.72,-432.35 C 283.72,-439.8 324.65,-449.12 361.22,-457.63 C 387.38,-463.72 416.65,-470.6900 440.0,-476.2800"/></g><g fill="rgb(0%, 0%, 0%)" stroke="rgb(-51%, 30%, 37%)" stroke-width="1.0" fill-opacity="0.0" stroke-opacity="1.0"><path d="M 304.99,-241.17 C 300.88,-220.57 294.52,-185.97 291.6800,-155.86 C 290.97,-148.31 292.7,-94.734 290.0,-87.652 C 288.55,-83.834 286.35,-80.17 283.87,-76.808"/></g><g fill="rgb(0%, 0%, 0%)" stroke="rgb(-51%, 30%, 37%)" stroke-width="1.0" fill-opacity="0.0" stroke-opacity="1.0"><path d="M 317.13,-277.7 C 326.81,-297.05 344.52,-327.22 368.11,-345.3 C 378.92,-353.59 392.99,-359.04 405.21,-362.53"/></g><g fill="rgb(0%, 0%, 0%)" stroke="rgb(-51%, 30%, 37%)" stroke-width="1.0" fill-opacity="0.0" stroke-opacity="1.0"><path d="M 317.75,-277.84 C 332.05,-305.54 362.51,-358.0 402.19,-389.34 C 478.7700,-449.8200 590.65,-487.17 641.8,-502.06"/></g><g fill="rgb(0%, 0%, 0%)" stroke="rgb(-51%, 30%, 37%)" stroke-width="1.0" fill-opacity="0.0" stroke-opacity="1.0"><path d="M 310.7000,-241.26 C 313.18,-217.61 317.49,-176.48 319.97,-152.82"/></g><g fill="rgb(0%, 0%, 0%)" stroke="rgb(-51%, 30%, 37%)" stroke-width="1.0" fill-opacity="0.0" stroke-opacity="1.0"><path d="M 310.77,-277.6 C 312.0400,-298.15 311.1700,-331.75 295.57,-354.9700 C 281.9,-375.34 259.27,-389.99 238.2,-400.0"/></g><g fill="rgb(0%, 0%, 0%)" stroke="rgb(-51%, 30%, 37%)" stroke-width="1.0" fill-opacity="0.0" stroke-opacity="1.0"><path d="M 288.48,-277.4 C 275.39,-289.01 258.41,-304.05 245.29,-315.68"/></g><g fill="rgb(0%, 0%, 0%)" stroke="rgb(-51%, 30%, 37%)" stroke-width="1.0" fill-opacity="0.0" stroke-opacity="1.0"><path d="M 494.91,-601.26 C 492.34,-602.07 489.7800,-602.88 487.24,-603.68"/></g><g fill="rgb(0%, 0%, 0%)" stroke="rgb(-51%, 30%, 37%)" stroke-width="1.0" fill-opacity="0.0" stroke-opacity="1.0"><path d="M 504.7300,-567.42 C 480.7900,-554.48 452.1900,-534.62 436.88,-507.9900 C 433.0600,-501.34 438.2700,-497.8600 435.2500,-490.8200 C 416.91,-448.01 377.66,-409.45 352.58,-387.82"/></g><g fill="rgb(0%, 0%, 0%)" stroke="rgb(-51%, 30%, 37%)" stroke-width="1.0" fill-opacity="0.0" stroke-opacity="1.0"><path d="M 536.74,-567.15 C 534.78,-562.0 532.95,-556.33 531.9,-550.92 C 530.0900,-541.61 534.2,-474.22 530.28,-465.5900 C 513.9,-429.5600 491.82,-434.2200 464.3000,-405.77 C 458.3500,-399.6100 452.1700,-392.52 446.86,-386.1700"/></g><g fill="rgb(0%, 0%, 0%)" stroke="rgb(-51%, 30%, 37%)" stroke-width="1.0" fill-opacity="0.0" stroke-opacity="1.0"><path d="M 549.48,-603.59 C 551.94,-613.66 554.99,-626.16 557.45,-636.25"/></g><g fill="rgb(0%, 0%, 0%)" stroke="rgb(-51%, 30%, 37%)" stroke-width="1.0" fill-opacity="0.0" stroke-opacity="1.0"><path d="M 504.7300,-567.42 C 480.7900,-554.48 452.1900,-534.62 436.88,-507.9900 C 434.97,-504.6700 436.03,-494.57 435.2500,-490.8200 C 425.62,-444.37 409.63,-436.1900 402.19,-389.34 C 399.24,-370.72 399.73,-365.62 402.19,-346.94 C 402.39,-345.39 402.67,-343.8 403.0,-342.21"/></g><g fill="rgb(0%, 0%, 0%)" stroke="rgb(-51%, 30%, 37%)" stroke-width="1.0" fill-opacity="0.0" stroke-opacity="1.0"><path d="M 531.22,-603.43 C 521.1700,-615.17 506.5100,-629.75 490.2000,-637.74 C 488.59,-638.53 402.31,-651.36 347.21,-659.49"/></g><g fill="rgb(0%, 0%, 0%)" stroke="rgb(-51%, 30%, 37%)" stroke-width="1.0" fill-opacity="0.0" stroke-opacity="1.0"><path d="M 595.26,-598.26 C 597.9,-598.94 600.54,-599.61 603.14,-600.27"/></g><g fill="rgb(0%, 0%, 0%)" stroke="rgb(-51%, 30%, 37%)" stroke-width="1.0" fill-opacity="0.0" stroke-opacity="1.0"><path d="M 494.8600,-575.34 C 452.1,-566.74 392.3,-554.72 358.02,-547.82"/></g><g fill="rgb(0%, 0%, 0%)" stroke="rgb(-51%, 30%, 37%)" stroke-width="1.0" fill-opacity="0.0" stroke-opacity="1.0"><path d="M 508.96,-567.28 C 485.48,-555.48 455.1,-540.2 432.23,-528.7"/></g><g fill="rgb(0%, 0%, 0%)" stroke="rgb(-51%, 30%, 37%)" stroke-width="1.0" fill-opacity="0.0" stroke-opacity="1.0"><path d="M 595.37,-578.32 C 614.55,-575.61 635.68,-572.62 651.93,-570.32"/></g><g fill="rgb(0%, 0%, 0%)" stroke="rgb(-51%, 30%, 37%)" stroke-width="1.0" fill-opacity="0.0" stroke-opacity="1.0"><path d="M 536.84,-603.44 C 532.93,-612.34 528.3300,-623.3 524.71,-633.33 C 519.06,-649.0 513.71,-667.2 510.0500,-680.38"/></g><g fill="rgb(0%, 0%, 0%)" stroke="rgb(-51%, 30%, 37%)" stroke-width="1.0" fill-opacity="0.0" stroke-opacity="1.0"><path d="M 558.0,-567.19 C 562.41,-560.97 567.35,-554.02 571.75,-547.81"/></g><g fill="rgb(0%, 0%, 0%)" stroke="rgb(-51%, 30%, 37%)" stroke-width="1.0" fill-opacity="0.0" stroke-opacity="1.0"><path d="M 595.5,-572.26 C 609.85,-567.05 624.92,-560.07 637.3,-550.92 C 645.76,-544.66 653.09,-535.57 658.58,-527.5"/></g><g fill="rgb(0%, 0%, 0%)" stroke="rgb(-51%, 30%, 37%)" stroke-width="1.0" fill-opacity="0.0" stroke-opacity="1.0"><path d="M 533.77,-567.34 C 522.75,-549.65 506.0600,-522.86 494.99,-505.1000"/></g><g fill="rgb(0%, 0%, 0%)" stroke="rgb(-51%, 30%, 37%)" stroke-width="1.0" fill-opacity="0.0" stroke-opacity="1.0"><path d="M 494.8500,-585.41 C 467.39,-586.28 432.92,-588.8 402.8,-595.34 C 393.1,-597.45 382.96,-600.62 373.47,-604.04"/></g><g fill="rgb(0%, 0%, 0%)" stroke="rgb(-51%, 30%, 37%)" stroke-width="1.0" fill-opacity="0.0" stroke-opacity="1.0"><path d="M 654.89,-235.9 C 606.86,-264.45 507.56,-323.46 459.55,-351.99"/></g><g fill="rgb(0%, 0%, 0%)" stroke="rgb(-51%, 30%, 37%)" stroke-width="1.0" fill-opacity="0.0" stroke-opacity="1.0"><path d="M 654.86,-212.38 C 645.2,-209.77 634.34,-206.8300 624.69,-204.22"/></g><g fill="rgb(0%, 0%, 0%)" stroke="rgb(-51%, 30%, 37%)" stroke-width="1.0" fill-opacity="0.0" stroke-opacity="1.0"><path d="M 674.4,-201.3700 C 667.54,-184.97 657.55,-161.09 650.73,-144.79"/></g><g fill="rgb(0%, 0%, 0%)" stroke="rgb(-51%, 30%, 37%)" stroke-width="1.0" fill-opacity="0.0" stroke-opacity="1.0"><path d="M 665.28,-201.52 C 655.35,-192.04 641.96,-181.27 627.71,-175.67 C 583.77,-158.4 528.2,-158.67 494.09,-161.08"/></g><g fill="rgb(0%, 0%, 0%)" stroke="rgb(-51%, 30%, 37%)" stroke-width="1.0" fill-opacity="0.0" stroke-opacity="1.0"><path d="M 663.89,-201.5900 C 653.95,-192.6000 640.98,-182.28 627.71,-175.67 C 574.13,-148.98 556.4000,-150.48 496.98,-143.22 C 466.81,-139.53 458.5200,-137.93 428.58,-143.22 C 427.0900,-143.48 425.5700,-143.8 424.0500,-144.16"/></g><g fill="rgb(0%, 0%, 0%)" stroke="rgb(-51%, 30%, 37%)" stroke-width="1.0" fill-opacity="0.0" stroke-opacity="1.0"><path d="M 660.38,-201.52 C 630.03,-176.04 575.26,-130.04 545.05,-104.68"/></g><g fill="rgb(0%, 0%, 0%)" stroke="rgb(-51%, 30%, 37%)" stroke-width="1.0" fill-opacity="0.0" stroke-opacity="1.0"><path d="M 687.89,-201.39 C 694.32,-177.26 701.47,-134.54 682.39,-105.5800 C 676.47,-96.589 666.2,-91.118 656.24,-87.795"/></g><g fill="rgb(0%, 0%, 0%)" stroke="rgb(-51%, 30%, 37%)" stroke-width="1.0" fill-opacity="0.0" stroke-opacity="1.0"><path d="M 657.18,-237.88 C 652.33,-241.65 647.36,-245.6800 642.87,-249.64 C 616.55,-272.82 610.15,-279.08 587.48,-305.85 C 571.85,-324.3 568.3,-329.35 555.54,-349.9 C 542.05,-371.6300 508.79,-436.82 492.6500,-468.76"/></g><g fill="rgb(0%, 0%, 0%)" stroke="rgb(-51%, 30%, 37%)" stroke-width="1.0" fill-opacity="0.0" stroke-opacity="1.0"><path d="M 655.06,-221.08 C 631.72,-221.83 597.15,-221.94 567.31,-218.0700 C 565.79,-217.87 564.25,-217.6400 562.7,-217.38"/></g><g fill="rgb(0%, 0%, 0%)" stroke="rgb(-51%, 30%, 37%)" stroke-width="1.0" fill-opacity="0.0" stroke-opacity="1.0"><path d="M 461.16,-294.29 C 459.32,-308.63 455.6500,-328.85 448.51,-345.3 C 447.8100,-346.9 446.99,-348.51 446.1,-350.08"/></g><g fill="rgb(0%, 0%, 0%)" stroke="rgb(-51%, 30%, 37%)" stroke-width="1.0" fill-opacity="0.0" stroke-opacity="1.0"><path d="M 434.4,-257.83 C 392.04,-230.4900 314.92,-179.47 291.6800,-155.86 C 283.24,-147.28 275.61,-136.2 269.9200,-126.96"/></g><g fill="rgb(0%, 0%, 0%)" stroke="rgb(-51%, 30%, 37%)" stroke-width="1.0" fill-opacity="0.0" stroke-opacity="1.0"><path d="M 453.76,-257.89 C 445.31,-240.03 433.36,-211.7 428.58,-185.62 C 426.8800,-176.35 428.2400,-152.63 428.58,-143.22 C 429.9500,-105.1 433.66,-60.581 435.86,-36.226"/></g><g fill="rgb(0%, 0%, 0%)" stroke="rgb(-51%, 30%, 37%)" stroke-width="1.0" fill-opacity="0.0" stroke-opacity="1.0"><path d="M 480.46,-257.91 C 489.87,-248.21 501.42,-236.29 510.83,-226.59"/></g><g fill="rgb(0%, 0%, 0%)" stroke="rgb(-51%, 30%, 37%)" stroke-width="1.0" fill-opacity="0.0" stroke-opacity="1.0"><path d="M 590.45,-336.42 C 549.96,-344.55 492.79,-356.02 459.4500,-362.71"/></g><g fill="rgb(0%, 0%, 0%)" stroke="rgb(-51%, 30%, 37%)" stroke-width="1.0" fill-opacity="0.0" stroke-opacity="1.0"><path d="M 590.59,-326.45 C 547.72,-325.9 484.9700,-325.09 445.4,-324.58"/></g><g fill="rgb(0%, 0%, 0%)" stroke="rgb(-51%, 30%, 37%)" stroke-width="1.0" fill-opacity="0.0" stroke-opacity="1.0"><path d="M 620.67,-309.03 C 600.23,-286.74 565.6300,-248.98 545.12,-226.61"/></g><g fill="rgb(0%, 0%, 0%)" stroke="rgb(-51%, 30%, 37%)" stroke-width="1.0" fill-opacity="0.0" stroke-opacity="1.0"><path d="M 590.47,-313.37 C 567.99,-306.79 540.89,-298.86 517.45,-292.0"/></g><g fill="rgb(0%, 0%, 0%)" stroke="rgb(-51%, 30%, 37%)" stroke-width="1.0" fill-opacity="0.0" stroke-opacity="1.0"><path d="M 145.68,-491.44 C 214.04,-462.04 347.57,-404.61 405.03,-379.9"/></g><g fill="rgb(0%, 0%, 0%)" stroke="rgb(-51%, 30%, 37%)" stroke-width="1.0" fill-opacity="0.0" stroke-opacity="1.0"><path d="M 128.54,-527.68 C 146.6,-541.49 171.15,-561.47 190.32,-581.58 C 197.28,-588.89 204.13,-597.7 209.68,-605.38"/></g><g fill="rgb(0%, 0%, 0%)" stroke="rgb(-51%, 30%, 37%)" stroke-width="1.0" fill-opacity="0.0" stroke-opacity="1.0"><path d="M 162.38,-498.96 C 163.9700,-498.7900 165.54,-498.64 167.1000,-498.51 C 200.49,-495.64 208.99,-498.07 242.5,-498.51 C 295.26,-499.19 320.77,-533.91 361.22,-500.0300 C 364.4,-497.36 359.71,-493.54 362.85,-490.8200 C 383.54,-472.9000 414.5,-472.2 439.9,-475.82"/></g><g fill="rgb(0%, 0%, 0%)" stroke="rgb(-51%, 30%, 37%)" stroke-width="1.0" fill-opacity="0.0" stroke-opacity="1.0"><path d="M 140.25,-527.61 C 149.04,-531.96 158.41,-536.6 167.1000,-540.91 C 211.02,-562.64 261.5600,-587.6 294.86,-604.04"/></g><g fill="rgb(0%, 0%, 0%)" stroke="rgb(-51%, 30%, 37%)" stroke-width="1.0" fill-opacity="0.0" stroke-opacity="1.0"><path d="M 343.33,-603.95 C 349.95,-592.81 357.57,-577.95 361.19,-563.59 C 365.15,-547.9 358.55,-506.41 362.85,-490.8200 C 373.99,-450.46 401.28,-409.28 418.17,-386.38"/></g><g fill="rgb(0%, 0%, 0%)" stroke="rgb(-51%, 30%, 37%)" stroke-width="1.0" fill-opacity="0.0" stroke-opacity="1.0"><path d="M 353.21,-604.05 C 374.44,-586.35 407.49,-558.4 435.2500,-533.22 C 445.25,-524.1500 456.11,-513.7700 465.0,-505.12"/></g><g fill="rgb(0%, 0%, 0%)" stroke="rgb(-51%, 30%, 37%)" stroke-width="1.0" fill-opacity="0.0" stroke-opacity="1.0"><path d="M 752.86,-263.78 C 740.6,-273.85 724.08,-285.6 707.27,-292.04 C 657.22,-311.2 639.43,-292.68 587.48,-305.85 C 541.0700,-317.62 490.06,-340.09 459.6600,-354.58"/></g><g fill="rgb(0%, 0%, 0%)" stroke="rgb(-51%, 30%, 37%)" stroke-width="1.0" fill-opacity="0.0" stroke-opacity="1.0"><path d="M 292.58,-338.95 C 314.25,-341.17 338.27,-344.24 360.08,-348.37 C 375.17,-351.23 391.71,-355.65 405.16,-359.59"/></g><g fill="rgb(0%, 0%, 0%)" stroke="rgb(-51%, 30%, 37%)" stroke-width="1.0" fill-opacity="0.0" stroke-opacity="1.0"><path d="M 292.49,-321.92 C 336.9,-312.65 389.32,-298.37 403.5,-280.6 C 407.08,-276.11 403.4,-260.28 405.19,-254.82 C 414.16,-227.41 433.38,-200.0500 447.15,-182.73"/></g><g fill="rgb(0%, 0%, 0%)" stroke="rgb(-51%, 30%, 37%)" stroke-width="1.0" fill-opacity="0.0" stroke-opacity="1.0"><path d="M 216.42,-315.66 C 208.22,-295.2 199.05,-261.68 214.1,-238.2000 C 245.97,-188.48 316.7,-168.73 358.5,-161.2"/></g><g fill="rgb(0%, 0%, 0%)" stroke="rgb(-51%, 30%, 37%)" stroke-width="1.0" fill-opacity="0.0" stroke-opacity="1.0"><path d="M 292.4400,-317.38 C 329.14,-308.48 373.91,-297.61 408.36,-289.25"/></g><g fill="rgb(0%, 0%, 0%)" stroke="rgb(-51%, 30%, 37%)" stroke-width="1.0" fill-opacity="0.0" stroke-opacity="1.0"><path d="M 544.1300,-42.695 C 547.81,-49.5960 551.55,-57.6770 553.81,-65.475 C 558.9,-83.037 570.95,-212.12 565.6500,-229.62 C 548.83,-285.19 493.3100,-329.21 459.4700,-351.71"/></g><g fill="rgb(0%, 0%, 0%)" stroke="rgb(-51%, 30%, 37%)" stroke-width="1.0" fill-opacity="0.0" stroke-opacity="1.0"><path d="M 544.54,-42.586 C 548.27,-49.4750 551.93,-57.577 553.81,-65.475 C 564.3700,-109.85 547.32,-162.94 536.43,-190.23"/></g></g><g class="shapes"><g fill="rgb(2%, 73%, 80%)" stroke="rgb(-51%, 30%, 37%)" stroke-width="1.0" fill-opacity="0.2" stroke-opacity="1.0"><rect x="247.42000000000007" width="36.0" y="-76.729" height="36.0"/></g><g fill="rgb(2%, 73%, 80%)" stroke="rgb(-51%, 30%, 37%)" stroke-width="1.0" fill-opacity="0.2" stroke-opacity="1.0"><rect x="306.08995999999996" width="64.00008000000003" y="-740.5" height="36.0"/></g><g fill="rgb(2%, 73%, 80%)" stroke="rgb(-51%, 30%, 37%)" stroke-width="1.0" fill-opacity="0.2" stroke-opacity="1.0"><rect x="406.0" width="81.0" y="-634.54" height="36.0"/></g><g fill="rgb(2%, 73%, 80%)" stroke="rgb(-51%, 30%, 37%)" stroke-width="1.0" fill-opacity="0.2" stroke-opacity="1.0"><rect x="302.88" width="54.0" y="-387.57" height="36.0"/></g><g fill="rgb(2%, 73%, 80%)" stroke="rgb(-51%, 30%, 37%)" stroke-width="1.0" fill-opacity="0.2" stroke-opacity="1.0"><rect x="760.72" width="54.0" y="-435.26" height="36.0"/></g><g fill="rgb(2%, 73%, 80%)" stroke="rgb(-51%, 30%, 37%)" stroke-width="1.0" fill-opacity="0.2" stroke-opacity="1.0"><rect x="405.39000000000004" width="54.0" y="-386.14" height="36.0"/></g><g fill="rgb(2%, 73%, 80%)" stroke="rgb(-51%, 30%, 37%)" stroke-width="1.0" fill-opacity="0.2" stroke-opacity="1.0"><rect x="598.5096" width="73.00080000000003" y="-473.5199999999999" height="36.0"/></g><g fill="rgb(2%, 73%, 80%)" stroke="rgb(-51%, 30%, 37%)" stroke-width="1.0" fill-opacity="0.2" stroke-opacity="1.0"><rect x="570.51" width="54.0" y="-214.87" height="36.0"/></g><g fill="rgb(2%, 73%, 80%)" stroke="rgb(-51%, 30%, 37%)" stroke-width="1.0" fill-opacity="0.2" stroke-opacity="1.0"><rect x="625.19" width="36.0" y="-144.78" height="36.0"/></g><g fill="rgb(2%, 73%, 80%)" stroke="rgb(-51%, 30%, 37%)" stroke-width="1.0" fill-opacity="0.2" stroke-opacity="1.0"><rect x="527.9101600000001" width="67.9996799999999" y="-672.53" height="36.0"/></g><g fill="rgb(2%, 73%, 80%)" stroke="rgb(-51%, 30%, 37%)" stroke-width="1.0" fill-opacity="0.2" stroke-opacity="1.0"><rect x="558.7416000000001" width="76.9967999999999" y="-389.1" height="36.0"/></g><g fill="rgb(2%, 73%, 80%)" stroke="rgb(-51%, 30%, 37%)" stroke-width="1.0" fill-opacity="0.2" stroke-opacity="1.0"><rect x="371.30920000000003" width="74.00159999999994" y="-342.1" height="36.0"/></g><g fill="rgb(2%, 73%, 80%)" stroke="rgb(-51%, 30%, 37%)" stroke-width="1.0" fill-opacity="0.2" stroke-opacity="1.0"><rect x="257.19" width="90.0" y="-684.11" height="36.0"/></g><g fill="rgb(2%, 73%, 80%)" stroke="rgb(-51%, 30%, 37%)" stroke-width="1.0" fill-opacity="0.2" stroke-opacity="1.0"><rect x="431.78004" width="61.999919999999975" y="-182.42" height="36.0"/></g><g fill="rgb(2%, 73%, 80%)" stroke="rgb(-51%, 30%, 37%)" stroke-width="1.0" fill-opacity="0.2" stroke-opacity="1.0"><rect x="603.1804" width="79.99919999999997" y="-628.5" height="36.0"/></g><g fill="rgb(2%, 73%, 80%)" stroke="rgb(-51%, 30%, 37%)" stroke-width="1.0" fill-opacity="0.2" stroke-opacity="1.0"><rect x="379.7884" width="76.00319999999999" y="-694.5" height="36.0"/></g><g fill="rgb(2%, 73%, 80%)" stroke="rgb(-51%, 30%, 37%)" stroke-width="1.0" fill-opacity="0.2" stroke-opacity="1.0"><rect x="330.51984" width="58.00031999999999" y="-71.045" height="36.0"/></g><g fill="rgb(2%, 73%, 80%)" stroke="rgb(-51%, 30%, 37%)" stroke-width="1.0" fill-opacity="0.2" stroke-opacity="1.0"><rect x="304.02" width="54.0" y="-496.83" height="36.0"/></g><g fill="rgb(2%, 73%, 80%)" stroke="rgb(-51%, 30%, 37%)" stroke-width="1.0" fill-opacity="0.2" stroke-opacity="1.0"><rect x="303.99" width="54.0" y="-560.39" height="36.0"/></g><g fill="rgb(2%, 73%, 80%)" stroke="rgb(-51%, 30%, 37%)" stroke-width="1.0" fill-opacity="0.2" stroke-opacity="1.0"><rect x="358.72992" width="65.00016000000005" y="-174.82" height="36.0"/></g><g fill="rgb(2%, 73%, 80%)" stroke="rgb(-51%, 30%, 37%)" stroke-width="1.0" fill-opacity="0.2" stroke-opacity="1.0"><rect x="366.04988000000003" width="66.00023999999996" y="-530.02" height="36.0"/></g><g fill="rgb(2%, 73%, 80%)" stroke="rgb(-51%, 30%, 37%)" stroke-width="1.0" fill-opacity="0.2" stroke-opacity="1.0"><rect x="467.5" width="54.0" y="-402.57" height="36.0"/></g><g fill="rgb(2%, 73%, 80%)" stroke="rgb(-51%, 30%, 37%)" stroke-width="1.0" fill-opacity="0.2" stroke-opacity="1.0"><rect x="652.18" width="54.0" y="-584.47" height="36.0"/></g><g fill="rgb(2%, 73%, 80%)" stroke="rgb(-51%, 30%, 37%)" stroke-width="1.0" fill-opacity="0.2" stroke-opacity="1.0"><rect x="646.06984" width="58.0003200000001" y="-288.84" height="36.0"/></g><g fill="rgb(2%, 73%, 80%)" stroke="rgb(-51%, 30%, 37%)" stroke-width="1.0" fill-opacity="0.2" stroke-opacity="1.0"><rect x="46.06484" width="58.000319999999995" y="-365.75" height="36.0"/></g><g fill="rgb(2%, 73%, 80%)" stroke="rgb(-51%, 30%, 37%)" stroke-width="1.0" fill-opacity="0.2" stroke-opacity="1.0"><rect x="232.80000000000007" width="54.0" y="-126.84999999999998" height="36.0"/></g><g fill="rgb(2%, 73%, 80%)" stroke="rgb(-51%, 30%, 37%)" stroke-width="1.0" fill-opacity="0.2" stroke-opacity="1.0"><rect x="141.27016" width="67.99968000000001" y="-235.09" height="36.0"/></g><g fill="rgb(2%, 73%, 80%)" stroke="rgb(-51%, 30%, 37%)" stroke-width="1.0" fill-opacity="0.2" stroke-opacity="1.0"><rect x="464.69000000000005" width="81.0" y="-716.55" height="36.0"/></g><g fill="rgb(2%, 73%, 80%)" stroke="rgb(-51%, 30%, 37%)" stroke-width="1.0" fill-opacity="0.2" stroke-opacity="1.0"><rect x="170.30012000000002" width="68.99975999999998" y="-537.7099999999999" height="36.0"/></g><g fill="rgb(2%, 73%, 80%)" stroke="rgb(-51%, 30%, 37%)" stroke-width="1.0" fill-opacity="0.2" stroke-opacity="1.0"><rect x="535.1" width="99.0" y="-547.72" height="36.0"/></g><g fill="rgb(2%, 73%, 80%)" stroke="rgb(-51%, 30%, 37%)" stroke-width="1.0" fill-opacity="0.2" stroke-opacity="1.0"><rect x="724.13" width="81.0" y="-391.22999999999996" height="36.0"/></g><g fill="rgb(2%, 73%, 80%)" stroke="rgb(-51%, 30%, 37%)" stroke-width="1.0" fill-opacity="0.2" stroke-opacity="1.0"><rect x="195.13" width="54.0" y="-641.77" height="36.0"/></g><g fill="rgb(2%, 73%, 80%)" stroke="rgb(-51%, 30%, 37%)" stroke-width="1.0" fill-opacity="0.2" stroke-opacity="1.0"><rect x="642.15" width="54.0" y="-527.5" height="36.0"/></g><g fill="rgb(2%, 73%, 80%)" stroke="rgb(-51%, 30%, 37%)" stroke-width="1.0" fill-opacity="0.2" stroke-opacity="1.0"><rect x="496.61" width="54.0" y="-104.675" height="36.0"/></g><g fill="rgb(2%, 73%, 80%)" stroke="rgb(-51%, 30%, 37%)" stroke-width="1.0" fill-opacity="0.2" stroke-opacity="1.0"><rect x="602.15" width="54.0" y="-100.705" height="36.0"/></g><g fill="rgb(2%, 73%, 80%)" stroke="rgb(-51%, 30%, 37%)" stroke-width="1.0" fill-opacity="0.2" stroke-opacity="1.0"><rect x="440.0811999999999" width="86.99759999999998" y="-504.79" height="36.0"/></g><g fill="rgb(2%, 73%, 80%)" stroke="rgb(-51%, 30%, 37%)" stroke-width="1.0" fill-opacity="0.2" stroke-opacity="1.0"><rect x="294.88" width="54.0" y="-152.66" height="36.0"/></g><g fill="rgb(2%, 73%, 80%)" stroke="rgb(-51%, 30%, 37%)" stroke-width="1.0" fill-opacity="0.2" stroke-opacity="1.0"><rect x="133.12" width="54.0" y="-620.78" height="36.0"/></g><g fill="rgb(2%, 73%, 80%)" stroke="rgb(-51%, 30%, 37%)" stroke-width="1.0" fill-opacity="0.2" stroke-opacity="1.0"><rect x="704.18" width="90.0" y="-493.52" height="36.0"/></g><g fill="rgb(2%, 73%, 80%)" stroke="rgb(-51%, 30%, 37%)" stroke-width="1.0" fill-opacity="0.2" stroke-opacity="1.0"><rect x="63.259080000000004" width="69.99983999999998" y="-238.36" height="36.0"/></g><g fill="rgb(2%, 73%, 80%)" stroke="rgb(-51%, 30%, 37%)" stroke-width="1.0" fill-opacity="0.2" stroke-opacity="1.0"><rect x="7.999999999981355e-4" width="114.9984" y="-463.11" height="36.0"/></g><g fill="rgb(2%, 73%, 80%)" stroke="rgb(-51%, 30%, 37%)" stroke-width="1.0" fill-opacity="0.2" stroke-opacity="1.0"><rect x="86.62004" width="70.99991999999999" y="-305.68" height="36.0"/></g><g fill="rgb(2%, 73%, 80%)" stroke="rgb(-51%, 30%, 37%)" stroke-width="1.0" fill-opacity="0.2" stroke-opacity="1.0"><rect x="140.65879999999996" width="84.00240000000002" y="-145.95" height="36.0"/></g><g fill="rgb(2%, 73%, 80%)" stroke="rgb(-51%, 30%, 37%)" stroke-width="1.0" fill-opacity="0.2" stroke-opacity="1.0"><rect x="396.58959999999996" width="82.00080000000003" y="-36.0" height="36.0"/></g><g fill="rgb(2%, 73%, 80%)" stroke="rgb(-51%, 30%, 37%)" stroke-width="1.0" fill-opacity="0.2" stroke-opacity="1.0"><rect x="494.45016000000004" width="67.99967999999996" y="-226.42" height="36.0"/></g><g fill="rgb(2%, 73%, 80%)" stroke="rgb(-51%, 30%, 37%)" stroke-width="1.0" fill-opacity="0.2" stroke-opacity="1.0"><rect x="123.45960000000001" width="127.00079999999998" y="-436.0299999999999" height="36.0"/></g><g fill="rgb(2%, 73%, 80%)" stroke="rgb(-51%, 30%, 37%)" stroke-width="1.0" fill-opacity="0.2" stroke-opacity="1.0"><rect x="217.29880000000003" width="183.00239999999997" y="-277.4" height="36.0"/></g><g fill="rgb(2%, 73%, 80%)" stroke="rgb(-51%, 30%, 37%)" stroke-width="1.0" fill-opacity="0.2" stroke-opacity="1.0"><rect x="495.04959999999994" width="100.00080000000003" y="-603.43" height="36.0"/></g><g fill="rgb(2%, 73%, 80%)" stroke="rgb(-51%, 30%, 37%)" stroke-width="1.0" fill-opacity="0.2" stroke-opacity="1.0"><rect x="655.09" width="54.0" y="-237.74" height="36.0"/></g><g fill="rgb(2%, 73%, 80%)" stroke="rgb(-51%, 30%, 37%)" stroke-width="1.0" fill-opacity="0.2" stroke-opacity="1.0"><rect x="408.3896" width="109.00080000000003" y="-294.02" height="36.0"/></g><g fill="rgb(2%, 73%, 80%)" stroke="rgb(-51%, 30%, 37%)" stroke-width="1.0" fill-opacity="0.2" stroke-opacity="1.0"><rect x="590.6787999999999" width="93.00240000000008" y="-345.05" height="36.0"/></g><g fill="rgb(2%, 73%, 80%)" stroke="rgb(-51%, 30%, 37%)" stroke-width="1.0" fill-opacity="0.2" stroke-opacity="1.0"><rect x="45.22" width="117.0" y="-527.48" height="36.0"/></g><g fill="rgb(2%, 73%, 80%)" stroke="rgb(-51%, 30%, 37%)" stroke-width="1.0" fill-opacity="0.2" stroke-opacity="1.0"><rect x="264.9208" width="132.99840000000006" y="-640.07" height="36.0"/></g><g fill="rgb(2%, 73%, 80%)" stroke="rgb(-51%, 30%, 37%)" stroke-width="1.0" fill-opacity="0.2" stroke-opacity="1.0"><rect x="727.85" width="90.0" y="-263.55999999999995" height="35.99999999999997"/></g><g fill="rgb(2%, 73%, 80%)" stroke="rgb(-51%, 30%, 37%)" stroke-width="1.0" fill-opacity="0.2" stroke-opacity="1.0"><rect x="157.37" width="135.0" y="-351.77" height="36.0"/></g><g fill="rgb(2%, 73%, 80%)" stroke="rgb(-51%, 30%, 37%)" stroke-width="1.0" fill-opacity="0.2" stroke-opacity="1.0"><rect x="486.6488" width="93.00240000000002" y="-42.547" height="36.0"/></g></g><g class="labels"><g fill="rgb(-51%, 30%, 37%)" stroke="none" stroke-width="0.0" font-size="14.0" fill-opacity="1.0" text-anchor="middle"><text x="265.4200000000001" y="-55.028999999999996">OneTuple</text><text x="338.09" y="-718.8">StateVar</text><text x="446.5" y="-612.8399999999999">adjunctions</text><text x="329.88" y="-365.86999999999995">array</text><text x="787.72" y="-413.56">assoc</text><text x="432.39000000000004" y="-364.44">base</text><text x="635.01" y="-451.82">bifunctors</text><text x="597.51" y="-193.17000000000002">binary</text><text x="643.19" y="-123.08">bytestring</text><text x="561.9100000000001" y="-650.8299999999999">comonad</text><text x="597.24" y="-367.40000000000003">constraints</text><text x="408.31" y="-320.40000000000003">containers</text><text x="302.19" y="-662.41">contravariant</text><text x="462.78" y="-160.72">deepseq</text><text x="643.18" y="-606.8">distributive</text><text x="417.79" y="-672.8">exceptions</text><text x="359.52" y="-49.345">filepath</text><text x="331.02" y="-475.13">folds</text><text x="330.99" y="-538.6899999999999">free</text><text x="391.23" y="-153.12">hashable</text><text x="399.05" y="-508.32">invariant</text><text x="494.5" y="-380.87">lens</text><text x="679.18" y="-562.77">mtl</text><text x="675.07" y="-267.13999999999993">parallel</text><text x="75.065" y="-344.04999999999995">pointed</text><text x="259.80000000000007" y="-105.14999999999999">pretty</text><text x="175.27" y="-213.39000000000001">primitive</text><text x="505.19000000000005" y="-694.8499999999999">profunctors</text><text x="204.8" y="-516.01">reflection</text><text x="584.6" y="-526.02">semigroupoids</text><text x="764.63" y="-369.53">semigroups</text><text x="222.13" y="-620.0699999999999">stm</text><text x="669.15" y="-505.8">tagged</text><text x="523.61" y="-82.975">text</text><text x="629.15" y="-79.005">these</text><text x="483.5799999999999" y="-483.09000000000003">transformers</text><text x="321.88" y="-130.96">vector</text><text x="160.12" y="-599.0799999999999">void</text><text x="749.18" y="-471.82">base-orphans</text><text x="98.259" y="-216.66000000000003">call-stack</text><text x="57.5" y="-441.40999999999997">data-default-class</text><text x="122.12" y="-283.98">data-reify</text><text x="182.65999999999997" y="-124.24999999999999">ghc-bignum</text><text x="437.59" y="-14.3">ghc-boot-th</text><text x="528.45" y="-204.71999999999997">ghc-prim</text><text x="186.96" y="-414.33">indexed-traversable</text><text x="308.8" y="-255.7">indexed-traversable-instances</text><text x="545.05" y="-581.7299999999999">kan-extensions</text><text x="682.09" y="-216.04">strict</text><text x="462.89" y="-272.32">template-haskell</text><text x="637.18" y="-323.35">th-abstraction</text><text x="103.72" y="-505.78">transformers-base</text><text x="331.42" y="-618.3699999999999">transformers-compat</text><text x="772.85" y="-241.86">type-equality</text><text x="224.87" y="-330.07">unordered-containers</text><text x="533.15" y="-20.847">vector-stream</text></g></g></g><g class="hud"></g></svg>