<svg xmlns="http://www.w3.org/2000/svg" width="554.3340791905829" xmlns:xlink="http://www.w3.org/1999/xlink" viewBox="10.8 -1027.3999999999999 1139.6000000000001 1027.8999999999999" height="500.0"><style>svg {
  color-scheme: light dark;
}
{
  .canvas g, .title g, .axisbar g, .ticktext g, .tickglyph g, .ticklines g, .legendContent g text {
    fill: #0d0d0d;
  }
  .ticklines g, .tickglyph g, .legendBorder g {
    stroke: #0d0d0d;
  }
  .legendBorder g {
    fill: #f0f0f0;
  }
}
@media (prefers-color-scheme:dark) {
  .canvas g, .title g, .axisbar g, .ticktext g, .tickglyph g, .ticklines g, .legendContent g text {
    fill: #f0f0f0;
  }
  .ticklines g, .tickglyph g, .legendBorder g {
    stroke: #f0f0f0;
  }
  .legendBorder g {
    fill: #0d0d0d;
  }
}</style><g class="chart"><g class="edges"><g fill="rgb(0%, 0%, 0%)" stroke="rgb(-51%, 30%, 37%)" stroke-width="1.0" fill-opacity="0.0" stroke-opacity="1.0"><path d="M 72.35,-311.28 C 104.2300,-318.28 151.03,-328.57 187.4,-336.56"/></g><g fill="rgb(0%, 0%, 0%)" stroke="rgb(-51%, 30%, 37%)" stroke-width="1.0" fill-opacity="0.0" stroke-opacity="1.0"><path d="M 220.0800,-720.28 C 214.4200,-700.14 203.16,-667.45 184.8400,-644.45 C 183.08,-642.24 181.06,-640.13 178.9100,-638.16"/></g><g fill="rgb(0%, 0%, 0%)" stroke="rgb(-51%, 30%, 37%)" stroke-width="1.0" fill-opacity="0.0" stroke-opacity="1.0"><path d="M 256.7,-722.58 C 300.71,-701.78 382.7400,-666.23 457.19,-651.62 C 468.8300,-649.3400 499.2800,-653.71 510.5400,-650.0 C 529.08,-643.89 547.1,-631.06 560.06,-620.23"/></g><g fill="rgb(0%, 0%, 0%)" stroke="rgb(-51%, 30%, 37%)" stroke-width="1.0" fill-opacity="0.0" stroke-opacity="1.0"><path d="M 673.42,-692.95 C 668.7700,-665.39 656.36,-613.0700 626.17,-580.96 C 620.71,-575.15 613.4600,-570.63 606.29,-567.21"/></g><g fill="rgb(0%, 0%, 0%)" stroke="rgb(-51%, 30%, 37%)" stroke-width="1.0" fill-opacity="0.0" stroke-opacity="1.0"><path d="M 635.0600,-728.58 C 595.9000,-745.16 537.49,-769.9 500.73,-785.46"/></g><g fill="rgb(0%, 0%, 0%)" stroke="rgb(-51%, 30%, 37%)" stroke-width="1.0" fill-opacity="0.0" stroke-opacity="1.0"><path d="M 669.95,-693.22 C 656.4900,-652.54 623.9100,-554.0800 610.41,-513.31"/></g><g fill="rgb(0%, 0%, 0%)" stroke="rgb(-51%, 30%, 37%)" stroke-width="1.0" fill-opacity="0.0" stroke-opacity="1.0"><path d="M 635.3300,-718.07 C 580.31,-727.27 482.35,-743.66 424.93,-753.26"/></g><g fill="rgb(0%, 0%, 0%)" stroke="rgb(-51%, 30%, 37%)" stroke-width="1.0" fill-opacity="0.0" stroke-opacity="1.0"><path d="M 652.13,-729.29 C 645.3,-734.47 637.86,-740.14 631.0200,-745.38 C 611.06,-760.68 588.4800,-778.16 572.0,-790.95"/></g><g fill="rgb(0%, 0%, 0%)" stroke="rgb(-51%, 30%, 37%)" stroke-width="1.0" fill-opacity="0.0" stroke-opacity="1.0"><path d="M 635.3600,-707.14 C 599.35,-703.6 545.28,-698.62 498.12,-695.62 C 489.0400,-695.0500 465.9900,-696.32 457.19,-694.02 C 415.63,-683.14 402.23,-679.64 371.14,-650.0 C 360.12,-639.49 351.7800,-624.3300 346.4,-612.5000"/></g><g fill="rgb(0%, 0%, 0%)" stroke="rgb(-51%, 30%, 37%)" stroke-width="1.0" fill-opacity="0.0" stroke-opacity="1.0"><path d="M 675.82,-693.1900 C 675.63,-660.14 675.23,-590.3700 675.04,-557.31"/></g><g fill="rgb(0%, 0%, 0%)" stroke="rgb(-51%, 30%, 37%)" stroke-width="1.0" fill-opacity="0.0" stroke-opacity="1.0"><path d="M 635.32,-705.25 C 609.6,-701.08 575.74,-694.95 546.21,-687.5 C 544.77,-687.14 543.31,-686.75 541.8300,-686.35"/></g><g fill="rgb(0%, 0%, 0%)" stroke="rgb(-51%, 30%, 37%)" stroke-width="1.0" fill-opacity="0.0" stroke-opacity="1.0"><path d="M 675.1400,-693.08 C 672.76,-663.67 663.3300,-606.4100 626.17,-580.96 C 622.6300,-578.54 553.01,-580.94 549.04,-579.32 C 507.0100,-562.17 474.26,-517.51 458.37,-492.2"/></g><g fill="rgb(0%, 0%, 0%)" stroke="rgb(-51%, 30%, 37%)" stroke-width="1.0" fill-opacity="0.0" stroke-opacity="1.0"><path d="M 704.06,-729.61 C 708.99,-734.1600 713.4800,-739.45 716.42,-745.38 C 718.11,-748.7900 715.8100,-776.5600 718.11,-779.59 C 733.8600,-800.31 761.9900,-809.21 785.62,-812.96"/></g><g fill="rgb(0%, 0%, 0%)" stroke="rgb(-51%, 30%, 37%)" stroke-width="1.0" fill-opacity="0.0" stroke-opacity="1.0"><path d="M 635.15,-719.0600 C 599.23,-725.53 545.4200,-734.25 498.12,-738.02 C 461.1600,-740.97 368.2100,-736.28 331.29,-739.66 C 329.15,-739.8600 326.94,-740.12 324.72,-740.42"/></g><g fill="rgb(0%, 0%, 0%)" stroke="rgb(-51%, 30%, 37%)" stroke-width="1.0" fill-opacity="0.0" stroke-opacity="1.0"><path d="M 673.0400,-693.02 C 670.0,-678.69 664.0,-658.92 652.6100,-645.1 C 644.28,-634.99 632.9,-626.7200 621.6,-620.23"/></g><g fill="rgb(0%, 0%, 0%)" stroke="rgb(-51%, 30%, 37%)" stroke-width="1.0" fill-opacity="0.0" stroke-opacity="1.0"><path d="M 645.26,-729.41 C 639.7500,-733.97 634.62,-739.32 631.0200,-745.38 C 586.57,-820.25 589.12,-929.8100 592.17,-972.7000"/></g><g fill="rgb(0%, 0%, 0%)" stroke="rgb(-51%, 30%, 37%)" stroke-width="1.0" fill-opacity="0.0" stroke-opacity="1.0"><path d="M 635.31,-715.88 C 605.9600,-716.7300 567.81,-712.26 546.21,-687.5 C 543.59,-684.49 547.16,-654.67 544.5900,-651.62 C 535.2,-640.47 521.73,-634.04 507.5900,-630.4600"/></g><g fill="rgb(0%, 0%, 0%)" stroke="rgb(-51%, 30%, 37%)" stroke-width="1.0" fill-opacity="0.0" stroke-opacity="1.0"><path d="M 175.76,-647.61 C 177.9000,-645.67 180.02,-643.71 182.03,-641.79 C 207.45,-617.43 235.2000,-587.58 252.2900,-568.78"/></g><g fill="rgb(0%, 0%, 0%)" stroke="rgb(-51%, 30%, 37%)" stroke-width="1.0" fill-opacity="0.0" stroke-opacity="1.0"><path d="M 181.74,-677.23 C 203.42,-686.9 234.3,-701.59 259.76,-717.23 C 264.78,-720.32 269.9500,-723.91 274.79,-727.48"/></g><g fill="rgb(0%, 0%, 0%)" stroke="rgb(-51%, 30%, 37%)" stroke-width="1.0" fill-opacity="0.0" stroke-opacity="1.0"><path d="M 271.81,-568.7300 C 279.4200,-607.87 303.28,-699.33 364.72,-738.02 C 370.6400,-741.75 421.59,-736.24 427.69,-739.66 C 443.86,-748.7500 454.37,-767.68 460.33,-781.91"/></g><g fill="rgb(0%, 0%, 0%)" stroke="rgb(-51%, 30%, 37%)" stroke-width="1.0" fill-opacity="0.0" stroke-opacity="1.0"><path d="M 305.39,-548.8900 C 382.86,-545.5600 556.71,-537.83 562.54,-535.31 C 573.45,-530.59 583.19,-521.69 590.53,-513.47"/></g><g fill="rgb(0%, 0%, 0%)" stroke="rgb(-51%, 30%, 37%)" stroke-width="1.0" fill-opacity="0.0" stroke-opacity="1.0"><path d="M 305.31,-556.53 C 362.82,-566.1 474.2100,-584.64 535.8300,-594.9"/></g><g fill="rgb(0%, 0%, 0%)" stroke="rgb(-51%, 30%, 37%)" stroke-width="1.0" fill-opacity="0.0" stroke-opacity="1.0"><path d="M 232.0600,-554.43 C 229.55,-554.71 227.0,-554.98 224.4600,-555.26"/></g><g fill="rgb(0%, 0%, 0%)" stroke="rgb(-51%, 30%, 37%)" stroke-width="1.0" fill-opacity="0.0" stroke-opacity="1.0"><path d="M 245.41,-532.22 C 230.4000,-518.93 212.19,-499.48 203.87,-477.64 C 203.0300,-475.44 202.23,-436.9400 203.87,-435.24 C 208.94,-430.01 264.37,-438.39 269.44,-433.1500 C 286.96,-415.07 271.03,-385.72 257.15,-366.78"/></g><g fill="rgb(0%, 0%, 0%)" stroke="rgb(-51%, 30%, 37%)" stroke-width="1.0" fill-opacity="0.0" stroke-opacity="1.0"><path d="M 245.41,-532.22 C 230.4000,-518.93 212.19,-499.48 203.87,-477.64 C 202.2,-473.2400 202.49,-439.7500 203.87,-435.24 C 204.42,-433.47 205.16,-431.7 206.0100,-429.99"/></g><g fill="rgb(0%, 0%, 0%)" stroke="rgb(-51%, 30%, 37%)" stroke-width="1.0" fill-opacity="0.0" stroke-opacity="1.0"><path d="M 674.7100,-319.44 C 673.8,-321.02 672.97,-322.63 672.2700,-324.2400 C 666.2900,-338.01 647.8700,-441.91 646.22,-456.83 C 645.8500,-460.12 646.23,-513.47 644.6,-516.35 C 636.32,-531.0 620.54,-541.3100 606.56,-548.01"/></g><g fill="rgb(0%, 0%, 0%)" stroke="rgb(-51%, 30%, 37%)" stroke-width="1.0" fill-opacity="0.0" stroke-opacity="1.0"><path d="M 661.38,-286.49 C 653.17,-282.0 644.0700,-277.04 635.51,-272.37"/></g><g fill="rgb(0%, 0%, 0%)" stroke="rgb(-51%, 30%, 37%)" stroke-width="1.0" fill-opacity="0.0" stroke-opacity="1.0"><path d="M 674.73,-319.45 C 673.81,-321.02 672.98,-322.63 672.2700,-324.2400 C 652.27,-369.64 669.77,-388.21 649.6,-433.54 C 642.48,-449.54 630.69,-465.42 620.93,-477.05"/></g><g fill="rgb(0%, 0%, 0%)" stroke="rgb(-51%, 30%, 37%)" stroke-width="1.0" fill-opacity="0.0" stroke-opacity="1.0"><path d="M 613.87,-272.3900 C 624.17,-287.38 640.37,-308.41 658.54,-322.61 C 663.63,-326.5900 669.5100,-330.09 675.38,-333.09"/></g><g fill="rgb(0%, 0%, 0%)" stroke="rgb(-51%, 30%, 37%)" stroke-width="1.0" fill-opacity="0.0" stroke-opacity="1.0"><path d="M 578.19,-272.24 C 572.88,-275.34 567.11,-278.1 561.32,-279.8 C 546.9000,-284.03 440.1600,-276.27 426.04,-281.43 C 416.68,-284.85 407.9,-291.35 400.83,-297.78"/></g><g fill="rgb(0%, 0%, 0%)" stroke="rgb(-51%, 30%, 37%)" stroke-width="1.0" fill-opacity="0.0" stroke-opacity="1.0"><path d="M 578.19,-272.24 C 572.88,-275.34 567.11,-278.1 561.32,-279.8 C 554.11,-281.91 433.53,-280.76 426.04,-281.43 C 390.57,-284.6 380.83,-283.47 347.03,-294.67 C 320.18,-303.57 291.75,-318.53 271.24,-330.44"/></g><g fill="rgb(0%, 0%, 0%)" stroke="rgb(-51%, 30%, 37%)" stroke-width="1.0" fill-opacity="0.0" stroke-opacity="1.0"><path d="M 432.42,-801.67 C 403.8700,-801.7 362.86,-798.37 331.29,-782.06 C 322.99,-777.78 315.6600,-770.62 309.96,-763.77"/></g><g fill="rgb(0%, 0%, 0%)" stroke="rgb(-51%, 30%, 37%)" stroke-width="1.0" fill-opacity="0.0" stroke-opacity="1.0"><path d="M 485.48,-781.72 C 504.42,-762.1 532.45,-728.98 544.5900,-694.02 C 548.15,-683.74 542.52,-655.33 546.21,-645.1 C 549.48,-636.05 555.42,-627.4 561.3900,-620.26"/></g><g fill="rgb(0%, 0%, 0%)" stroke="rgb(-51%, 30%, 37%)" stroke-width="1.0" fill-opacity="0.0" stroke-opacity="1.0"><path d="M 481.5100,-781.59 C 498.41,-758.56 520.81,-719.22 498.12,-695.62 C 494.9700,-692.34 460.72,-696.8900 457.19,-694.02 C 443.42,-682.8300 440.2400,-661.94 439.9300,-646.81"/></g><g fill="rgb(0%, 0%, 0%)" stroke="rgb(-51%, 30%, 37%)" stroke-width="1.0" fill-opacity="0.0" stroke-opacity="1.0"><path d="M 642.93,-328.0200 C 649.1100,-324.43 655.55,-320.69 661.57,-317.1900"/></g><g fill="rgb(0%, 0%, 0%)" stroke="rgb(-51%, 30%, 37%)" stroke-width="1.0" fill-opacity="0.0" stroke-opacity="1.0"><path d="M 650.14,-345.9300 C 658.5600,-345.85 667.3700,-345.78 675.4500,-345.71"/></g><g fill="rgb(0%, 0%, 0%)" stroke="rgb(-51%, 30%, 37%)" stroke-width="1.0" fill-opacity="0.0" stroke-opacity="1.0"><path d="M 593.72,-328.1 C 578.98,-313.05 558.13,-291.78 543.4000,-276.74"/></g><g fill="rgb(0%, 0%, 0%)" stroke="rgb(-51%, 30%, 37%)" stroke-width="1.0" fill-opacity="0.0" stroke-opacity="1.0"><path d="M 631.98,-364.38 C 638.97,-371.8800 645.94,-381.16 649.6,-391.14 C 656.1,-408.83 650.96,-414.7400 649.6,-433.54 C 648.85,-443.9700 646.97,-446.4 646.22,-456.83 C 645.5400,-466.23 643.3300,-490.26 646.22,-499.23 C 648.7300,-507.04 653.4,-514.6100 658.25,-521.03"/></g><g fill="rgb(0%, 0%, 0%)" stroke="rgb(-51%, 30%, 37%)" stroke-width="1.0" fill-opacity="0.0" stroke-opacity="1.0"><path d="M 601.6900,-364.28 C 597.51,-372.3500 592.79,-382.08 589.2,-391.14 C 575.04,-426.88 570.33,-436.0000 564.2,-473.95 C 563.66,-477.32 564.84,-532.79 562.54,-535.31 C 558.47,-539.77 553.05,-532.4000 549.04,-536.92 C 536.53,-551.01 540.6200,-562.46 549.04,-579.32 C 549.87,-580.9700 550.88,-582.54 552.02,-584.01"/></g><g fill="rgb(0%, 0%, 0%)" stroke="rgb(-51%, 30%, 37%)" stroke-width="1.0" fill-opacity="0.0" stroke-opacity="1.0"><path d="M 584.55,-328.2 C 578.9,-325.25 572.82,-322.65 566.78,-321.07 C 539.1,-313.81 530.3300,-314.9 502.38,-321.07 C 499.54,-321.7 499.2800,-323.2 496.4400,-323.83 C 465.89,-330.58 457.19,-326.77 426.04,-323.83 C 423.5400,-323.59 420.9600,-323.28 418.38,-322.91"/></g><g fill="rgb(0%, 0%, 0%)" stroke="rgb(-51%, 30%, 37%)" stroke-width="1.0" fill-opacity="0.0" stroke-opacity="1.0"><path d="M 602.21,-364.51 C 598.13,-372.62 593.3400,-382.31 589.2,-391.14 C 584.34,-401.51 585.24,-405.24 578.82,-414.73 C 551.53,-455.03 529.6100,-452.73 502.14,-492.91 C 475.7000,-531.58 456.0,-583.5 446.74,-610.6"/></g><g fill="rgb(0%, 0%, 0%)" stroke="rgb(-51%, 30%, 37%)" stroke-width="1.0" fill-opacity="0.0" stroke-opacity="1.0"><path d="M 621.6600,-327.98 C 628.77,-314.05 637.67,-294.14 641.4600,-275.43 C 645.21,-256.96 645.94,-251.34 641.4600,-233.03 C 634.7000,-205.37 619.58,-203.6 611.9100,-176.17 C 598.2000,-127.1400 598.8500,-66.373 600.27,-36.437"/></g><g fill="rgb(0%, 0%, 0%)" stroke="rgb(-51%, 30%, 37%)" stroke-width="1.0" fill-opacity="0.0" stroke-opacity="1.0"><path d="M 597.13,-513.36 C 593.82,-521.65 589.91,-531.43 586.59,-539.73"/></g><g fill="rgb(0%, 0%, 0%)" stroke="rgb(-51%, 30%, 37%)" stroke-width="1.0" fill-opacity="0.0" stroke-opacity="1.0"><path d="M 618.14,-477.0200 C 627.2500,-464.86 639.3700,-448.4 649.6,-433.54 C 666.02,-409.7 683.98,-381.49 695.23,-363.53"/></g><g fill="rgb(0%, 0%, 0%)" stroke="rgb(-51%, 30%, 37%)" stroke-width="1.0" fill-opacity="0.0" stroke-opacity="1.0"><path d="M 424.54,-758.2100 C 447.57,-755.4 475.4500,-749.66 498.12,-738.02 C 523.4200,-725.04 532.91,-719.96 544.5900,-694.02 C 546.8200,-689.06 544.3700,-650.2200 546.21,-645.1 C 549.48,-636.05 555.42,-627.4 561.3900,-620.26"/></g><g fill="rgb(0%, 0%, 0%)" stroke="rgb(-51%, 30%, 37%)" stroke-width="1.0" fill-opacity="0.0" stroke-opacity="1.0"><path d="M 693.13,-363.61 C 678.46,-384.77 655.71,-421.3600 646.22,-456.83 C 644.51,-463.22 647.86,-510.59 644.6,-516.35 C 636.32,-531.0 620.54,-541.3100 606.56,-548.01"/></g><g fill="rgb(0%, 0%, 0%)" stroke="rgb(-51%, 30%, 37%)" stroke-width="1.0" fill-opacity="0.0" stroke-opacity="1.0"><path d="M 548.0,-790.93 C 546.7,-749.63 543.8900,-651.89 546.21,-645.1 C 549.33,-636.0 555.24,-627.34 561.22,-620.2"/></g><g fill="rgb(0%, 0%, 0%)" stroke="rgb(-51%, 30%, 37%)" stroke-width="1.0" fill-opacity="0.0" stroke-opacity="1.0"><path d="M 522.85,-790.91 C 516.69,-786.76 510.0600,-782.48 503.7500,-778.74 C 471.0600,-759.35 464.51,-749.08 427.69,-739.66 C 420.91,-737.93 371.1800,-740.7200 364.72,-738.02 C 283.18,-704.01 216.78,-616.22 190.8800,-578.19"/></g><g fill="rgb(0%, 0%, 0%)" stroke="rgb(-51%, 30%, 37%)" stroke-width="1.0" fill-opacity="0.0" stroke-opacity="1.0"><path d="M 193.2,-474.02 C 196.72,-475.45 200.3200,-476.71 203.87,-477.64 C 271.36,-495.44 291.89,-473.7200 360.74,-485.22 C 376.4300,-487.8400 379.4000,-492.71 395.1100,-495.21 C 406.07,-496.95 434.4700,-493.44 445.03,-496.85 C 474.14,-506.27 472.94,-526.16 502.14,-535.31 C 507.83,-537.09 603.4800,-536.77 609.44,-536.92 C 622.07,-537.23 636.06,-537.7 647.85,-538.14"/></g><g fill="rgb(0%, 0%, 0%)" stroke="rgb(-51%, 30%, 37%)" stroke-width="1.0" fill-opacity="0.0" stroke-opacity="1.0"><path d="M 151.0,-474.28 C 138.99,-498.73 121.5100,-543.37 130.98,-581.38 C 132.77,-588.56 136.15,-595.87 139.67,-602.2000"/></g><g fill="rgb(0%, 0%, 0%)" stroke="rgb(-51%, 30%, 37%)" stroke-width="1.0" fill-opacity="0.0" stroke-opacity="1.0"><path d="M 159.4,-437.8900 C 159.11,-423.89 160.76,-404.63 170.04,-390.7500 C 176.72,-380.76 186.63,-372.8200 196.9800,-366.64"/></g><g fill="rgb(0%, 0%, 0%)" stroke="rgb(-51%, 30%, 37%)" stroke-width="1.0" fill-opacity="0.0" stroke-opacity="1.0"><path d="M 559.5,-516.24 C 575.75,-518.83 595.8300,-524.5000 609.44,-536.92 C 656.0,-579.37 670.19,-657.96 674.3200,-693.27"/></g><g fill="rgb(0%, 0%, 0%)" stroke="rgb(-51%, 30%, 37%)" stroke-width="1.0" fill-opacity="0.0" stroke-opacity="1.0"><path d="M 505.17,-523.59 C 488.1100,-529.12 465.54,-535.6900 445.03,-539.25 C 397.29,-547.54 341.33,-549.86 305.49,-550.43"/></g><g fill="rgb(0%, 0%, 0%)" stroke="rgb(-51%, 30%, 37%)" stroke-width="1.0" fill-opacity="0.0" stroke-opacity="1.0"><path d="M 530.28,-532.12 C 528.28,-553.95 526.36,-591.7600 532.77,-623.36 C 535.47,-636.7 541.9100,-638.27 544.5900,-651.62 C 545.51,-656.24 546.06,-689.54 544.5900,-694.02 C 533.03,-729.17 504.8500,-762.25 485.71,-781.8"/></g><g fill="rgb(0%, 0%, 0%)" stroke="rgb(-51%, 30%, 37%)" stroke-width="1.0" fill-opacity="0.0" stroke-opacity="1.0"><path d="M 541.03,-495.8500 C 550.46,-475.96 565.91,-443.18 578.82,-414.73 C 583.5500,-404.3 584.34,-401.51 589.2,-391.14 C 593.3400,-382.31 598.13,-372.62 602.21,-364.51"/></g><g fill="rgb(0%, 0%, 0%)" stroke="rgb(-51%, 30%, 37%)" stroke-width="1.0" fill-opacity="0.0" stroke-opacity="1.0"><path d="M 505.0700,-521.26 C 467.69,-532.65 401.68,-558.7800 371.14,-607.6 C 368.5400,-611.76 364.9,-690.72 364.72,-695.62 C 364.03,-714.45 359.39,-719.95 364.72,-738.02 C 365.2000,-739.65 365.8400,-741.28 366.5800,-742.86"/></g><g fill="rgb(0%, 0%, 0%)" stroke="rgb(-51%, 30%, 37%)" stroke-width="1.0" fill-opacity="0.0" stroke-opacity="1.0"><path d="M 530.28,-532.12 C 528.28,-553.95 526.36,-591.7600 532.77,-623.36 C 535.47,-636.7 541.74,-638.31 544.5900,-651.62 C 546.02,-658.32 547.67,-751.1600 548.31,-791.09"/></g><g fill="rgb(0%, 0%, 0%)" stroke="rgb(-51%, 30%, 37%)" stroke-width="1.0" fill-opacity="0.0" stroke-opacity="1.0"><path d="M 505.08,-515.0200 C 486.1,-515.66 460.88,-516.5100 441.9300,-517.14"/></g><g fill="rgb(0%, 0%, 0%)" stroke="rgb(-51%, 30%, 37%)" stroke-width="1.0" fill-opacity="0.0" stroke-opacity="1.0"><path d="M 559.5,-518.89 C 584.8700,-523.35 622.54,-529.98 647.88,-534.44"/></g><g fill="rgb(0%, 0%, 0%)" stroke="rgb(-51%, 30%, 37%)" stroke-width="1.0" fill-opacity="0.0" stroke-opacity="1.0"><path d="M 543.8300,-495.94 C 555.29,-476.65 572.12,-444.85 578.82,-414.73 C 582.91,-396.34 588.46,-388.52 578.82,-372.3300 C 576.49,-368.42 572.28,-371.29 569.82,-367.46 C 567.04,-363.11 567.16,-326.22 566.78,-321.07 C 565.29,-300.77 563.89,-295.77 563.06,-275.43 C 562.68,-266.02 559.38,-241.7 563.06,-233.03 C 573.77,-207.86 597.0,-186.88 615.86,-173.03"/></g><g fill="rgb(0%, 0%, 0%)" stroke="rgb(-51%, 30%, 37%)" stroke-width="1.0" fill-opacity="0.0" stroke-opacity="1.0"><path d="M 530.81,-532.4400 C 528.3,-558.83 522.3500,-608.89 510.5400,-650.0 C 510.09,-651.57 509.56,-653.18 508.9900,-654.78"/></g><g fill="rgb(0%, 0%, 0%)" stroke="rgb(-51%, 30%, 37%)" stroke-width="1.0" fill-opacity="0.0" stroke-opacity="1.0"><path d="M 504.9900,-507.52 C 487.87,-503.69 465.2900,-499.1700 445.03,-496.85 C 422.97,-494.33 417.03,-498.7000 395.1100,-495.21 C 379.4000,-492.71 376.45,-487.72 360.74,-485.22 C 254.9100,-468.35 214.28,-527.6600 119.75,-477.18 C 104.2,-468.88 93.1570,-451.74 86.503,-438.44"/></g><g fill="rgb(0%, 0%, 0%)" stroke="rgb(-51%, 30%, 37%)" stroke-width="1.0" fill-opacity="0.0" stroke-opacity="1.0"><path d="M 505.13,-501.2 C 499.0500,-498.32 492.49,-495.2 486.0500,-492.15"/></g><g fill="rgb(0%, 0%, 0%)" stroke="rgb(-51%, 30%, 37%)" stroke-width="1.0" fill-opacity="0.0" stroke-opacity="1.0"><path d="M 533.73,-532.31 C 535.52,-546.18 539.6300,-565.23 549.04,-579.32 C 550.14,-580.9700 551.4,-582.54 552.77,-584.04"/></g><g fill="rgb(0%, 0%, 0%)" stroke="rgb(-51%, 30%, 37%)" stroke-width="1.0" fill-opacity="0.0" stroke-opacity="1.0"><path d="M 559.59,-521.1500 C 583.23,-525.79 617.78,-528.95 644.6,-516.35 C 653.68,-512.09 661.07,-503.82 666.43,-496.05"/></g><g fill="rgb(0%, 0%, 0%)" stroke="rgb(-51%, 30%, 37%)" stroke-width="1.0" fill-opacity="0.0" stroke-opacity="1.0"><path d="M 527.92,-495.9 C 518.8,-461.57 495.04,-386.44 451.63,-338.69 C 442.78,-328.9600 433.47,-334.68 426.04,-323.83 C 418.62,-313.01 427.9700,-306.05 421.43,-294.67 C 413.5800,-281.02 400.6800,-269.47 388.51,-260.75"/></g><g fill="rgb(0%, 0%, 0%)" stroke="rgb(-51%, 30%, 37%)" stroke-width="1.0" fill-opacity="0.0" stroke-opacity="1.0"><path d="M 525.39,-495.98 C 519.89,-483.0800 511.33,-465.8 500.51,-452.81 C 474.76,-421.9 437.0800,-394.75 410.9200,-377.9"/></g><g fill="rgb(0%, 0%, 0%)" stroke="rgb(-51%, 30%, 37%)" stroke-width="1.0" fill-opacity="0.0" stroke-opacity="1.0"><path d="M 336.0900,-612.9 C 331.85,-644.1100 328.66,-706.98 364.72,-738.02 C 367.37,-740.3100 424.64,-737.95 427.69,-739.66 C 443.86,-748.7500 454.37,-767.68 460.33,-781.91"/></g><g fill="rgb(0%, 0%, 0%)" stroke="rgb(-51%, 30%, 37%)" stroke-width="1.0" fill-opacity="0.0" stroke-opacity="1.0"><path d="M 366.47,-585.6 C 406.17,-572.9800 482.5200,-549.93 549.04,-536.92 C 554.97,-535.76 557.08,-537.89 562.54,-535.31 C 573.1000,-530.32 582.69,-521.6000 590.01,-513.57"/></g><g fill="rgb(0%, 0%, 0%)" stroke="rgb(-51%, 30%, 37%)" stroke-width="1.0" fill-opacity="0.0" stroke-opacity="1.0"><path d="M 346.4,-612.5000 C 351.7800,-624.3300 360.12,-639.49 371.14,-650.0 C 402.23,-679.64 415.63,-683.14 457.19,-694.02 C 461.59,-695.17 494.3500,-693.07 498.12,-695.62 C 530.26,-717.41 542.1600,-764.68 546.3900,-790.83"/></g><g fill="rgb(0%, 0%, 0%)" stroke="rgb(-51%, 30%, 37%)" stroke-width="1.0" fill-opacity="0.0" stroke-opacity="1.0"><path d="M 335.92,-576.28 C 332.0500,-561.03 324.12,-540.07 308.46,-529.25 C 304.77,-526.7 292.63,-528.93 288.3400,-527.62 C 249.99,-515.91 210.46,-491.36 185.8,-474.29"/></g><g fill="rgb(0%, 0%, 0%)" stroke="rgb(-51%, 30%, 37%)" stroke-width="1.0" fill-opacity="0.0" stroke-opacity="1.0"><path d="M 343.1800,-576.46 C 348.7500,-554.73 361.06,-518.43 384.63,-496.85 C 388.58,-493.23 393.16,-490.1700 398.0000,-487.59"/></g><g fill="rgb(0%, 0%, 0%)" stroke="rgb(-51%, 30%, 37%)" stroke-width="1.0" fill-opacity="0.0" stroke-opacity="1.0"><path d="M 366.38,-595.33 C 407.6,-596.65 486.49,-599.18 535.8500,-600.76"/></g><g fill="rgb(0%, 0%, 0%)" stroke="rgb(-51%, 30%, 37%)" stroke-width="1.0" fill-opacity="0.0" stroke-opacity="1.0"><path d="M 348.41,-612.57 C 354.3300,-623.73 362.53,-638.12 371.14,-650.0 C 383.89,-667.58 400.5700,-685.77 413.1500,-698.73"/></g><g fill="rgb(0%, 0%, 0%)" stroke="rgb(-51%, 30%, 37%)" stroke-width="1.0" fill-opacity="0.0" stroke-opacity="1.0"><path d="M 347.68,-576.46 C 362.77,-544.01 392.9900,-478.95 393.27,-477.64 C 394.2900,-473.04 395.64,-439.32 393.27,-435.24 C 386.73,-423.95 320.31,-388.52 277.6700,-366.6"/></g><g fill="rgb(0%, 0%, 0%)" stroke="rgb(-51%, 30%, 37%)" stroke-width="1.0" fill-opacity="0.0" stroke-opacity="1.0"><path d="M 335.92,-576.28 C 332.0500,-561.03 324.12,-540.07 308.46,-529.25 C 304.77,-526.7 292.61,-528.98 288.3400,-527.62 C 246.76,-514.42 225.4800,-515.5300 203.87,-477.64 C 201.54,-473.55 202.49,-439.7500 203.87,-435.24 C 204.42,-433.47 205.16,-431.7 206.0100,-429.99"/></g><g fill="rgb(0%, 0%, 0%)" stroke="rgb(-51%, 30%, 37%)" stroke-width="1.0" fill-opacity="0.0" stroke-opacity="1.0"><path d="M 338.1700,-612.61 C 335.33,-658.26 327.9,-777.46 325.0600,-823.13"/></g><g fill="rgb(0%, 0%, 0%)" stroke="rgb(-51%, 30%, 37%)" stroke-width="1.0" fill-opacity="0.0" stroke-opacity="1.0"><path d="M 558.13,-256.75 C 560.74,-256.6 563.38,-256.45 566.02,-256.3"/></g><g fill="rgb(0%, 0%, 0%)" stroke="rgb(-51%, 30%, 37%)" stroke-width="1.0" fill-opacity="0.0" stroke-opacity="1.0"><path d="M 541.19,-276.67 C 550.39,-288.47 561.28,-304.69 566.78,-321.07 C 570.0700,-330.8600 564.25,-358.76 569.82,-367.46 C 572.28,-371.29 576.1700,-368.63 578.82,-372.3300 C 594.88,-394.77 583.5900,-406.52 589.2,-433.54 C 592.2500,-448.2100 596.35,-464.68 599.5200,-476.9"/></g><g fill="rgb(0%, 0%, 0%)" stroke="rgb(-51%, 30%, 37%)" stroke-width="1.0" fill-opacity="0.0" stroke-opacity="1.0"><path d="M 558.3800,-274.42 C 585.27,-287.4 624.36,-306.24 658.54,-322.61 C 663.9500,-325.2000 669.7000,-327.95 675.27,-330.6"/></g><g fill="rgb(0%, 0%, 0%)" stroke="rgb(-51%, 30%, 37%)" stroke-width="1.0" fill-opacity="0.0" stroke-opacity="1.0"><path d="M 541.77,-276.81 C 551.07,-288.55 561.86,-304.65 566.78,-321.07 C 569.49,-330.1 569.31,-354.39 566.78,-363.47 C 565.64,-367.58 563.76,-371.69 561.64,-375.5"/></g><g fill="rgb(0%, 0%, 0%)" stroke="rgb(-51%, 30%, 37%)" stroke-width="1.0" fill-opacity="0.0" stroke-opacity="1.0"><path d="M 492.9500,-262.21 C 472.8700,-265.35 447.05,-271.1 426.04,-281.43 C 417.6000,-285.5800 409.3800,-291.75 402.48,-297.72"/></g><g fill="rgb(0%, 0%, 0%)" stroke="rgb(-51%, 30%, 37%)" stroke-width="1.0" fill-opacity="0.0" stroke-opacity="1.0"><path d="M 321.22,-524.4600 C 318.52,-537.74 314.2,-556.11 308.46,-571.65 C 287.6800,-627.9 253.12,-689.95 235.55,-720.0400"/></g><g fill="rgb(0%, 0%, 0%)" stroke="rgb(-51%, 30%, 37%)" stroke-width="1.0" fill-opacity="0.0" stroke-opacity="1.0"><path d="M 352.22,-524.59 C 362.07,-530.21 373.49,-535.83 384.63,-539.25 C 442.3800,-557.01 513.91,-559.2 552.13,-558.88"/></g><g fill="rgb(0%, 0%, 0%)" stroke="rgb(-51%, 30%, 37%)" stroke-width="1.0" fill-opacity="0.0" stroke-opacity="1.0"><path d="M 301.53,-524.58 C 298.29,-527.14 294.95,-529.77 291.7100,-532.33"/></g><g fill="rgb(0%, 0%, 0%)" stroke="rgb(-51%, 30%, 37%)" stroke-width="1.0" fill-opacity="0.0" stroke-opacity="1.0"><path d="M 319.1400,-524.67 C 315.49,-537.99 311.0000,-556.58 309.1,-573.26 C 306.96,-591.99 305.11,-597.25 309.1,-615.66 C 321.7400,-674.05 314.9200,-705.03 364.72,-738.02 C 370.5600,-741.89 421.59,-736.24 427.69,-739.66 C 443.86,-748.7500 454.37,-767.68 460.33,-781.91"/></g><g fill="rgb(0%, 0%, 0%)" stroke="rgb(-51%, 30%, 37%)" stroke-width="1.0" fill-opacity="0.0" stroke-opacity="1.0"><path d="M 357.8000,-500.25 C 366.5000,-498.88 375.89,-497.61 384.63,-496.85 C 387.8300,-496.58 497.66,-496.71 500.51,-495.21 C 501.62,-494.62 501.0300,-493.4800 502.14,-492.91 C 525.98,-480.58 535.7,-492.19 562.54,-492.91 C 563.99,-492.95 565.48,-493.0000 566.97,-493.0500"/></g><g fill="rgb(0%, 0%, 0%)" stroke="rgb(-51%, 30%, 37%)" stroke-width="1.0" fill-opacity="0.0" stroke-opacity="1.0"><path d="M 319.1400,-524.67 C 315.49,-537.99 311.0000,-556.58 309.1,-573.26 C 306.96,-591.99 305.11,-597.25 309.1,-615.66 C 319.71,-664.67 349.9000,-716.14 367.09,-742.6600"/></g><g fill="rgb(0%, 0%, 0%)" stroke="rgb(-51%, 30%, 37%)" stroke-width="1.0" fill-opacity="0.0" stroke-opacity="1.0"><path d="M 357.5900,-524.5000 C 366.3700,-529.3 375.8600,-534.48 384.63,-539.25 C 440.5500,-569.71 477.98,-552.88 510.5400,-607.6 C 519.03,-621.86 514.81,-640.89 509.5500,-654.71"/></g><g fill="rgb(0%, 0%, 0%)" stroke="rgb(-51%, 30%, 37%)" stroke-width="1.0" fill-opacity="0.0" stroke-opacity="1.0"><path d="M 324.7,-524.45 C 323.86,-538.97 320.3600,-558.99 308.46,-571.65 C 274.4,-607.8600 213.9900,-617.44 178.99,-619.87"/></g><g fill="rgb(0%, 0%, 0%)" stroke="rgb(-51%, 30%, 37%)" stroke-width="1.0" fill-opacity="0.0" stroke-opacity="1.0"><path d="M 319.56,-524.43 C 316.06,-537.8 311.58,-556.53 309.1,-573.26 C 300.82,-629.0300 298.38,-695.82 297.67,-727.37"/></g><g fill="rgb(0%, 0%, 0%)" stroke="rgb(-51%, 30%, 37%)" stroke-width="1.0" fill-opacity="0.0" stroke-opacity="1.0"><path d="M 354.86,-524.43 C 364.22,-529.59 374.69,-534.98 384.63,-539.25 C 435.0800,-560.95 495.6,-579.37 535.66,-590.57"/></g><g fill="rgb(0%, 0%, 0%)" stroke="rgb(-51%, 30%, 37%)" stroke-width="1.0" fill-opacity="0.0" stroke-opacity="1.0"><path d="M 357.6300,-500.4 C 370.84,-496.26 384.88,-489.3 393.27,-477.64 C 396.5100,-473.15 393.1100,-457.97 395.1100,-452.81 C 409.8100,-414.98 438.3400,-419.44 451.63,-381.09 C 457.8000,-363.29 462.6100,-354.01 451.63,-338.69 C 447.42,-332.82 432.9800,-327.5500 418.54,-323.56"/></g><g fill="rgb(0%, 0%, 0%)" stroke="rgb(-51%, 30%, 37%)" stroke-width="1.0" fill-opacity="0.0" stroke-opacity="1.0"><path d="M 357.7,-500.8 C 371.0900,-496.72 385.25,-489.7100 393.27,-477.64 C 394.58,-475.68 394.4500,-437.28 393.27,-435.24 C 386.73,-423.95 320.31,-388.52 277.6700,-366.6"/></g><g fill="rgb(0%, 0%, 0%)" stroke="rgb(-51%, 30%, 37%)" stroke-width="1.0" fill-opacity="0.0" stroke-opacity="1.0"><path d="M 291.29,-508.75 C 263.15,-508.7 224.23,-503.4200 203.87,-477.64 C 200.9500,-473.95 202.49,-439.7500 203.87,-435.24 C 204.42,-433.47 205.16,-431.7 206.0100,-429.99"/></g><g fill="rgb(0%, 0%, 0%)" stroke="rgb(-51%, 30%, 37%)" stroke-width="1.0" fill-opacity="0.0" stroke-opacity="1.0"><path d="M 341.7,-524.4800 C 363.6900,-547.62 401.59,-587.49 423.61,-610.67"/></g><g fill="rgb(0%, 0%, 0%)" stroke="rgb(-51%, 30%, 37%)" stroke-width="1.0" fill-opacity="0.0" stroke-opacity="1.0"><path d="M 357.7,-500.8 C 371.0900,-496.72 385.25,-489.7100 393.27,-477.64 C 395.88,-473.7200 393.66,-439.94 393.27,-435.24 C 391.6700,-415.56 387.7500,-393.26 384.7600,-378.06"/></g><g fill="rgb(0%, 0%, 0%)" stroke="rgb(-51%, 30%, 37%)" stroke-width="1.0" fill-opacity="0.0" stroke-opacity="1.0"><path d="M 441.98,-524.67 C 472.4400,-532.09 521.5700,-544.06 552.0500,-551.49"/></g><g fill="rgb(0%, 0%, 0%)" stroke="rgb(-51%, 30%, 37%)" stroke-width="1.0" fill-opacity="0.0" stroke-opacity="1.0"><path d="M 387.6500,-531.7 C 366.16,-542.62 335.48,-558.5 309.1,-573.26 C 263.83,-598.59 212.3300,-629.92 181.71,-648.8100"/></g><g fill="rgb(0%, 0%, 0%)" stroke="rgb(-51%, 30%, 37%)" stroke-width="1.0" fill-opacity="0.0" stroke-opacity="1.0"><path d="M 387.6900,-524.0700 C 364.51,-529.21 330.95,-536.6500 305.38,-542.32"/></g><g fill="rgb(0%, 0%, 0%)" stroke="rgb(-51%, 30%, 37%)" stroke-width="1.0" fill-opacity="0.0" stroke-opacity="1.0"><path d="M 397.3000,-499.8 C 396.44,-498.31 395.6900,-496.7800 395.1100,-495.21 C 393.47,-490.79 393.53,-457.25 395.1100,-452.81 C 396.69,-448.36 498.8900,-324.2500 502.38,-321.07 C 514.26,-310.25 547.99,-288.26 572.99,-272.46"/></g><g fill="rgb(0%, 0%, 0%)" stroke="rgb(-51%, 30%, 37%)" stroke-width="1.0" fill-opacity="0.0" stroke-opacity="1.0"><path d="M 442.0500,-534.95 C 474.5200,-557.04 526.67,-599.15 544.5900,-651.62 C 546.11,-656.08 546.06,-689.54 544.5900,-694.02 C 533.03,-729.17 504.8500,-762.25 485.71,-781.8"/></g><g fill="rgb(0%, 0%, 0%)" stroke="rgb(-51%, 30%, 37%)" stroke-width="1.0" fill-opacity="0.0" stroke-opacity="1.0"><path d="M 441.9300,-515.64 C 459.87,-512.94 483.19,-507.25 500.51,-495.21 C 501.54,-494.49 501.0300,-493.4800 502.14,-492.91 C 525.98,-480.58 535.7,-492.19 562.54,-492.91 C 563.99,-492.95 565.48,-493.0000 566.97,-493.0500"/></g><g fill="rgb(0%, 0%, 0%)" stroke="rgb(-51%, 30%, 37%)" stroke-width="1.0" fill-opacity="0.0" stroke-opacity="1.0"><path d="M 403.45,-536.11 C 393.04,-553.64 378.21,-581.38 371.14,-607.6 C 367.37,-621.61 360.61,-724.11 364.72,-738.02 C 365.2000,-739.65 365.8400,-741.28 366.5800,-742.86"/></g><g fill="rgb(0%, 0%, 0%)" stroke="rgb(-51%, 30%, 37%)" stroke-width="1.0" fill-opacity="0.0" stroke-opacity="1.0"><path d="M 441.83,-535.03 C 474.08,-557.19 526.0,-599.3800 544.5900,-651.62 C 545.74,-654.86 547.55,-750.12 548.28,-790.91"/></g><g fill="rgb(0%, 0%, 0%)" stroke="rgb(-51%, 30%, 37%)" stroke-width="1.0" fill-opacity="0.0" stroke-opacity="1.0"><path d="M 390.75,-499.92 C 381.79,-494.15 371.2400,-488.43 360.74,-485.22 C 293.99,-464.8 271.36,-495.44 203.87,-477.64 C 200.3200,-476.71 196.72,-475.45 193.2,-474.02"/></g><g fill="rgb(0%, 0%, 0%)" stroke="rgb(-51%, 30%, 37%)" stroke-width="1.0" fill-opacity="0.0" stroke-opacity="1.0"><path d="M 404.2000,-536.33 C 394.3300,-554.03 379.88,-581.8900 371.14,-607.6 C 369.97,-611.06 371.1800,-612.42 369.5,-615.66 C 338.96,-674.57 297.9,-665.57 267.19,-724.39 C 259.77,-738.58 266.37,-745.0500 259.76,-759.63 C 257.5900,-764.43 254.6000,-769.19 251.46,-773.52"/></g><g fill="rgb(0%, 0%, 0%)" stroke="rgb(-51%, 30%, 37%)" stroke-width="1.0" fill-opacity="0.0" stroke-opacity="1.0"><path d="M 396.93,-536.1600 C 384.9700,-548.25 369.31,-564.1 357.33,-576.22"/></g><g fill="rgb(0%, 0%, 0%)" stroke="rgb(-51%, 30%, 37%)" stroke-width="1.0" fill-opacity="0.0" stroke-opacity="1.0"><path d="M 397.3000,-499.8 C 396.44,-498.31 395.6900,-496.7800 395.1100,-495.21 C 393.47,-490.79 393.57,-457.26 395.1100,-452.81 C 408.4,-414.46 426.56,-413.01 451.63,-381.09 C 471.5900,-355.68 479.7600,-351.51 496.4400,-323.83 C 505.6,-308.64 513.6300,-290.06 518.94,-276.6300"/></g><g fill="rgb(0%, 0%, 0%)" stroke="rgb(-51%, 30%, 37%)" stroke-width="1.0" fill-opacity="0.0" stroke-opacity="1.0"><path d="M 442.1600,-524.77 C 459.2700,-528.65 481.85,-533.17 502.14,-535.31 C 525.8500,-537.81 585.6,-536.32 609.44,-536.92 C 622.07,-537.23 636.06,-537.7 647.85,-538.14"/></g><g fill="rgb(0%, 0%, 0%)" stroke="rgb(-51%, 30%, 37%)" stroke-width="1.0" fill-opacity="0.0" stroke-opacity="1.0"><path d="M 442.02,-518.21 C 461.2000,-516.78 485.97,-511.53 500.51,-495.21 C 509.6900,-484.9 514.09,-385.43 518.42,-372.3300 C 519.72,-368.39 521.52,-364.36 523.44,-360.58"/></g><g fill="rgb(0%, 0%, 0%)" stroke="rgb(-51%, 30%, 37%)" stroke-width="1.0" fill-opacity="0.0" stroke-opacity="1.0"><path d="M 442.11,-534.36 C 465.2000,-549.91 496.69,-575.66 510.5400,-607.6 C 518.04,-624.89 514.29,-631.53 510.5400,-650.0 C 510.24,-651.52 509.8200,-653.0600 509.3400,-654.59"/></g><g fill="rgb(0%, 0%, 0%)" stroke="rgb(-51%, 30%, 37%)" stroke-width="1.0" fill-opacity="0.0" stroke-opacity="1.0"><path d="M 387.7100,-523.81 C 379.12,-525.37 369.5700,-526.85 360.74,-527.62 C 344.71,-529.03 304.25,-529.95 288.3400,-527.62 C 210.95,-516.29 183.44,-522.57 119.75,-477.18 C 105.79,-467.24 94.8130,-451.0 87.767,-438.42"/></g><g fill="rgb(0%, 0%, 0%)" stroke="rgb(-51%, 30%, 37%)" stroke-width="1.0" fill-opacity="0.0" stroke-opacity="1.0"><path d="M 428.43,-499.88 C 430.35,-497.32 432.3200,-494.69 434.2400,-492.13"/></g><g fill="rgb(0%, 0%, 0%)" stroke="rgb(-51%, 30%, 37%)" stroke-width="1.0" fill-opacity="0.0" stroke-opacity="1.0"><path d="M 404.2000,-536.33 C 394.3300,-554.03 379.88,-581.8900 371.14,-607.6 C 369.97,-611.06 370.77,-612.23 369.5,-615.66 C 353.8400,-658.01 325.89,-703.17 309.77,-727.51"/></g><g fill="rgb(0%, 0%, 0%)" stroke="rgb(-51%, 30%, 37%)" stroke-width="1.0" fill-opacity="0.0" stroke-opacity="1.0"><path d="M 441.86,-516.68 C 460.22,-514.46 484.0700,-508.91 500.51,-495.21 C 503.9800,-492.32 527.56,-440.51 540.3700,-411.99"/></g><g fill="rgb(0%, 0%, 0%)" stroke="rgb(-51%, 30%, 37%)" stroke-width="1.0" fill-opacity="0.0" stroke-opacity="1.0"><path d="M 442.15,-524.88 C 459.26,-528.8 481.8400,-533.3200 502.14,-535.31 C 528.85,-537.93 535.84,-538.09 562.54,-535.31 C 599.6700,-531.4400 607.6000,-521.87 644.74,-518.01 C 671.44,-515.23 679.1000,-511.49 705.14,-518.01 C 706.7200,-518.4 708.3100,-518.89 709.89,-519.45"/></g><g fill="rgb(0%, 0%, 0%)" stroke="rgb(-51%, 30%, 37%)" stroke-width="1.0" fill-opacity="0.0" stroke-opacity="1.0"><path d="M 442.0100,-531.94 C 469.96,-546.22 513.6,-568.51 544.19,-584.14"/></g><g fill="rgb(0%, 0%, 0%)" stroke="rgb(-51%, 30%, 37%)" stroke-width="1.0" fill-opacity="0.0" stroke-opacity="1.0"><path d="M 441.9300,-515.64 C 459.87,-512.94 483.19,-507.25 500.51,-495.21 C 501.54,-494.49 501.1200,-493.64 502.14,-492.91 C 525.52,-476.0200 535.68,-478.21 564.2,-473.95 C 592.93,-469.66 626.23,-471.75 649.05,-474.24"/></g><g fill="rgb(0%, 0%, 0%)" stroke="rgb(-51%, 30%, 37%)" stroke-width="1.0" fill-opacity="0.0" stroke-opacity="1.0"><path d="M 387.7,-523.74 C 379.12,-525.3 369.5700,-526.79 360.74,-527.62 C 353.4500,-528.31 236.0800,-527.2 229.0600,-529.25 C 219.7700,-531.96 210.5,-536.92 202.52,-542.08"/></g><g fill="rgb(0%, 0%, 0%)" stroke="rgb(-51%, 30%, 37%)" stroke-width="1.0" fill-opacity="0.0" stroke-opacity="1.0"><path d="M 387.7100,-523.81 C 379.12,-525.37 369.5700,-526.85 360.74,-527.62 C 309.9500,-532.08 162.08,-525.55 93.969,-522.1500"/></g><g fill="rgb(0%, 0%, 0%)" stroke="rgb(-51%, 30%, 37%)" stroke-width="1.0" fill-opacity="0.0" stroke-opacity="1.0"><path d="M 397.3000,-499.8 C 396.44,-498.31 395.6900,-496.7800 395.1100,-495.21 C 393.47,-490.79 393.57,-457.26 395.1100,-452.81 C 413.65,-399.33 484.61,-384.68 451.63,-338.69 C 447.42,-332.82 432.9800,-327.5500 418.54,-323.56"/></g><g fill="rgb(0%, 0%, 0%)" stroke="rgb(-51%, 30%, 37%)" stroke-width="1.0" fill-opacity="0.0" stroke-opacity="1.0"><path d="M 402.8200,-536.33 C 392.11,-553.81 377.21,-581.31 371.14,-607.6 C 369.02,-616.78 367.76,-641.2 371.14,-650.0 C 378.6000,-669.4 394.58,-686.67 408.21,-698.8"/></g><g fill="rgb(0%, 0%, 0%)" stroke="rgb(-51%, 30%, 37%)" stroke-width="1.0" fill-opacity="0.0" stroke-opacity="1.0"><path d="M 387.6500,-500.74 C 379.15,-495.55 369.6500,-489.97 360.74,-485.22 C 353.91,-481.59 346.55,-477.9400 339.36,-474.53"/></g><g fill="rgb(0%, 0%, 0%)" stroke="rgb(-51%, 30%, 37%)" stroke-width="1.0" fill-opacity="0.0" stroke-opacity="1.0"><path d="M 433.24,-536.15 C 455.81,-557.93 495.64,-595.0900 532.77,-623.36 C 544.27,-632.11 557.55,-640.91 569.21,-648.24"/></g><g fill="rgb(0%, 0%, 0%)" stroke="rgb(-51%, 30%, 37%)" stroke-width="1.0" fill-opacity="0.0" stroke-opacity="1.0"><path d="M 441.9300,-515.64 C 459.87,-512.94 483.19,-507.25 500.51,-495.21 C 501.54,-494.49 501.25,-493.79 502.14,-492.91 C 529.58,-465.86 567.12,-441.86 592.26,-427.23"/></g><g fill="rgb(0%, 0%, 0%)" stroke="rgb(-51%, 30%, 37%)" stroke-width="1.0" fill-opacity="0.0" stroke-opacity="1.0"><path d="M 397.35,-499.78 C 396.48,-498.3 395.72,-496.7700 395.1100,-495.21 C 392.69,-489.0 396.7000,-440.96 393.27,-435.24 C 386.55,-424.05 320.19,-388.58 277.62,-366.63"/></g><g fill="rgb(0%, 0%, 0%)" stroke="rgb(-51%, 30%, 37%)" stroke-width="1.0" fill-opacity="0.0" stroke-opacity="1.0"><path d="M 397.35,-499.78 C 396.48,-498.3 395.72,-496.7700 395.1100,-495.21 C 393.9,-492.1000 395.51,-437.72 393.27,-435.24 C 362.12,-400.71 306.2200,-399.14 266.28,-403.4600"/></g><g fill="rgb(0%, 0%, 0%)" stroke="rgb(-51%, 30%, 37%)" stroke-width="1.0" fill-opacity="0.0" stroke-opacity="1.0"><path d="M 419.12,-536.34 C 423.94,-556.86 431.72,-589.95 436.54,-610.48"/></g><g fill="rgb(0%, 0%, 0%)" stroke="rgb(-51%, 30%, 37%)" stroke-width="1.0" fill-opacity="0.0" stroke-opacity="1.0"><path d="M 397.35,-499.78 C 396.48,-498.3 395.72,-496.7700 395.1100,-495.21 C 392.69,-489.0 393.92,-441.88 393.27,-435.24 C 391.37,-415.58 387.5,-393.28 384.6000,-378.08"/></g><g fill="rgb(0%, 0%, 0%)" stroke="rgb(-51%, 30%, 37%)" stroke-width="1.0" fill-opacity="0.0" stroke-opacity="1.0"><path d="M 885.87,-540.8600 C 877.16,-525.94 863.2000,-504.98 846.61,-490.76 C 820.1300,-468.0500 798.05,-482.76 776.62,-455.24 C 766.7200,-442.53 775.7700,-434.32 768.6300,-419.88 C 757.97,-398.2900 739.82,-377.6 725.88,-363.53"/></g><g fill="rgb(0%, 0%, 0%)" stroke="rgb(-51%, 30%, 37%)" stroke-width="1.0" fill-opacity="0.0" stroke-opacity="1.0"><path d="M 922.99,-561.47 C 966.8000,-565.55 1052.1,-573.49 1095.7,-577.55"/></g><g fill="rgb(0%, 0%, 0%)" stroke="rgb(-51%, 30%, 37%)" stroke-width="1.0" fill-opacity="0.0" stroke-opacity="1.0"><path d="M 868.31,-544.06 C 860.12,-539.6 851.06,-534.66 842.5400,-530.0100"/></g><g fill="rgb(0%, 0%, 0%)" stroke="rgb(-51%, 30%, 37%)" stroke-width="1.0" fill-opacity="0.0" stroke-opacity="1.0"><path d="M 890.7000,-576.96 C 877.99,-624.06 843.91,-750.36 831.2000,-797.44"/></g><g fill="rgb(0%, 0%, 0%)" stroke="rgb(-51%, 30%, 37%)" stroke-width="1.0" fill-opacity="0.0" stroke-opacity="1.0"><path d="M 868.5200,-560.94 C 840.7100,-561.46 797.94,-557.69 772.21,-533.16 C 765.78,-527.03 773.08,-520.46 767.1900,-513.81 C 750.91,-495.4200 723.95,-486.38 703.64,-482.0"/></g><g fill="rgb(0%, 0%, 0%)" stroke="rgb(-51%, 30%, 37%)" stroke-width="1.0" fill-opacity="0.0" stroke-opacity="1.0"><path d="M 710.07,-632.09 C 702.55,-649.52 691.31,-675.6 683.8000,-693.01"/></g><g fill="rgb(0%, 0%, 0%)" stroke="rgb(-51%, 30%, 37%)" stroke-width="1.0" fill-opacity="0.0" stroke-opacity="1.0"><path d="M 690.92,-597.69 C 676.16,-588.09 658.2100,-574.94 644.74,-560.41 C 631.61,-546.24 620.4100,-527.19 613.17,-513.33"/></g><g fill="rgb(0%, 0%, 0%)" stroke="rgb(-51%, 30%, 37%)" stroke-width="1.0" fill-opacity="0.0" stroke-opacity="1.0"><path d="M 693.22,-595.57 C 664.0300,-574.25 618.3500,-541.24 609.44,-536.92 C 593.62,-529.24 574.69,-523.59 559.55,-519.8400"/></g><g fill="rgb(0%, 0%, 0%)" stroke="rgb(-51%, 30%, 37%)" stroke-width="1.0" fill-opacity="0.0" stroke-opacity="1.0"><path d="M 745.34,-605.3 C 778.8100,-594.97 835.1200,-577.58 868.47,-567.29"/></g><g fill="rgb(0%, 0%, 0%)" stroke="rgb(-51%, 30%, 37%)" stroke-width="1.0" fill-opacity="0.0" stroke-opacity="1.0"><path d="M 733.49,-631.79 C 738.47,-637.19 744.17,-642.97 749.81,-647.84 C 799.98,-691.21 865.09,-733.41 902.61,-756.54"/></g><g fill="rgb(0%, 0%, 0%)" stroke="rgb(-51%, 30%, 37%)" stroke-width="1.0" fill-opacity="0.0" stroke-opacity="1.0"><path d="M 734.32,-595.55 C 750.97,-577.02 776.61,-548.47 793.2,-530.0"/></g><g fill="rgb(0%, 0%, 0%)" stroke="rgb(-51%, 30%, 37%)" stroke-width="1.0" fill-opacity="0.0" stroke-opacity="1.0"><path d="M 690.97,-615.6 C 656.4200,-618.6500 595.2100,-626.4 546.21,-645.1 C 539.66,-647.6 533.01,-651.06 526.89,-654.69"/></g><g fill="rgb(0%, 0%, 0%)" stroke="rgb(-51%, 30%, 37%)" stroke-width="1.0" fill-opacity="0.0" stroke-opacity="1.0"><path d="M 713.5500,-595.74 C 711.01,-584.46 708.0800,-569.58 706.7900,-556.21 C 705.89,-546.83 704.87,-523.04 706.7900,-513.81 C 710.86,-494.26 720.4700,-473.53 728.0400,-459.22"/></g><g fill="rgb(0%, 0%, 0%)" stroke="rgb(-51%, 30%, 37%)" stroke-width="1.0" fill-opacity="0.0" stroke-opacity="1.0"><path d="M 690.82,-601.94 C 674.22,-593.12 654.38,-579.32 644.74,-560.41 C 640.37,-551.85 648.9600,-482.51 644.6,-473.95 C 630.77,-446.79 612.43,-453.27 589.2,-433.54 C 581.21,-426.75 572.88,-418.72 565.86,-411.65"/></g><g fill="rgb(0%, 0%, 0%)" stroke="rgb(-51%, 30%, 37%)" stroke-width="1.0" fill-opacity="0.0" stroke-opacity="1.0"><path d="M 713.76,-595.71 C 711.29,-584.43 708.37,-569.55 706.7900,-556.21 C 705.8,-547.77 707.9200,-526.04 705.14,-518.01 C 702.45,-510.25 697.7500,-502.69 692.91,-496.27"/></g><g fill="rgb(0%, 0%, 0%)" stroke="rgb(-51%, 30%, 37%)" stroke-width="1.0" fill-opacity="0.0" stroke-opacity="1.0"><path d="M 744.99,-617.61 C 747.5800,-617.98 750.2600,-618.37 753.0,-618.76"/></g><g fill="rgb(0%, 0%, 0%)" stroke="rgb(-51%, 30%, 37%)" stroke-width="1.0" fill-opacity="0.0" stroke-opacity="1.0"><path d="M 724.63,-631.77 C 734.8400,-659.49 754.31,-712.28 764.58,-740.13"/></g><g fill="rgb(0%, 0%, 0%)" stroke="rgb(-51%, 30%, 37%)" stroke-width="1.0" fill-opacity="0.0" stroke-opacity="1.0"><path d="M 723.1400,-631.78 C 729.04,-656.1 735.9300,-700.06 719.63,-732.48 C 716.5000,-738.68 711.66,-744.0500 706.26,-748.56"/></g><g fill="rgb(0%, 0%, 0%)" stroke="rgb(-51%, 30%, 37%)" stroke-width="1.0" fill-opacity="0.0" stroke-opacity="1.0"><path d="M 738.77,-595.64 C 749.22,-585.2400 760.9700,-571.27 767.1900,-556.21 C 778.3400,-529.25 759.0700,-516.81 772.21,-490.76 C 780.14,-475.03 794.5300,-461.83 807.81,-452.14"/></g><g fill="rgb(0%, 0%, 0%)" stroke="rgb(-51%, 30%, 37%)" stroke-width="1.0" fill-opacity="0.0" stroke-opacity="1.0"><path d="M 647.84,-557.08 C 635.05,-565.51 619.81,-575.56 606.9700,-584.02"/></g><g fill="rgb(0%, 0%, 0%)" stroke="rgb(-51%, 30%, 37%)" stroke-width="1.0" fill-opacity="0.0" stroke-opacity="1.0"><path d="M 522.99,-360.45 C 521.1,-364.24 519.43,-368.31 518.42,-372.3300 C 513.8200,-390.61 513.6300,-396.51 518.42,-414.73 C 528.56,-453.32 551.0400,-454.71 562.54,-492.91 C 565.55,-502.9100 562.04,-506.13 564.2,-516.35 C 565.86,-524.19 568.65,-532.56 571.38,-539.72"/></g><g fill="rgb(0%, 0%, 0%)" stroke="rgb(-51%, 30%, 37%)" stroke-width="1.0" fill-opacity="0.0" stroke-opacity="1.0"><path d="M 558.96,-360.28 C 562.56,-362.77 566.25,-365.23 569.82,-367.46 C 573.68,-369.87 576.1700,-368.63 578.82,-372.3300 C 594.88,-394.77 583.5900,-406.52 589.2,-433.54 C 592.2500,-448.2100 596.35,-464.68 599.5200,-476.9"/></g><g fill="rgb(0%, 0%, 0%)" stroke="rgb(-51%, 30%, 37%)" stroke-width="1.0" fill-opacity="0.0" stroke-opacity="1.0"><path d="M 563.83,-326.79 C 565.83,-326.11 567.83,-325.52 569.82,-325.06 C 605.94,-316.7100 616.77,-318.32 653.22,-325.06 C 660.52,-326.41 668.12,-328.72 675.2,-331.3100"/></g><g fill="rgb(0%, 0%, 0%)" stroke="rgb(-51%, 30%, 37%)" stroke-width="1.0" fill-opacity="0.0" stroke-opacity="1.0"><path d="M 673.14,-139.59 C 710.0200,-120.04 773.57,-86.361 812.7,-65.623"/></g><g fill="rgb(0%, 0%, 0%)" stroke="rgb(-51%, 30%, 37%)" stroke-width="1.0" fill-opacity="0.0" stroke-opacity="1.0"><path d="M 506.7400,-148.09 C 523.95,-168.23 549.9500,-202.5200 561.32,-237.4000 C 562.63,-241.42 560.75,-271.89 563.06,-275.43 C 569.73,-285.64 635.01,-314.9 675.16,-332.19"/></g><g fill="rgb(0%, 0%, 0%)" stroke="rgb(-51%, 30%, 37%)" stroke-width="1.0" fill-opacity="0.0" stroke-opacity="1.0"><path d="M 479.8400,-148.12 C 459.58,-183.6600 414.91,-262.03 394.6200,-297.63"/></g><g fill="rgb(0%, 0%, 0%)" stroke="rgb(-51%, 30%, 37%)" stroke-width="1.0" fill-opacity="0.0" stroke-opacity="1.0"><path d="M 796.99,-493.77 C 790.12,-482.98 781.93,-468.8 776.62,-455.24 C 770.74,-440.2400 775.7700,-434.32 768.6300,-419.88 C 757.97,-398.2900 739.82,-377.6 725.88,-363.53"/></g><g fill="rgb(0%, 0%, 0%)" stroke="rgb(-51%, 30%, 37%)" stroke-width="1.0" fill-opacity="0.0" stroke-opacity="1.0"><path d="M 796.03,-530.31 C 788.5200,-539.37 778.4100,-549.73 767.1900,-556.21 C 722.1800,-582.26 662.8600,-593.61 623.0500,-598.51"/></g><g fill="rgb(0%, 0%, 0%)" stroke="rgb(-51%, 30%, 37%)" stroke-width="1.0" fill-opacity="0.0" stroke-opacity="1.0"><path d="M 460.37,-671.21 C 417.4600,-667.37 350.35,-654.9600 309.1,-615.66 C 294.93,-602.1600 283.73,-582.67 276.76,-568.51"/></g><g fill="rgb(0%, 0%, 0%)" stroke="rgb(-51%, 30%, 37%)" stroke-width="1.0" fill-opacity="0.0" stroke-opacity="1.0"><path d="M 502.16,-690.8400 C 502.61,-704.1 502.2100,-722.46 498.12,-738.02 C 494.01,-753.66 485.5500,-769.89 478.4200,-781.8100"/></g><g fill="rgb(0%, 0%, 0%)" stroke="rgb(-51%, 30%, 37%)" stroke-width="1.0" fill-opacity="0.0" stroke-opacity="1.0"><path d="M 505.6700,-691.06 C 508.28,-705.51 509.0700,-725.32 498.12,-738.02 C 480.39,-758.59 450.2400,-764.2 424.77,-764.71"/></g><g fill="rgb(0%, 0%, 0%)" stroke="rgb(-51%, 30%, 37%)" stroke-width="1.0" fill-opacity="0.0" stroke-opacity="1.0"><path d="M 507.2200,-690.92 C 516.3500,-717.0 533.0900,-764.8500 542.23,-790.97"/></g><g fill="rgb(0%, 0%, 0%)" stroke="rgb(-51%, 30%, 37%)" stroke-width="1.0" fill-opacity="0.0" stroke-opacity="1.0"><path d="M 460.1700,-674.64 C 432.35,-677.06 395.16,-682.68 364.72,-695.62 C 346.7700,-703.26 329.1600,-716.59 316.4600,-727.5600"/></g><g fill="rgb(0%, 0%, 0%)" stroke="rgb(-51%, 30%, 37%)" stroke-width="1.0" fill-opacity="0.0" stroke-opacity="1.0"><path d="M 521.12,-654.62 C 532.8600,-644.07 547.5800,-630.83 559.3,-620.29"/></g><g fill="rgb(0%, 0%, 0%)" stroke="rgb(-51%, 30%, 37%)" stroke-width="1.0" fill-opacity="0.0" stroke-opacity="1.0"><path d="M 460.1900,-668.46 C 434.29,-665.0 400.26,-659.1900 371.14,-650.0 C 312.37,-631.4400 248.33,-598.71 211.0700,-578.31"/></g><g fill="rgb(0%, 0%, 0%)" stroke="rgb(-51%, 30%, 37%)" stroke-width="1.0" fill-opacity="0.0" stroke-opacity="1.0"><path d="M 740.03,-247.21 C 711.7,-248.66 668.86,-250.8400 638.48,-252.39"/></g><g fill="rgb(0%, 0%, 0%)" stroke="rgb(-51%, 30%, 37%)" stroke-width="1.0" fill-opacity="0.0" stroke-opacity="1.0"><path d="M 757.9800,-264.0000 C 746.6000,-282.0 729.3200,-309.31 717.97,-327.26"/></g><g fill="rgb(0%, 0%, 0%)" stroke="rgb(-51%, 30%, 37%)" stroke-width="1.0" fill-opacity="0.0" stroke-opacity="1.0"><path d="M 767.0300,-263.88 C 763.2700,-288.03 755.06,-331.71 740.6700,-366.64 C 730.11,-392.26 715.99,-393.28 708.2300,-419.88 C 703.29,-436.81 712.59,-482.6300 706.62,-499.23 C 703.8000,-507.06 698.78,-514.5300 693.56,-520.85"/></g><g fill="rgb(0%, 0%, 0%)" stroke="rgb(-51%, 30%, 37%)" stroke-width="1.0" fill-opacity="0.0" stroke-opacity="1.0"><path d="M 799.1100,-245.01 C 830.1200,-244.28 878.6700,-243.14 910.29,-242.4"/></g><g fill="rgb(0%, 0%, 0%)" stroke="rgb(-51%, 30%, 37%)" stroke-width="1.0" fill-opacity="0.0" stroke-opacity="1.0"><path d="M 470.3200,-321.0 C 481.4,-343.31 500.8500,-382.01 518.42,-414.73 C 537.29,-449.88 551.0400,-454.71 562.54,-492.91 C 565.55,-502.9100 562.04,-506.13 564.2,-516.35 C 565.86,-524.19 568.65,-532.56 571.38,-539.72"/></g><g fill="rgb(0%, 0%, 0%)" stroke="rgb(-51%, 30%, 37%)" stroke-width="1.0" fill-opacity="0.0" stroke-opacity="1.0"><path d="M 493.6300,-298.06 C 513.6500,-294.5600 539.5800,-288.77 561.32,-279.8 C 566.28,-277.75 571.32,-275.13 576.0900,-272.35"/></g><g fill="rgb(0%, 0%, 0%)" stroke="rgb(-51%, 30%, 37%)" stroke-width="1.0" fill-opacity="0.0" stroke-opacity="1.0"><path d="M 468.2100,-320.82 C 477.5700,-343.96 495.6900,-384.53 518.42,-414.73 C 536.49,-438.74 562.16,-461.69 580.74,-476.88"/></g><g fill="rgb(0%, 0%, 0%)" stroke="rgb(-51%, 30%, 37%)" stroke-width="1.0" fill-opacity="0.0" stroke-opacity="1.0"><path d="M 455.61,-284.61 C 440.04,-234.85 396.6,-95.922 381.0100,-46.081"/></g><g fill="rgb(0%, 0%, 0%)" stroke="rgb(-51%, 30%, 37%)" stroke-width="1.0" fill-opacity="0.0" stroke-opacity="1.0"><path d="M 487.8000,-284.47 C 491.54,-281.91 495.39,-279.28 499.13,-276.72"/></g><g fill="rgb(0%, 0%, 0%)" stroke="rgb(-51%, 30%, 37%)" stroke-width="1.0" fill-opacity="0.0" stroke-opacity="1.0"><path d="M 459.83,-320.65 C 457.2500,-353.56 451.8000,-423.05 449.22,-455.97"/></g><g fill="rgb(0%, 0%, 0%)" stroke="rgb(-51%, 30%, 37%)" stroke-width="1.0" fill-opacity="0.0" stroke-opacity="1.0"><path d="M 470.92,-320.81 C 478.3800,-333.7000 489.56,-350.87 502.38,-363.47 C 507.99,-368.97 514.74,-374.03 521.3400,-378.37"/></g><g fill="rgb(0%, 0%, 0%)" stroke="rgb(-51%, 30%, 37%)" stroke-width="1.0" fill-opacity="0.0" stroke-opacity="1.0"><path d="M 467.5,-320.84 C 476.7700,-348.82 493.7800,-404.22 500.51,-452.81 C 501.1400,-457.35 500.2700,-531.12 502.14,-535.31 C 511.3000,-555.9 530.4,-572.52 547.33,-584.03"/></g><g fill="rgb(0%, 0%, 0%)" stroke="rgb(-51%, 30%, 37%)" stroke-width="1.0" fill-opacity="0.0" stroke-opacity="1.0"><path d="M 441.6200,-320.9700 C 435.38,-326.42 428.3000,-332.23 421.43,-337.07 C 419.18,-338.65 416.8200,-340.21 414.4100,-341.74"/></g><g fill="rgb(0%, 0%, 0%)" stroke="rgb(-51%, 30%, 37%)" stroke-width="1.0" fill-opacity="0.0" stroke-opacity="1.0"><path d="M 398.1200,-488.85 C 393.37,-491.18 388.7800,-493.83 384.63,-496.85 C 370.6200,-507.03 375.25,-518.18 360.74,-527.62 C 344.33,-538.3 323.3,-543.98 305.49,-547.0100"/></g><g fill="rgb(0%, 0%, 0%)" stroke="rgb(-51%, 30%, 37%)" stroke-width="1.0" fill-opacity="0.0" stroke-opacity="1.0"><path d="M 463.0800,-492.1000 C 473.7400,-504.52 488.4600,-521.24 502.14,-535.31 C 522.06,-555.81 527.1500,-560.93 549.04,-579.32 C 550.86,-580.85 552.77,-582.4000 554.71,-583.93"/></g><g fill="rgb(0%, 0%, 0%)" stroke="rgb(-51%, 30%, 37%)" stroke-width="1.0" fill-opacity="0.0" stroke-opacity="1.0"><path d="M 397.9,-477.36 C 351.6100,-480.5 289.65,-484.76 288.3400,-485.22 C 253.39,-497.42 219.23,-523.92 198.68,-541.91"/></g><g fill="rgb(0%, 0%, 0%)" stroke="rgb(-51%, 30%, 37%)" stroke-width="1.0" fill-opacity="0.0" stroke-opacity="1.0"><path d="M 423.45,-455.93 C 414.15,-449.23 403.35,-441.69 393.27,-435.24 C 353.75,-409.96 306.62,-383.51 275.59,-366.58"/></g><g fill="rgb(0%, 0%, 0%)" stroke="rgb(-51%, 30%, 37%)" stroke-width="1.0" fill-opacity="0.0" stroke-opacity="1.0"><path d="M 447.0600,-492.01 C 446.51,-505.11 445.7400,-523.28 445.03,-539.25 C 443.92,-563.9700 442.58,-592.53 441.71,-610.6200"/></g><g fill="rgb(0%, 0%, 0%)" stroke="rgb(-51%, 30%, 37%)" stroke-width="1.0" fill-opacity="0.0" stroke-opacity="1.0"><path d="M 910.3500,-247.95 C 882.1900,-253.48 839.57,-261.48 802.25,-266.91 C 795.7800,-267.85 793.5600,-265.77 787.63,-268.52 C 759.1,-281.75 734.1800,-309.04 719.72,-327.3"/></g><g fill="rgb(0%, 0%, 0%)" stroke="rgb(-51%, 30%, 37%)" stroke-width="1.0" fill-opacity="0.0" stroke-opacity="1.0"><path d="M 178.9100,-610.29 C 209.88,-599.03 262.3400,-581.49 309.1,-573.26 C 397.0,-557.8 503.23,-556.95 552.16,-557.53"/></g><g fill="rgb(0%, 0%, 0%)" stroke="rgb(-51%, 30%, 37%)" stroke-width="1.0" fill-opacity="0.0" stroke-opacity="1.0"><path d="M 715.29,-423.02 C 699.85,-409.41 680.87,-389.27 672.2700,-366.64 C 665.57,-349.03 666.47,-342.1700 672.2700,-324.2400 C 672.78,-322.66 673.45,-321.1 674.22,-319.57"/></g><g fill="rgb(0%, 0%, 0%)" stroke="rgb(-51%, 30%, 37%)" stroke-width="1.0" fill-opacity="0.0" stroke-opacity="1.0"><path d="M 732.2700,-422.64 C 726.57,-405.59 718.16,-380.42 712.5000,-363.5"/></g><g fill="rgb(0%, 0%, 0%)" stroke="rgb(-51%, 30%, 37%)" stroke-width="1.0" fill-opacity="0.0" stroke-opacity="1.0"><path d="M 711.33,-423.47 C 694.18,-412.93 671.24,-399.93 649.6,-391.14 C 619.45,-378.89 610.8,-378.4 578.82,-372.3300 C 562.02,-369.14 517.0,-372.3500 502.38,-363.47 C 486.2500,-353.67 475.0200,-334.87 468.4200,-320.75"/></g><g fill="rgb(0%, 0%, 0%)" stroke="rgb(-51%, 30%, 37%)" stroke-width="1.0" fill-opacity="0.0" stroke-opacity="1.0"><path d="M 711.35,-444.15 C 662.53,-449.6800 559.08,-461.4000 497.31,-468.4"/></g><g fill="rgb(0%, 0%, 0%)" stroke="rgb(-51%, 30%, 37%)" stroke-width="1.0" fill-opacity="0.0" stroke-opacity="1.0"><path d="M 732.67,-459.27 C 727.7,-472.16 719.3000,-488.92 706.62,-499.23 C 684.3100,-517.3500 667.24,-500.1200 644.74,-518.01 C 620.12,-537.5700 630.2000,-555.7 609.44,-579.32 C 608.0600,-580.89 606.5500,-582.43 604.98,-583.91"/></g><g fill="rgb(0%, 0%, 0%)" stroke="rgb(-51%, 30%, 37%)" stroke-width="1.0" fill-opacity="0.0" stroke-opacity="1.0"><path d="M 711.4100,-457.1800 C 708.8,-458.73 706.15,-460.31 703.54,-461.87"/></g><g fill="rgb(0%, 0%, 0%)" stroke="rgb(-51%, 30%, 37%)" stroke-width="1.0" fill-opacity="0.0" stroke-opacity="1.0"><path d="M 765.59,-439.16 C 770.0700,-438.84 774.87,-438.5 779.7700,-438.15"/></g><g fill="rgb(0%, 0%, 0%)" stroke="rgb(-51%, 30%, 37%)" stroke-width="1.0" fill-opacity="0.0" stroke-opacity="1.0"><path d="M 551.56,-411.8 C 554.67,-431.7 559.54,-464.5 562.54,-492.91 C 563.63,-503.3 562.04,-506.13 564.2,-516.35 C 565.86,-524.19 568.65,-532.56 571.38,-539.72"/></g><g fill="rgb(0%, 0%, 0%)" stroke="rgb(-51%, 30%, 37%)" stroke-width="1.0" fill-opacity="0.0" stroke-opacity="1.0"><path d="M 575.88,-389.52 C 602.8200,-385.0700 641.63,-377.22 653.22,-367.46 C 669.2800,-353.9400 661.84,-342.46 672.2700,-324.2400 C 673.14,-322.71 674.1,-321.17 675.09,-319.63"/></g><g fill="rgb(0%, 0%, 0%)" stroke="rgb(-51%, 30%, 37%)" stroke-width="1.0" fill-opacity="0.0" stroke-opacity="1.0"><path d="M 561.38,-375.42 C 563.53,-371.62 565.48,-367.53 566.78,-363.47 C 572.03,-347.17 565.52,-341.63 569.82,-325.06 C 574.69,-306.3400 584.24,-286.43 591.73,-272.51"/></g><g fill="rgb(0%, 0%, 0%)" stroke="rgb(-51%, 30%, 37%)" stroke-width="1.0" fill-opacity="0.0" stroke-opacity="1.0"><path d="M 576.03,-387.8700 C 597.31,-383.1900 627.45,-375.95 653.22,-367.46 C 660.44,-365.08 668.0700,-362.17 675.2200,-359.26"/></g><g fill="rgb(0%, 0%, 0%)" stroke="rgb(-51%, 30%, 37%)" stroke-width="1.0" fill-opacity="0.0" stroke-opacity="1.0"><path d="M 521.33,-376.26 C 502.28,-364.67 476.0,-349.59 451.63,-338.69 C 441.03,-333.95 429.12,-329.62 418.3000,-326.03"/></g><g fill="rgb(0%, 0%, 0%)" stroke="rgb(-51%, 30%, 37%)" stroke-width="1.0" fill-opacity="0.0" stroke-opacity="1.0"><path d="M 521.29,-395.52 C 476.4400,-398.04 384.75,-400.0 310.23,-381.09 C 297.63,-377.9 284.57,-372.31 273.2900,-366.6500"/></g><g fill="rgb(0%, 0%, 0%)" stroke="rgb(-51%, 30%, 37%)" stroke-width="1.0" fill-opacity="0.0" stroke-opacity="1.0"><path d="M 729.33,-516.95 C 723.2600,-502.33 714.74,-481.15 708.2300,-462.28 C 707.4100,-459.89 707.43,-459.22 706.62,-456.83 C 692.88,-416.1900 680.0300,-408.83 672.2700,-366.64 C 668.86,-348.11 666.47,-342.1700 672.2700,-324.2400 C 672.78,-322.66 673.45,-321.1 674.22,-319.57"/></g><g fill="rgb(0%, 0%, 0%)" stroke="rgb(-51%, 30%, 37%)" stroke-width="1.0" fill-opacity="0.0" stroke-opacity="1.0"><path d="M 727.62,-516.74 C 720.7800,-502.36 712.06,-481.59 708.2300,-462.28 C 701.4000,-427.85 703.0,-386.6 704.75,-363.47"/></g><g fill="rgb(0%, 0%, 0%)" stroke="rgb(-51%, 30%, 37%)" stroke-width="1.0" fill-opacity="0.0" stroke-opacity="1.0"><path d="M 882.3900,-200.42 C 865.6600,-220.47 835.77,-251.91 802.25,-266.91 C 796.2800,-269.58 793.5600,-265.77 787.63,-268.52 C 759.1,-281.75 734.1800,-309.04 719.72,-327.3"/></g><g fill="rgb(0%, 0%, 0%)" stroke="rgb(-51%, 30%, 37%)" stroke-width="1.0" fill-opacity="0.0" stroke-opacity="1.0"><path d="M 680.53,-459.87 C 686.26,-434.62 696.56,-389.16 702.31,-363.81"/></g><g fill="rgb(0%, 0%, 0%)" stroke="rgb(-51%, 30%, 37%)" stroke-width="1.0" fill-opacity="0.0" stroke-opacity="1.0"><path d="M 703.6500,-484.9800 C 724.32,-490.25 752.88,-497.54 775.1100,-503.21"/></g><g fill="rgb(0%, 0%, 0%)" stroke="rgb(-51%, 30%, 37%)" stroke-width="1.0" fill-opacity="0.0" stroke-opacity="1.0"><path d="M 649.37,-471.38 C 616.31,-462.3500 559.68,-443.91 518.42,-414.73 C 481.69,-388.76 489.05,-363.65 451.63,-338.69 C 441.6600,-332.04 429.57,-327.16 418.39,-323.65"/></g><g fill="rgb(0%, 0%, 0%)" stroke="rgb(-51%, 30%, 37%)" stroke-width="1.0" fill-opacity="0.0" stroke-opacity="1.0"><path d="M 185.51,-541.98 C 190.99,-525.34 198.5800,-499.93 202.15,-477.18 C 202.51,-474.88 202.22,-436.88 203.87,-435.24 C 209.0500,-430.11 263.3400,-437.14 269.44,-433.1500 C 295.58,-416.08 287.92,-398.67 299.67,-369.76 C 305.17,-356.25 299.77,-348.86 310.23,-338.69 C 320.93,-328.29 336.26,-322.62 350.2,-319.5300"/></g><g fill="rgb(0%, 0%, 0%)" stroke="rgb(-51%, 30%, 37%)" stroke-width="1.0" fill-opacity="0.0" stroke-opacity="1.0"><path d="M 388.51,-260.75 C 400.6800,-269.47 413.5800,-281.02 421.43,-294.67 C 427.9700,-306.05 418.62,-313.01 426.04,-323.83 C 433.47,-334.68 441.47,-330.34 451.63,-338.69 C 486.37,-367.26 487.11,-382.43 518.42,-414.73 C 539.9,-436.8900 565.96,-460.89 583.72,-476.85"/></g><g fill="rgb(0%, 0%, 0%)" stroke="rgb(-51%, 30%, 37%)" stroke-width="1.0" fill-opacity="0.0" stroke-opacity="1.0"><path d="M 393.18,-245.95 C 422.67,-248.76 464.22,-252.7300 492.88,-255.47"/></g><g fill="rgb(0%, 0%, 0%)" stroke="rgb(-51%, 30%, 37%)" stroke-width="1.0" fill-opacity="0.0" stroke-opacity="1.0"><path d="M 349.64,-260.77 C 342.29,-280.7 334.22,-313.02 347.03,-337.07 C 347.89,-338.7 348.9300,-340.23 350.1,-341.67"/></g><g fill="rgb(0%, 0%, 0%)" stroke="rgb(-51%, 30%, 37%)" stroke-width="1.0" fill-opacity="0.0" stroke-opacity="1.0"><path d="M 246.73,-106.92 C 256.27,-140.47 280.0700,-213.39 318.83,-263.74 C 328.92,-276.86 343.0,-288.63 355.5,-297.65"/></g><g fill="rgb(0%, 0%, 0%)" stroke="rgb(-51%, 30%, 37%)" stroke-width="1.0" fill-opacity="0.0" stroke-opacity="1.0"><path d="M 433.2300,-698.55 C 435.8,-683.25 442.0500,-662.25 457.19,-651.62 C 462.04,-648.21 505.8000,-653.56 510.5400,-650.0 C 536.31,-630.62 511.6900,-605.35 532.77,-580.96 C 537.94,-574.97 545.05,-570.4 552.15,-566.98"/></g><g fill="rgb(0%, 0%, 0%)" stroke="rgb(-51%, 30%, 37%)" stroke-width="1.0" fill-opacity="0.0" stroke-opacity="1.0"><path d="M 433.2300,-698.55 C 435.8,-683.25 442.0500,-662.25 457.19,-651.62 C 462.04,-648.21 505.8000,-653.56 510.5400,-650.0 C 552.97,-618.09 507.35,-569.79 549.04,-536.92 C 553.78,-533.18 557.08,-537.89 562.54,-535.31 C 573.1000,-530.32 582.69,-521.6000 590.01,-513.57"/></g><g fill="rgb(0%, 0%, 0%)" stroke="rgb(-51%, 30%, 37%)" stroke-width="1.0" fill-opacity="0.0" stroke-opacity="1.0"><path d="M 433.2300,-698.55 C 435.8,-683.25 442.0500,-662.25 457.19,-651.62 C 462.04,-648.21 504.9100,-651.86 510.5400,-650.0 C 529.08,-643.89 547.1,-631.06 560.06,-620.23"/></g><g fill="rgb(0%, 0%, 0%)" stroke="rgb(-51%, 30%, 37%)" stroke-width="1.0" fill-opacity="0.0" stroke-opacity="1.0"><path d="M 224.31,-438.43 C 216.86,-437.03 209.3700,-435.77 202.15,-434.78 C 195.07,-433.81 176.59,-436.0000 170.04,-433.1500 C 114.77,-409.1200 69.058,-351.46 48.189,-321.72"/></g><g fill="rgb(0%, 0%, 0%)" stroke="rgb(-51%, 30%, 37%)" stroke-width="1.0" fill-opacity="0.0" stroke-opacity="1.0"><path d="M 288.78,-474.6100 C 281.65,-490.6 275.3000,-513.49 288.3400,-527.62 C 291.38,-530.92 305.42,-525.9500 308.46,-529.25 C 321.23,-543.1 309.0600,-552.81 308.46,-571.65 C 306.65,-628.51 301.53,-695.66 298.93,-727.32"/></g><g fill="rgb(0%, 0%, 0%)" stroke="rgb(-51%, 30%, 37%)" stroke-width="1.0" fill-opacity="0.0" stroke-opacity="1.0"><path d="M 390.2900,-452.9 C 391.91,-452.87 393.5200,-452.84 395.1100,-452.81 C 441.9500,-451.92 453.7800,-449.47 500.51,-452.81 C 553.44,-456.58 614.65,-466.67 649.13,-472.88"/></g><g fill="rgb(0%, 0%, 0%)" stroke="rgb(-51%, 30%, 37%)" stroke-width="1.0" fill-opacity="0.0" stroke-opacity="1.0"><path d="M 350.2,-474.6200 C 354.22,-477.64 357.8400,-481.15 360.74,-485.22 C 383.53,-517.27 367.13,-534.01 369.5,-573.26 C 369.75,-577.52 369.5700,-646.04 371.14,-650.0 C 378.81,-669.31 394.7800,-686.6 408.3500,-698.74"/></g><g fill="rgb(0%, 0%, 0%)" stroke="rgb(-51%, 30%, 37%)" stroke-width="1.0" fill-opacity="0.0" stroke-opacity="1.0"><path d="M 314.06,-438.28 C 328.7900,-421.02 350.8100,-395.21 365.5100,-377.97"/></g><g fill="rgb(0%, 0%, 0%)" stroke="rgb(-51%, 30%, 37%)" stroke-width="1.0" fill-opacity="0.0" stroke-opacity="1.0"><path d="M 630.09,-684.34 C 635.08,-687.27 640.25,-690.3100 645.24,-693.24"/></g><g fill="rgb(0%, 0%, 0%)" stroke="rgb(-51%, 30%, 37%)" stroke-width="1.0" fill-opacity="0.0" stroke-opacity="1.0"><path d="M 613.44,-648.19 C 625.6,-630.09 639.34,-602.02 626.17,-580.96 C 621.65,-573.74 614.13,-568.74 606.41,-565.31"/></g><g fill="rgb(0%, 0%, 0%)" stroke="rgb(-51%, 30%, 37%)" stroke-width="1.0" fill-opacity="0.0" stroke-opacity="1.0"><path d="M 581.4900,-684.32 C 556.14,-709.83 510.0400,-756.19 484.6000,-781.7700"/></g><g fill="rgb(0%, 0%, 0%)" stroke="rgb(-51%, 30%, 37%)" stroke-width="1.0" fill-opacity="0.0" stroke-opacity="1.0"><path d="M 613.8500,-648.15 C 618.77,-640.88 623.66,-632.14 626.17,-623.36 C 637.16,-584.94 622.5500,-538.36 612.48,-513.27"/></g><g fill="rgb(0%, 0%, 0%)" stroke="rgb(-51%, 30%, 37%)" stroke-width="1.0" fill-opacity="0.0" stroke-opacity="1.0"><path d="M 579.27,-684.55 C 559.89,-701.09 529.04,-724.83 498.12,-738.02 C 474.97,-747.9 447.46,-753.5300 424.76,-756.73"/></g><g fill="rgb(0%, 0%, 0%)" stroke="rgb(-51%, 30%, 37%)" stroke-width="1.0" fill-opacity="0.0" stroke-opacity="1.0"><path d="M 592.98,-684.39 C 583.26,-711.72 564.93,-763.25 555.14,-790.75"/></g><g fill="rgb(0%, 0%, 0%)" stroke="rgb(-51%, 30%, 37%)" stroke-width="1.0" fill-opacity="0.0" stroke-opacity="1.0"><path d="M 570.69,-648.19 C 558.87,-640.63 545.08,-631.69 532.77,-623.36 C 522.74,-616.57 521.93,-611.71 510.5400,-607.6 C 462.0300,-590.07 400.8800,-590.24 366.3300,-592.18"/></g><g fill="rgb(0%, 0%, 0%)" stroke="rgb(-51%, 30%, 37%)" stroke-width="1.0" fill-opacity="0.0" stroke-opacity="1.0"><path d="M 570.69,-648.19 C 558.87,-640.63 545.08,-631.69 532.77,-623.36 C 522.74,-616.57 520.8200,-614.0 510.5400,-607.6 C 456.49,-573.9400 440.5500,-569.71 384.63,-539.25 C 375.8600,-534.48 366.3700,-529.3 357.5900,-524.5000"/></g><g fill="rgb(0%, 0%, 0%)" stroke="rgb(-51%, 30%, 37%)" stroke-width="1.0" fill-opacity="0.0" stroke-opacity="1.0"><path d="M 611.0,-647.99 C 615.76,-640.4 621.28,-631.49 626.17,-623.36 C 639.74,-600.78 654.88,-574.47 664.64,-557.36"/></g><g fill="rgb(0%, 0%, 0%)" stroke="rgb(-51%, 30%, 37%)" stroke-width="1.0" fill-opacity="0.0" stroke-opacity="1.0"><path d="M 549.28,-669.62 C 546.72,-669.79 544.15,-669.96 541.6200,-670.13"/></g><g fill="rgb(0%, 0%, 0%)" stroke="rgb(-51%, 30%, 37%)" stroke-width="1.0" fill-opacity="0.0" stroke-opacity="1.0"><path d="M 564.5,-648.19 C 553.49,-641.39 541.8500,-632.96 532.77,-623.36 C 494.63,-583.06 467.0600,-522.48 454.84,-492.36"/></g><g fill="rgb(0%, 0%, 0%)" stroke="rgb(-51%, 30%, 37%)" stroke-width="1.0" fill-opacity="0.0" stroke-opacity="1.0"><path d="M 569.92,-684.3 C 561.98,-688.28 553.19,-691.93 544.5900,-694.02 C 525.1700,-698.74 383.6700,-689.27 364.72,-695.62 C 345.81,-701.96 327.86,-715.8300 315.25,-727.35"/></g><g fill="rgb(0%, 0%, 0%)" stroke="rgb(-51%, 30%, 37%)" stroke-width="1.0" fill-opacity="0.0" stroke-opacity="1.0"><path d="M 593.75,-648.09 C 591.03,-639.35 587.7900,-628.91 585.08,-620.19"/></g><g fill="rgb(0%, 0%, 0%)" stroke="rgb(-51%, 30%, 37%)" stroke-width="1.0" fill-opacity="0.0" stroke-opacity="1.0"><path d="M 549.24,-652.77 C 547.67,-652.38 546.1200,-651.99 544.5900,-651.62 C 532.5800,-648.69 519.76,-645.74 507.3600,-642.96"/></g><g fill="rgb(0%, 0%, 0%)" stroke="rgb(-51%, 30%, 37%)" stroke-width="1.0" fill-opacity="0.0" stroke-opacity="1.0"><path d="M 797.55,-307.81 C 778.01,-315.88 755.44,-325.2100 737.66,-332.55"/></g><g fill="rgb(0%, 0%, 0%)" stroke="rgb(-51%, 30%, 37%)" stroke-width="1.0" fill-opacity="0.0" stroke-opacity="1.0"><path d="M 828.22,-307.7600 C 812.3600,-330.8 786.5700,-372.52 776.62,-412.84 C 772.1,-431.14 771.7400,-437.04 776.62,-455.24 C 780.3600,-469.19 788.46,-483.26 795.67,-493.9"/></g><g fill="rgb(0%, 0%, 0%)" stroke="rgb(-51%, 30%, 37%)" stroke-width="1.0" fill-opacity="0.0" stroke-opacity="1.0"><path d="M 819.0800,-307.84 C 790.9200,-331.54 742.01,-375.32 708.2300,-419.88 C 698.78,-432.35 690.39,-447.98 684.6,-459.9"/></g><g fill="rgb(0%, 0%, 0%)" stroke="rgb(-51%, 30%, 37%)" stroke-width="1.0" fill-opacity="0.0" stroke-opacity="1.0"><path d="M 841.74,-271.52 C 842.75,-226.5400 845.35,-110.51 846.3500,-65.6550"/></g><g fill="rgb(0%, 0%, 0%)" stroke="rgb(-51%, 30%, 37%)" stroke-width="1.0" fill-opacity="0.0" stroke-opacity="1.0"><path d="M 779.14,-608.51 C 769.5200,-602.93 758.6000,-597.07 748.18,-592.54 C 704.02,-573.37 682.7900,-589.89 644.74,-560.41 C 628.95,-548.17 617.8100,-527.87 611.3,-513.1600"/></g><g fill="rgb(0%, 0%, 0%)" stroke="rgb(-51%, 30%, 37%)" stroke-width="1.0" fill-opacity="0.0" stroke-opacity="1.0"><path d="M 808.23,-608.47 C 808.49,-586.99 808.92,-551.48 809.19,-530.04"/></g><g fill="rgb(0%, 0%, 0%)" stroke="rgb(-51%, 30%, 37%)" stroke-width="1.0" fill-opacity="0.0" stroke-opacity="1.0"><path d="M 752.9400,-634.57 C 751.3400,-634.7100 749.7500,-634.83 748.18,-634.94 C 721.4000,-636.79 714.3300,-638.87 687.78,-634.94 C 666.0100,-631.72 642.56,-625.04 623.0600,-618.55"/></g><g fill="rgb(0%, 0%, 0%)" stroke="rgb(-51%, 30%, 37%)" stroke-width="1.0" fill-opacity="0.0" stroke-opacity="1.0"><path d="M 819.34,-608.26 C 845.8900,-565.21 911.8400,-458.26 938.2400,-415.44"/></g><g fill="rgb(0%, 0%, 0%)" stroke="rgb(-51%, 30%, 37%)" stroke-width="1.0" fill-opacity="0.0" stroke-opacity="1.0"><path d="M 935.8700,-415.5 C 926.34,-427.58 912.8800,-443.34 899.0200,-455.24 C 881.8400,-470.0 860.4800,-483.67 842.9300,-493.89"/></g><g fill="rgb(0%, 0%, 0%)" stroke="rgb(-51%, 30%, 37%)" stroke-width="1.0" fill-opacity="0.0" stroke-opacity="1.0"><path d="M 903.81,-384.04 C 867.2500,-371.13 817.3000,-347.95 787.63,-310.92 C 776.8300,-297.44 772.4700,-277.94 770.7200,-263.78"/></g><g fill="rgb(0%, 0%, 0%)" stroke="rgb(-51%, 30%, 37%)" stroke-width="1.0" fill-opacity="0.0" stroke-opacity="1.0"><path d="M 942.5500,-378.86 C 933.2300,-353.2 916.68,-305.12 907.2900,-262.86 C 902.57,-241.6400 899.62,-216.79 898.02,-200.36"/></g><g fill="rgb(0%, 0%, 0%)" stroke="rgb(-51%, 30%, 37%)" stroke-width="1.0" fill-opacity="0.0" stroke-opacity="1.0"><path d="M 938.9000,-415.5 C 930.0800,-428.9300 916.1900,-446.3400 899.0200,-455.24 C 835.22,-488.3300 747.3800,-485.5000 703.5700,-481.38"/></g><g fill="rgb(0%, 0%, 0%)" stroke="rgb(-51%, 30%, 37%)" stroke-width="1.0" fill-opacity="0.0" stroke-opacity="1.0"><path d="M 931.1000,-379.04 C 911.22,-359.26 879.6800,-327.87 859.76,-308.06"/></g><g fill="rgb(0%, 0%, 0%)" stroke="rgb(-51%, 30%, 37%)" stroke-width="1.0" fill-opacity="0.0" stroke-opacity="1.0"><path d="M 734.7,-740.3100 C 727.4500,-736.73 719.8400,-732.97 712.59,-729.39"/></g><g fill="rgb(0%, 0%, 0%)" stroke="rgb(-51%, 30%, 37%)" stroke-width="1.0" fill-opacity="0.0" stroke-opacity="1.0"><path d="M 742.27,-776.47 C 734.16,-780.8 725.1700,-784.98 716.42,-787.78 C 674.1700,-801.27 623.3700,-806.28 588.81,-808.12"/></g><g fill="rgb(0%, 0%, 0%)" stroke="rgb(-51%, 30%, 37%)" stroke-width="1.0" fill-opacity="0.0" stroke-opacity="1.0"><path d="M 821.55,-763.4600 C 846.75,-766.01 876.59,-769.0200 899.04,-771.29"/></g><g fill="rgb(0%, 0%, 0%)" stroke="rgb(-51%, 30%, 37%)" stroke-width="1.0" fill-opacity="0.0" stroke-opacity="1.0"><path d="M 766.8100,-740.14 C 761.66,-718.34 753.46,-680.68 749.81,-647.84 C 749.1300,-641.73 750.8000,-598.1 748.18,-592.54 C 737.76,-570.4 717.37,-578.28 706.7900,-556.21 C 703.12,-548.55 707.9200,-526.04 705.14,-518.01 C 702.45,-510.25 697.7500,-502.69 692.91,-496.27"/></g><g fill="rgb(0%, 0%, 0%)" stroke="rgb(-51%, 30%, 37%)" stroke-width="1.0" fill-opacity="0.0" stroke-opacity="1.0"><path d="M 644.67,-748.46 C 639.63,-743.9 635.1000,-738.55 632.23,-732.48 C 624.1800,-715.44 619.76,-704.21 632.23,-690.08 C 638.27,-683.2200 646.57,-694.35 652.6100,-687.5 C 665.0800,-673.3700 656.27,-663.59 652.6100,-645.1 C 646.62,-614.85 647.2900,-603.43 626.17,-580.96 C 620.71,-575.15 613.4600,-570.63 606.29,-567.21"/></g><g fill="rgb(0%, 0%, 0%)" stroke="rgb(-51%, 30%, 37%)" stroke-width="1.0" fill-opacity="0.0" stroke-opacity="1.0"><path d="M 644.67,-748.46 C 639.63,-743.9 635.1000,-738.55 632.23,-732.48 C 624.1800,-715.44 619.76,-704.21 632.23,-690.08 C 638.27,-683.2200 646.57,-694.35 652.6100,-687.5 C 665.0800,-673.3700 655.5300,-663.72 652.6100,-645.1 C 644.9,-595.93 623.7900,-540.89 612.23,-513.17"/></g><g fill="rgb(0%, 0%, 0%)" stroke="rgb(-51%, 30%, 37%)" stroke-width="1.0" fill-opacity="0.0" stroke-opacity="1.0"><path d="M 644.67,-748.46 C 639.63,-743.9 635.1000,-738.55 632.23,-732.48 C 624.1800,-715.44 619.76,-704.21 632.23,-690.08 C 638.27,-683.2200 646.57,-694.35 652.6100,-687.5 C 665.0800,-673.3700 661.98,-661.46 652.6100,-645.1 C 645.96,-633.47 634.7900,-624.69 623.16,-618.19"/></g><g fill="rgb(0%, 0%, 0%)" stroke="rgb(-51%, 30%, 37%)" stroke-width="1.0" fill-opacity="0.0" stroke-opacity="1.0"><path d="M 679.11,-784.79 C 692.45,-829.8100 726.8300,-945.91 740.1200,-990.8"/></g><g fill="rgb(0%, 0%, 0%)" stroke="rgb(-51%, 30%, 37%)" stroke-width="1.0" fill-opacity="0.0" stroke-opacity="1.0"><path d="M 633.98,-758.42 C 596.39,-750.7 539.33,-738.98 495.3400,-729.9500"/></g><g fill="rgb(0%, 0%, 0%)" stroke="rgb(-51%, 30%, 37%)" stroke-width="1.0" fill-opacity="0.0" stroke-opacity="1.0"><path d="M 634.56,-394.23 C 640.79,-386.3 647.7900,-376.72 653.22,-367.46 C 663.8400,-349.35 661.84,-342.46 672.2700,-324.2400 C 673.14,-322.71 674.1,-321.17 675.09,-319.63"/></g><g fill="rgb(0%, 0%, 0%)" stroke="rgb(-51%, 30%, 37%)" stroke-width="1.0" fill-opacity="0.0" stroke-opacity="1.0"><path d="M 637.25,-394.27 C 643.58,-386.65 649.94,-377.27 653.22,-367.46 C 659.2,-349.59 659.0,-342.99 653.22,-325.06 C 646.72,-304.87 632.09,-285.5800 620.16,-272.25"/></g><g fill="rgb(0%, 0%, 0%)" stroke="rgb(-51%, 30%, 37%)" stroke-width="1.0" fill-opacity="0.0" stroke-opacity="1.0"><path d="M 643.19,-394.06 C 655.58,-384.54 670.6700,-372.95 683.01,-363.47"/></g><g fill="rgb(0%, 0%, 0%)" stroke="rgb(-51%, 30%, 37%)" stroke-width="1.0" fill-opacity="0.0" stroke-opacity="1.0"><path d="M 603.0,-394.06 C 595.97,-386.8 587.41,-378.69 578.82,-372.3300 C 575.1600,-369.63 572.28,-371.29 569.82,-367.46 C 564.25,-358.76 570.0700,-330.8600 566.78,-321.07 C 561.28,-304.69 550.39,-288.47 541.19,-276.67"/></g><g fill="rgb(0%, 0%, 0%)" stroke="rgb(-51%, 30%, 37%)" stroke-width="1.0" fill-opacity="0.0" stroke-opacity="1.0"><path d="M 592.24,-405.12 C 586.94,-403.71 581.37,-402.23 576.06,-400.82"/></g><g fill="rgb(0%, 0%, 0%)" stroke="rgb(-51%, 30%, 37%)" stroke-width="1.0" fill-opacity="0.0" stroke-opacity="1.0"><path d="M 646.7,-419.91 C 666.04,-426.61 691.19,-438.27 706.62,-456.83 C 708.2300,-458.77 707.4100,-459.89 708.2300,-462.28 C 714.74,-481.15 723.2600,-502.33 729.33,-516.95"/></g><g fill="rgb(0%, 0%, 0%)" stroke="rgb(-51%, 30%, 37%)" stroke-width="1.0" fill-opacity="0.0" stroke-opacity="1.0"><path d="M 628.95,-430.36 C 634.7500,-442.35 641.59,-458.6400 644.6,-473.95 C 646.42,-483.2 646.9800,-507.23 644.6,-516.35 C 636.5300,-547.37 630.44,-555.1 609.44,-579.32 C 608.07,-580.9 606.57,-582.44 605.0,-583.93"/></g><g fill="rgb(0%, 0%, 0%)" stroke="rgb(-51%, 30%, 37%)" stroke-width="1.0" fill-opacity="0.0" stroke-opacity="1.0"><path d="M 605.55,-393.98 C 598.4700,-385.97 589.17,-377.29 578.82,-372.3300 C 547.98,-357.55 535.21,-373.08 502.38,-363.47 C 478.29,-356.42 474.84,-348.24 451.63,-338.69 C 441.0000,-334.32 429.2,-330.11 418.48,-326.53"/></g><g fill="rgb(0%, 0%, 0%)" stroke="rgb(-51%, 30%, 37%)" stroke-width="1.0" fill-opacity="0.0" stroke-opacity="1.0"><path d="M 277.0,-330.3700 C 319.4,-308.19 386.38,-272.56 396.23,-263.74 C 434.7,-229.27 465.96,-176.19 480.82,-148.38"/></g><g fill="rgb(0%, 0%, 0%)" stroke="rgb(-51%, 30%, 37%)" stroke-width="1.0" fill-opacity="0.0" stroke-opacity="1.0"><path d="M 220.27,-330.35 C 183.8700,-299.81 110.9300,-238.63 74.4970,-208.07"/></g><g fill="rgb(0%, 0%, 0%)" stroke="rgb(-51%, 30%, 37%)" stroke-width="1.0" fill-opacity="0.0" stroke-opacity="1.0"><path d="M 296.57,-336.01 C 314.59,-331.87 334.1100,-327.39 350.14,-323.7"/></g><g fill="rgb(0%, 0%, 0%)" stroke="rgb(-51%, 30%, 37%)" stroke-width="1.0" fill-opacity="0.0" stroke-opacity="1.0"><path d="M 266.47,-415.02 C 322.8300,-419.56 420.03,-430.13 500.51,-452.81 C 523.19,-459.2 547.65,-469.0100 567.12,-477.58"/></g><g fill="rgb(0%, 0%, 0%)" stroke="rgb(-51%, 30%, 37%)" stroke-width="1.0" fill-opacity="0.0" stroke-opacity="1.0"><path d="M 266.25,-394.86 C 278.47,-388.53 290.7100,-380.26 299.67,-369.76 C 309.14,-358.6600 299.77,-348.86 310.23,-338.69 C 320.93,-328.29 336.26,-322.62 350.2,-319.5300"/></g><g fill="rgb(0%, 0%, 0%)" stroke="rgb(-51%, 30%, 37%)" stroke-width="1.0" fill-opacity="0.0" stroke-opacity="1.0"><path d="M 226.17,-393.62 C 229.1500,-385.13 232.67,-375.08 235.64,-366.63"/></g><g fill="rgb(0%, 0%, 0%)" stroke="rgb(-51%, 30%, 37%)" stroke-width="1.0" fill-opacity="0.0" stroke-opacity="1.0"><path d="M 305.81,-823.09 C 292.88,-808.95 276.24,-788.21 267.19,-766.79 C 258.52,-746.27 269.9300,-737.0400 259.76,-717.23 C 238.56,-675.93 220.4000,-674.3 184.8400,-644.45 C 182.5700,-642.54 180.1500,-640.61 177.7,-638.73"/></g><g fill="rgb(0%, 0%, 0%)" stroke="rgb(-51%, 30%, 37%)" stroke-width="1.0" fill-opacity="0.0" stroke-opacity="1.0"><path d="M 368.2500,-823.2300 C 388.3100,-813.3600 411.16,-799.55 427.69,-782.06 C 428.8200,-780.86 428.2200,-779.9500 429.3500,-778.74 C 453.5400,-752.73 469.7600,-759.42 498.12,-738.02 C 520.83,-720.89 532.91,-719.96 544.5900,-694.02 C 546.8200,-689.06 544.3700,-650.2200 546.21,-645.1 C 549.48,-636.05 555.42,-627.4 561.3900,-620.26"/></g><g fill="rgb(0%, 0%, 0%)" stroke="rgb(-51%, 30%, 37%)" stroke-width="1.0" fill-opacity="0.0" stroke-opacity="1.0"><path d="M 324.6900,-823.08 C 325.9,-795.9300 328.43,-747.24 331.29,-739.66 C 346.5200,-699.2800 385.3000,-666.18 412.3700,-646.9700"/></g><g fill="rgb(0%, 0%, 0%)" stroke="rgb(-51%, 30%, 37%)" stroke-width="1.0" fill-opacity="0.0" stroke-opacity="1.0"><path d="M 507.72,-615.95 C 517.28,-614.11 526.89,-612.26 535.84,-610.54"/></g><g fill="rgb(0%, 0%, 0%)" stroke="rgb(-51%, 30%, 37%)" stroke-width="1.0" fill-opacity="0.0" stroke-opacity="1.0"><path d="M 448.5900,-365.2 C 516.28,-369.89 615.5900,-374.93 653.22,-367.46 C 660.58,-366.0 668.2,-363.5 675.2900,-360.7"/></g><g fill="rgb(0%, 0%, 0%)" stroke="rgb(-51%, 30%, 37%)" stroke-width="1.0" fill-opacity="0.0" stroke-opacity="1.0"><path d="M 448.52,-349.09 C 465.67,-343.74 483.01,-335.76 496.4400,-323.83 C 510.26,-311.5500 517.8800,-291.47 521.8300,-276.83"/></g><g fill="rgb(0%, 0%, 0%)" stroke="rgb(-51%, 30%, 37%)" stroke-width="1.0" fill-opacity="0.0" stroke-opacity="1.0"><path d="M 313.0800,-354.36 C 307.5700,-353.91 302.04,-353.4600 296.64,-353.0200"/></g><g fill="rgb(0%, 0%, 0%)" stroke="rgb(-51%, 30%, 37%)" stroke-width="1.0" fill-opacity="0.0" stroke-opacity="1.0"><path d="M 779.7400,-421.8700 C 744.9400,-412.01 701.85,-394.9800 672.2700,-366.64 C 657.59,-352.58 663.44,-342.6300 653.22,-325.06 C 642.34,-306.3300 627.7100,-286.43 616.9200,-272.5"/></g><g fill="rgb(0%, 0%, 0%)" stroke="rgb(-51%, 30%, 37%)" stroke-width="1.0" fill-opacity="0.0" stroke-opacity="1.0"><path d="M 831.23,-452.11 C 826.67,-464.61 820.6300,-481.18 816.0600,-493.71"/></g><g fill="rgb(0%, 0%, 0%)" stroke="rgb(-51%, 30%, 37%)" stroke-width="1.0" fill-opacity="0.0" stroke-opacity="1.0"><path d="M 797.73,-452.13 C 788.3200,-455.89 778.24,-459.5300 768.6300,-462.28 C 747.24,-468.39 722.3300,-472.47 703.8000,-474.95"/></g></g><g class="shapes"><g fill="rgb(2%, 73%, 80%)" stroke="rgb(-51%, 30%, 37%)" stroke-width="1.0" fill-opacity="0.2" stroke-opacity="1.0"><rect x="18.0" width="36.0" y="-321.29" height="36.0"/></g><g fill="rgb(2%, 73%, 80%)" stroke="rgb(-51%, 30%, 37%)" stroke-width="1.0" fill-opacity="0.2" stroke-opacity="1.0"><rect x="192.55996" width="64.00008000000003" y="-756.4300000000001" height="36.0"/></g><g fill="rgb(2%, 73%, 80%)" stroke="rgb(-51%, 30%, 37%)" stroke-width="1.0" fill-opacity="0.2" stroke-opacity="1.0"><rect x="635.43" width="81.0" y="-729.28" height="36.0"/></g><g fill="rgb(2%, 73%, 80%)" stroke="rgb(-51%, 30%, 37%)" stroke-width="1.0" fill-opacity="0.2" stroke-opacity="1.0"><rect x="552.24" width="54.0" y="-576.12" height="36.0"/></g><g fill="rgb(2%, 73%, 80%)" stroke="rgb(-51%, 30%, 37%)" stroke-width="1.0" fill-opacity="0.2" stroke-opacity="1.0"><rect x="127.63999999999999" width="54.0" y="-683.65" height="36.0"/></g><g fill="rgb(2%, 73%, 80%)" stroke="rgb(-51%, 30%, 37%)" stroke-width="1.0" fill-opacity="0.2" stroke-opacity="1.0"><rect x="232.25959999999998" width="73.00080000000003" y="-568.45" height="36.0"/></g><g fill="rgb(2%, 73%, 80%)" stroke="rgb(-51%, 30%, 37%)" stroke-width="1.0" fill-opacity="0.2" stroke-opacity="1.0"><rect x="661.74" width="54.0" y="-319.41" height="36.0"/></g><g fill="rgb(2%, 73%, 80%)" stroke="rgb(-51%, 30%, 37%)" stroke-width="1.0" fill-opacity="0.2" stroke-opacity="1.0"><rect x="584.26" width="36.0" y="-272.23" height="36.00000000000003"/></g><g fill="rgb(2%, 73%, 80%)" stroke="rgb(-51%, 30%, 37%)" stroke-width="1.0" fill-opacity="0.2" stroke-opacity="1.0"><rect x="432.55016" width="67.99968000000001" y="-817.94" height="36.0"/></g><g fill="rgb(2%, 73%, 80%)" stroke="rgb(-51%, 30%, 37%)" stroke-width="1.0" fill-opacity="0.2" stroke-opacity="1.0"><rect x="573.0216000000001" width="76.9967999999999" y="-364.26" height="36.0"/></g><g fill="rgb(2%, 73%, 80%)" stroke="rgb(-51%, 30%, 37%)" stroke-width="1.0" fill-opacity="0.2" stroke-opacity="1.0"><rect x="567.3992" width="74.00160000000005" y="-513.15" height="36.0"/></g><g fill="rgb(2%, 73%, 80%)" stroke="rgb(-51%, 30%, 37%)" stroke-width="1.0" fill-opacity="0.2" stroke-opacity="1.0"><rect x="334.49" width="90.0" y="-778.86" height="36.0"/></g><g fill="rgb(2%, 73%, 80%)" stroke="rgb(-51%, 30%, 37%)" stroke-width="1.0" fill-opacity="0.2" stroke-opacity="1.0"><rect x="675.47004" width="61.999919999999975" y="-363.44" height="36.0"/></g><g fill="rgb(2%, 73%, 80%)" stroke="rgb(-51%, 30%, 37%)" stroke-width="1.0" fill-opacity="0.2" stroke-opacity="1.0"><rect x="508.60040000000004" width="79.99919999999997" y="-827.1500000000001" height="36.0"/></g><g fill="rgb(2%, 73%, 80%)" stroke="rgb(-51%, 30%, 37%)" stroke-width="1.0" fill-opacity="0.2" stroke-opacity="1.0"><rect x="122.94839999999999" width="76.00319999999999" y="-473.98" height="36.0"/></g><g fill="rgb(2%, 73%, 80%)" stroke="rgb(-51%, 30%, 37%)" stroke-width="1.0" fill-opacity="0.2" stroke-opacity="1.0"><rect x="206.81984000000003" width="58.000320000000016" y="-809.57" height="36.0"/></g><g fill="rgb(2%, 73%, 80%)" stroke="rgb(-51%, 30%, 37%)" stroke-width="1.0" fill-opacity="0.2" stroke-opacity="1.0"><rect x="340.3600800000001" width="69.99983999999995" y="-45.995" height="35.99999999999999"/></g><g fill="rgb(2%, 73%, 80%)" stroke="rgb(-51%, 30%, 37%)" stroke-width="1.0" fill-opacity="0.2" stroke-opacity="1.0"><rect x="505.34000000000003" width="54.0" y="-532.11" height="36.0"/></g><g fill="rgb(2%, 73%, 80%)" stroke="rgb(-51%, 30%, 37%)" stroke-width="1.0" fill-opacity="0.2" stroke-opacity="1.0"><rect x="312.3" width="54.0" y="-612.46" height="36.0"/></g><g fill="rgb(2%, 73%, 80%)" stroke="rgb(-51%, 30%, 37%)" stroke-width="1.0" fill-opacity="0.2" stroke-opacity="1.0"><rect x="493.11992" width="65.00016000000005" y="-276.6" height="36.0"/></g><g fill="rgb(2%, 73%, 80%)" stroke="rgb(-51%, 30%, 37%)" stroke-width="1.0" fill-opacity="0.2" stroke-opacity="1.0"><rect x="291.53988000000004" width="66.00023999999996" y="-524.4200000000001" height="36.00000000000006"/></g><g fill="rgb(2%, 73%, 80%)" stroke="rgb(-51%, 30%, 37%)" stroke-width="1.0" fill-opacity="0.2" stroke-opacity="1.0"><rect x="387.83" width="54.0" y="-536.05" height="36.0"/></g><g fill="rgb(2%, 73%, 80%)" stroke="rgb(-51%, 30%, 37%)" stroke-width="1.0" fill-opacity="0.2" stroke-opacity="1.0"><rect x="1095.9" width="54.0" y="-598.08" height="36.0"/></g><g fill="rgb(2%, 73%, 80%)" stroke="rgb(-51%, 30%, 37%)" stroke-width="1.0" fill-opacity="0.2" stroke-opacity="1.0"><rect x="868.57" width="54.0" y="-576.92" height="36.0"/></g><g fill="rgb(2%, 73%, 80%)" stroke="rgb(-51%, 30%, 37%)" stroke-width="1.0" fill-opacity="0.2" stroke-opacity="1.0"><rect x="690.9800000000001" width="54.0" y="-631.74" height="36.0"/></g><g fill="rgb(2%, 73%, 80%)" stroke="rgb(-51%, 30%, 37%)" stroke-width="1.0" fill-opacity="0.2" stroke-opacity="1.0"><rect x="647.9400000000002" width="54.0" y="-557.21" height="36.0"/></g><g fill="rgb(2%, 73%, 80%)" stroke="rgb(-51%, 30%, 37%)" stroke-width="1.0" fill-opacity="0.2" stroke-opacity="1.0"><rect x="899.38984" width="67.0003200000001" y="-792.71" height="36.0"/></g><g fill="rgb(2%, 73%, 80%)" stroke="rgb(-51%, 30%, 37%)" stroke-width="1.0" fill-opacity="0.2" stroke-opacity="1.0"><rect x="505.57984000000016" width="58.000320000000045" y="-360.27" height="36.0"/></g><g fill="rgb(2%, 73%, 80%)" stroke="rgb(-51%, 30%, 37%)" stroke-width="1.0" fill-opacity="0.2" stroke-opacity="1.0"><rect x="615.1098400000001" width="58.0003200000001" y="-172.97" height="36.0"/></g><g fill="rgb(2%, 73%, 80%)" stroke="rgb(-51%, 30%, 37%)" stroke-width="1.0" fill-opacity="0.2" stroke-opacity="1.0"><rect x="463.19000000000005" width="54.0" y="-147.95" height="36.0"/></g><g fill="rgb(2%, 73%, 80%)" stroke="rgb(-51%, 30%, 37%)" stroke-width="1.0" fill-opacity="0.2" stroke-opacity="1.0"><rect x="775.4101600000001" width="67.9996799999999" y="-529.96" height="36.00000000000006"/></g><g fill="rgb(2%, 73%, 80%)" stroke="rgb(-51%, 30%, 37%)" stroke-width="1.0" fill-opacity="0.2" stroke-opacity="1.0"><rect x="460.39000000000004" width="81.00000000000006" y="-690.82" height="36.0"/></g><g fill="rgb(2%, 73%, 80%)" stroke="rgb(-51%, 30%, 37%)" stroke-width="1.0" fill-opacity="0.2" stroke-opacity="1.0"><rect x="740.05016" width="58.9996799999999" y="-263.71000000000004" height="36.00000000000003"/></g><g fill="rgb(2%, 73%, 80%)" stroke="rgb(-51%, 30%, 37%)" stroke-width="1.0" fill-opacity="0.2" stroke-opacity="1.0"><rect x="429.23996" width="64.00008000000003" y="-320.63" height="36.0"/></g><g fill="rgb(2%, 73%, 80%)" stroke="rgb(-51%, 30%, 37%)" stroke-width="1.0" fill-opacity="0.2" stroke-opacity="1.0"><rect x="44.38812000000001" width="68.99975999999998" y="-438.33" height="36.0"/></g><g fill="rgb(2%, 73%, 80%)" stroke="rgb(-51%, 30%, 37%)" stroke-width="1.0" fill-opacity="0.2" stroke-opacity="1.0"><rect x="398.31" width="99.0" y="-492.01" height="36.0"/></g><g fill="rgb(2%, 73%, 80%)" stroke="rgb(-51%, 30%, 37%)" stroke-width="1.0" fill-opacity="0.2" stroke-opacity="1.0"><rect x="785.8400000000001" width="81.0" y="-833.46" height="36.0"/></g><g fill="rgb(2%, 73%, 80%)" stroke="rgb(-51%, 30%, 37%)" stroke-width="1.0" fill-opacity="0.2" stroke-opacity="1.0"><rect x="910.49004" width="61.999919999999975" y="-259.65999999999997" height="35.99999999999997"/></g><g fill="rgb(2%, 73%, 80%)" stroke="rgb(-51%, 30%, 37%)" stroke-width="1.0" fill-opacity="0.2" stroke-opacity="1.0"><rect x="124.83000000000004" width="54.0" y="-638.5900000000001" height="36.0"/></g><g fill="rgb(2%, 73%, 80%)" stroke="rgb(-51%, 30%, 37%)" stroke-width="1.0" fill-opacity="0.2" stroke-opacity="1.0"><rect x="270.39" width="54.0" y="-763.59" height="36.0"/></g><g fill="rgb(2%, 73%, 80%)" stroke="rgb(-51%, 30%, 37%)" stroke-width="1.0" fill-opacity="0.2" stroke-opacity="1.0"><rect x="711.43" width="54.0" y="-459.08" height="36.0"/></g><g fill="rgb(2%, 73%, 80%)" stroke="rgb(-51%, 30%, 37%)" stroke-width="1.0" fill-opacity="0.2" stroke-opacity="1.0"><rect x="521.62" width="54.0" y="-411.53000000000003" height="36.0"/></g><g fill="rgb(2%, 73%, 80%)" stroke="rgb(-51%, 30%, 37%)" stroke-width="1.0" fill-opacity="0.2" stroke-opacity="1.0"><rect x="709.99" width="54.0" y="-553.01" height="36.0"/></g><g fill="rgb(2%, 73%, 80%)" stroke="rgb(-51%, 30%, 37%)" stroke-width="1.0" fill-opacity="0.2" stroke-opacity="1.0"><rect x="869.48" width="54.0" y="-200.28" height="36.0"/></g><g fill="rgb(2%, 73%, 80%)" stroke="rgb(-51%, 30%, 37%)" stroke-width="1.0" fill-opacity="0.2" stroke-opacity="1.0"><rect x="535.9712000000002" width="86.99759999999992" y="-620.1600000000001" height="36.0"/></g><g fill="rgb(2%, 73%, 80%)" stroke="rgb(-51%, 30%, 37%)" stroke-width="1.0" fill-opacity="0.2" stroke-opacity="1.0"><rect x="649.4200000000001" width="54.0" y="-496.03" height="36.0"/></g><g fill="rgb(2%, 73%, 80%)" stroke="rgb(-51%, 30%, 37%)" stroke-width="1.0" fill-opacity="0.2" stroke-opacity="1.0"><rect x="566.8400000000001" width="54.0" y="-1008.87" height="36.0"/></g><g fill="rgb(2%, 73%, 80%)" stroke="rgb(-51%, 30%, 37%)" stroke-width="1.0" fill-opacity="0.2" stroke-opacity="1.0"><rect x="134.18000000000004" width="90.0" y="-578.18" height="36.0"/></g><g fill="rgb(2%, 73%, 80%)" stroke="rgb(-51%, 30%, 37%)" stroke-width="1.0" fill-opacity="0.2" stroke-opacity="1.0"><rect x="23.868080000000013" width="69.99983999999998" y="-538.32" height="36.0"/></g><g fill="rgb(2%, 73%, 80%)" stroke="rgb(-51%, 30%, 37%)" stroke-width="1.0" fill-opacity="0.2" stroke-opacity="1.0"><rect x="789.2508" width="114.99839999999995" y="-65.574" height="36.0"/></g><g fill="rgb(2%, 73%, 80%)" stroke="rgb(-51%, 30%, 37%)" stroke-width="1.0" fill-opacity="0.2" stroke-opacity="1.0"><rect x="322.03004000000004" width="70.99991999999997" y="-260.53999999999996" height="35.99999999999997"/></g><g fill="rgb(2%, 73%, 80%)" stroke="rgb(-51%, 30%, 37%)" stroke-width="1.0" fill-opacity="0.2" stroke-opacity="1.0"><rect x="199.91879999999998" width="84.00240000000002" y="-106.782" height="36.0"/></g><g fill="rgb(2%, 73%, 80%)" stroke="rgb(-51%, 30%, 37%)" stroke-width="1.0" fill-opacity="0.2" stroke-opacity="1.0"><rect x="11.752600000000001" width="82.0008" y="-207.83" height="36.0"/></g><g fill="rgb(2%, 73%, 80%)" stroke="rgb(-51%, 30%, 37%)" stroke-width="1.0" fill-opacity="0.2" stroke-opacity="1.0"><rect x="350.23016000000007" width="67.99968000000001" y="-333.87" height="36.0"/></g><g fill="rgb(2%, 73%, 80%)" stroke="rgb(-51%, 30%, 37%)" stroke-width="1.0" fill-opacity="0.2" stroke-opacity="1.0"><rect x="680.4784000000002" width="130.00319999999988" y="-1026.8999999999999" height="35.999999999999886"/></g><g fill="rgb(2%, 73%, 80%)" stroke="rgb(-51%, 30%, 37%)" stroke-width="1.0" fill-opacity="0.2" stroke-opacity="1.0"><rect x="367.9196" width="127.00080000000003" y="-734.82" height="36.0"/></g><g fill="rgb(2%, 73%, 80%)" stroke="rgb(-51%, 30%, 37%)" stroke-width="1.0" fill-opacity="0.2" stroke-opacity="1.0"><rect x="207.0688" width="183.00239999999997" y="-474.44" height="36.0"/></g><g fill="rgb(2%, 73%, 80%)" stroke="rgb(-51%, 30%, 37%)" stroke-width="1.0" fill-opacity="0.2" stroke-opacity="1.0"><rect x="549.4096" width="100.00080000000003" y="-684.3000000000001" height="36.0"/></g><g fill="rgb(2%, 73%, 80%)" stroke="rgb(-51%, 30%, 37%)" stroke-width="1.0" fill-opacity="0.2" stroke-opacity="1.0"><rect x="790.8292000000001" width="101.00160000000005" y="-307.72" height="36.0"/></g><g fill="rgb(2%, 73%, 80%)" stroke="rgb(-51%, 30%, 37%)" stroke-width="1.0" fill-opacity="0.2" stroke-opacity="1.0"><rect x="753.0092000000001" width="110.00160000000005" y="-644.6400000000001" height="36.0"/></g><g fill="rgb(2%, 73%, 80%)" stroke="rgb(-51%, 30%, 37%)" stroke-width="1.0" fill-opacity="0.2" stroke-opacity="1.0"><rect x="903.9396" width="91.00080000000003" y="-415.29" height="36.0"/></g><g fill="rgb(2%, 73%, 80%)" stroke="rgb(-51%, 30%, 37%)" stroke-width="1.0" fill-opacity="0.2" stroke-opacity="1.0"><rect x="721.3096" width="100.00080000000003" y="-776.39" height="36.0"/></g><g fill="rgb(2%, 73%, 80%)" stroke="rgb(-51%, 30%, 37%)" stroke-width="1.0" fill-opacity="0.2" stroke-opacity="1.0"><rect x="634.2208" width="78.99839999999995" y="-784.58" height="36.0"/></g><g fill="rgb(2%, 73%, 80%)" stroke="rgb(-51%, 30%, 37%)" stroke-width="1.0" fill-opacity="0.2" stroke-opacity="1.0"><rect x="592.4000000000001" width="54.0" y="-430.34" height="36.0"/></g><g fill="rgb(2%, 73%, 80%)" stroke="rgb(-51%, 30%, 37%)" stroke-width="1.0" fill-opacity="0.2" stroke-opacity="1.0"><rect x="187.4696" width="109.00079999999997" y="-366.56" height="36.0"/></g><g fill="rgb(2%, 73%, 80%)" stroke="rgb(-51%, 30%, 37%)" stroke-width="1.0" fill-opacity="0.2" stroke-opacity="1.0"><rect x="173.23880000000003" width="93.00240000000002" y="-429.95000000000005" height="36.0"/></g><g fill="rgb(2%, 73%, 80%)" stroke="rgb(-51%, 30%, 37%)" stroke-width="1.0" fill-opacity="0.2" stroke-opacity="1.0"><rect x="265.43" width="117.0" y="-859.31" height="36.0"/></g><g fill="rgb(2%, 73%, 80%)" stroke="rgb(-51%, 30%, 37%)" stroke-width="1.0" fill-opacity="0.2" stroke-opacity="1.0"><rect x="374.34079999999994" width="132.99840000000006" y="-646.8" height="36.0"/></g><g fill="rgb(2%, 73%, 80%)" stroke="rgb(-51%, 30%, 37%)" stroke-width="1.0" fill-opacity="0.2" stroke-opacity="1.0"><rect x="556.47" width="90.0" y="-36.0" height="36.0"/></g><g fill="rgb(2%, 73%, 80%)" stroke="rgb(-51%, 30%, 37%)" stroke-width="1.0" fill-opacity="0.2" stroke-opacity="1.0"><rect x="313.43000000000006" width="135.0" y="-377.89" height="36.0"/></g><g fill="rgb(2%, 73%, 80%)" stroke="rgb(-51%, 30%, 37%)" stroke-width="1.0" fill-opacity="0.2" stroke-opacity="1.0"><rect x="779.8204000000001" width="115.99919999999997" y="-452.04" height="36.0"/></g></g><g class="labels"><g fill="rgb(-51%, 30%, 37%)" stroke="none" stroke-width="0.0" font-size="14.0" fill-opacity="1.0" text-anchor="middle"><text x="36.0" y="-299.59000000000003">OneTuple</text><text x="224.56" y="-734.7299999999999">StateVar</text><text x="675.93" y="-707.5799999999999">adjunctions</text><text x="579.24" y="-554.42">array</text><text x="154.64" y="-661.9499999999999">assoc</text><text x="268.76" y="-546.75">bifunctors</text><text x="688.74" y="-297.71000000000004">binary</text><text x="602.26" y="-250.53">bytestring</text><text x="466.55" y="-796.24">comonad</text><text x="611.5200000000001" y="-342.56">constraints</text><text x="604.4" y="-491.45">containers</text><text x="379.49" y="-757.16">contravariant</text><text x="706.47" y="-341.74">deepseq</text><text x="548.6" y="-805.4499999999999">distributive</text><text x="160.95" y="-452.28000000000003">exceptions</text><text x="235.82000000000002" y="-787.87">filepath</text><text x="375.36000000000007" y="-24.295">fingertree</text><text x="532.34" y="-510.41">folds</text><text x="339.3" y="-590.76">free</text><text x="525.62" y="-254.90000000000003">hashable</text><text x="324.54" y="-502.72">invariant</text><text x="414.83" y="-514.3499999999999">lens</text><text x="1122.9" y="-576.38">loop</text><text x="895.57" y="-555.2199999999999">matrix</text><text x="717.9800000000001" y="-610.04">mealy</text><text x="674.9400000000002" y="-535.51">mtl</text><text x="932.8900000000001" y="-771.01">numhask</text><text x="534.5800000000002" y="-338.57">parallel</text><text x="644.1100000000001" y="-151.27">pointed</text><text x="490.19000000000005" y="-126.24999999999999">pretty</text><text x="809.4100000000001" y="-508.26">primitive</text><text x="500.89000000000004" y="-669.1200000000001">profunctors</text><text x="769.55" y="-242.01000000000002">random</text><text x="461.24" y="-298.93">reducers</text><text x="78.888" y="-416.63000000000005">reflection</text><text x="447.81" y="-470.31">semigroupoids</text><text x="826.3400000000001" y="-811.76">semigroups</text><text x="941.49" y="-237.96">splitmix</text><text x="151.83000000000004" y="-616.89">stm</text><text x="297.39" y="-741.89">tagged</text><text x="738.43" y="-437.38000000000005">tdigest</text><text x="548.62" y="-389.83">text</text><text x="736.99" y="-531.31">these</text><text x="896.48" y="-178.58">time</text><text x="579.4700000000001" y="-598.4599999999999">transformers</text><text x="676.4200000000001" y="-474.33">vector</text><text x="593.8400000000001" y="-987.17">void</text><text x="179.18000000000004" y="-556.4799999999999">base-orphans</text><text x="58.86800000000001" y="-516.62">call-stack</text><text x="846.75" y="-43.873999999999995">data-default-class</text><text x="357.53000000000003" y="-238.84">data-reify</text><text x="241.92" y="-85.082">ghc-bignum</text><text x="52.753" y="-186.13000000000002">ghc-boot-th</text><text x="384.2300000000001" y="-312.17">ghc-prim</text><text x="745.4800000000001" y="-1005.1999999999999">indexed-profunctors</text><text x="431.42" y="-713.12">indexed-traversable</text><text x="298.57" y="-452.74">indexed-traversable-instances</text><text x="599.41" y="-662.5999999999999">kan-extensions</text><text x="841.3300000000002" y="-286.02000000000004">math-functions</text><text x="808.0100000000001" y="-622.94">mwc-probability</text><text x="949.44" y="-393.5900000000001">mwc-random</text><text x="771.3100000000001" y="-754.6899999999999">numhask-array</text><text x="673.72" y="-762.88">optics-core</text><text x="619.4000000000001" y="-408.64000000000004">strict</text><text x="241.97" y="-344.86">template-haskell</text><text x="219.74000000000004" y="-408.25">th-abstraction</text><text x="323.93" y="-837.6099999999999">transformers-base</text><text x="440.84" y="-625.0999999999999">transformers-compat</text><text x="601.47" y="-14.3">type-equality</text><text x="380.93000000000006" y="-356.19">unordered-containers</text><text x="837.82" y="-430.3400000000001">vector-algorithms</text></g></g></g><g class="hud"></g></svg>