<svg xmlns="http://www.w3.org/2000/svg" width="458.2042596631247" xmlns:xlink="http://www.w3.org/1999/xlink" viewBox="-0.5 -430.52 394.9904 431.02" height="500.0"><style>svg {
  color-scheme: light dark;
}
{
  .canvas g, .title g, .axisbar g, .ticktext g, .tickglyph g, .ticklines g, .legendContent g text {
    fill: #0d0d0d;
  }
  .ticklines g, .tickglyph g, .legendBorder g {
    stroke: #0d0d0d;
  }
  .legendBorder g {
    fill: #f0f0f0;
  }
}
@media (prefers-color-scheme:dark) {
  .canvas g, .title g, .axisbar g, .ticktext g, .tickglyph g, .ticklines g, .legendContent g text {
    fill: #f0f0f0;
  }
  .ticklines g, .tickglyph g, .legendBorder g {
    stroke: #f0f0f0;
  }
  .legendBorder g {
    fill: #0d0d0d;
  }
}</style><g class="chart"><g class="edges"><g fill="rgb(0%, 0%, 0%)" stroke="rgb(-51%, 30%, 37%)" stroke-width="1.0" fill-opacity="0.0" stroke-opacity="1.0"><path d="M 111.97,-57.5970 C 126.0400,-89.106 154.81,-153.53 168.91,-185.1"/></g><g fill="rgb(0%, 0%, 0%)" stroke="rgb(-51%, 30%, 37%)" stroke-width="1.0" fill-opacity="0.0" stroke-opacity="1.0"><path d="M 171.09,-221.39 C 166.24,-237.05 159.79,-260.44 157.16,-281.39 C 152.13,-321.49 161.32,-368.59 167.47,-393.83"/></g><g fill="rgb(0%, 0%, 0%)" stroke="rgb(-51%, 30%, 37%)" stroke-width="1.0" fill-opacity="0.0" stroke-opacity="1.0"><path d="M 168.27,-221.42 C 157.2,-244.18 138.3,-283.05 127.2,-305.86"/></g><g fill="rgb(0%, 0%, 0%)" stroke="rgb(-51%, 30%, 37%)" stroke-width="1.0" fill-opacity="0.0" stroke-opacity="1.0"><path d="M 50.058,-81.671 C 59.785,-74.033 71.084,-65.159 80.81,-57.5230"/></g><g fill="rgb(0%, 0%, 0%)" stroke="rgb(-51%, 30%, 37%)" stroke-width="1.0" fill-opacity="0.0" stroke-opacity="1.0"><path d="M 53.1390,-117.82 C 80.5980,-136.77 123.53,-166.4 150.9700,-185.34"/></g><g fill="rgb(0%, 0%, 0%)" stroke="rgb(-51%, 30%, 37%)" stroke-width="1.0" fill-opacity="0.0" stroke-opacity="1.0"><path d="M 28.484,-118.0800 C 30.847,-147.23 35.443,-203.92 37.81,-233.11"/></g><g fill="rgb(0%, 0%, 0%)" stroke="rgb(-51%, 30%, 37%)" stroke-width="1.0" fill-opacity="0.0" stroke-opacity="1.0"><path d="M 54.005,-91.562 C 76.025,-84.472 107.68,-73.379 134.05,-60.628 C 148.7,-53.5430 164.21,-44.221 176.85,-36.101"/></g><g fill="rgb(0%, 0%, 0%)" stroke="rgb(-51%, 30%, 37%)" stroke-width="1.0" fill-opacity="0.0" stroke-opacity="1.0"><path d="M 75.494,-238.8300 C 98.773,-230.7 128.5300,-220.3 149.81,-212.87"/></g><g fill="rgb(0%, 0%, 0%)" stroke="rgb(-51%, 30%, 37%)" stroke-width="1.0" fill-opacity="0.0" stroke-opacity="1.0"><path d="M 69.5270,-233.39 C 81.765,-225.57 95.765,-215.96 107.58,-206.14 C 135.83,-182.66 164.75,-151.26 181.89,-131.73"/></g><g fill="rgb(0%, 0%, 0%)" stroke="rgb(-51%, 30%, 37%)" stroke-width="1.0" fill-opacity="0.0" stroke-opacity="1.0"><path d="M 59.246,-269.79 C 71.321,-280.88 86.6570,-294.96 98.681,-306.0"/></g><g fill="rgb(0%, 0%, 0%)" stroke="rgb(-51%, 30%, 37%)" stroke-width="1.0" fill-opacity="0.0" stroke-opacity="1.0"><path d="M 75.6750,-262.0700 C 100.08,-269.17 132.67,-278.66 160.18,-286.67"/></g><g fill="rgb(0%, 0%, 0%)" stroke="rgb(-51%, 30%, 37%)" stroke-width="1.0" fill-opacity="0.0" stroke-opacity="1.0"><path d="M 166.42,-25.979 C 154.68,-28.5020 141.94,-31.241 131.03,-33.585"/></g><g fill="rgb(0%, 0%, 0%)" stroke="rgb(-51%, 30%, 37%)" stroke-width="1.0" fill-opacity="0.0" stroke-opacity="1.0"><path d="M 190.32,-36.169 C 180.69,-50.5940 168.44,-71.702 163.2,-92.339 C 155.08,-124.34 163.86,-162.79 170.67,-185.02"/></g><g fill="rgb(0%, 0%, 0%)" stroke="rgb(-51%, 30%, 37%)" stroke-width="1.0" fill-opacity="0.0" stroke-opacity="1.0"><path d="M 202.36,-36.421 C 201.26,-53.447 199.6500,-78.595 198.56,-95.498"/></g><g fill="rgb(0%, 0%, 0%)" stroke="rgb(-51%, 30%, 37%)" stroke-width="1.0" fill-opacity="0.0" stroke-opacity="1.0"><path d="M 174.2800,-95.219 C 159.78,-83.732 141.16,-68.984 126.7100,-57.5370"/></g><g fill="rgb(0%, 0%, 0%)" stroke="rgb(-51%, 30%, 37%)" stroke-width="1.0" fill-opacity="0.0" stroke-opacity="1.0"><path d="M 193.29,-131.71 C 189.76,-147.29 184.7000,-169.63 181.17,-185.2"/></g><g fill="rgb(0%, 0%, 0%)" stroke="rgb(-51%, 30%, 37%)" stroke-width="1.0" fill-opacity="0.0" stroke-opacity="1.0"><path d="M 271.0500,-207.52 C 251.1,-206.64 224.11,-205.44 204.1700,-204.55"/></g><g fill="rgb(0%, 0%, 0%)" stroke="rgb(-51%, 30%, 37%)" stroke-width="1.0" fill-opacity="0.0" stroke-opacity="1.0"><path d="M 278.81,-190.38 C 260.9500,-173.52 234.6300,-148.67 216.7900,-131.84"/></g><g fill="rgb(0%, 0%, 0%)" stroke="rgb(-51%, 30%, 37%)" stroke-width="1.0" fill-opacity="0.0" stroke-opacity="1.0"><path d="M 271.12,-219.26 C 241.42,-231.54 193.24,-253.73 157.16,-281.39 C 148.1,-288.34 139.4100,-297.56 132.56,-305.65"/></g><g fill="rgb(0%, 0%, 0%)" stroke="rgb(-51%, 30%, 37%)" stroke-width="1.0" fill-opacity="0.0" stroke-opacity="1.0"><path d="M 80.6830,-166.8 C 85.755,-138.92 95.415,-85.813 100.51,-57.792"/></g><g fill="rgb(0%, 0%, 0%)" stroke="rgb(-51%, 30%, 37%)" stroke-width="1.0" fill-opacity="0.0" stroke-opacity="1.0"><path d="M 104.62,-189.97 C 118.69,-192.57 135.8,-195.73 149.86,-198.32"/></g><g fill="rgb(0%, 0%, 0%)" stroke="rgb(-51%, 30%, 37%)" stroke-width="1.0" fill-opacity="0.0" stroke-opacity="1.0"><path d="M 66.7,-166.88 C 58.149,-152.43 46.216,-132.26 37.67,-117.8100"/></g><g fill="rgb(0%, 0%, 0%)" stroke="rgb(-51%, 30%, 37%)" stroke-width="1.0" fill-opacity="0.0" stroke-opacity="1.0"><path d="M 66.978,-203.12 C 61.604,-212.5100 55.066,-223.93 49.693,-233.32"/></g><g fill="rgb(0%, 0%, 0%)" stroke="rgb(-51%, 30%, 37%)" stroke-width="1.0" fill-opacity="0.0" stroke-opacity="1.0"><path d="M 104.62,-168.74 C 123.1500,-157.71 147.71,-143.1 166.9,-131.69"/></g><g fill="rgb(0%, 0%, 0%)" stroke="rgb(-51%, 30%, 37%)" stroke-width="1.0" fill-opacity="0.0" stroke-opacity="1.0"><path d="M 82.7400,-203.13 C 90.5910,-229.79 105.14,-279.2 112.99,-305.87"/></g><g fill="rgb(0%, 0%, 0%)" stroke="rgb(-51%, 30%, 37%)" stroke-width="1.0" fill-opacity="0.0" stroke-opacity="1.0"><path d="M 98.564,-203.06 C 124.3200,-225.1100 167.56,-262.11 193.4300,-284.25"/></g><g fill="rgb(0%, 0%, 0%)" stroke="rgb(-51%, 30%, 37%)" stroke-width="1.0" fill-opacity="0.0" stroke-opacity="1.0"><path d="M 161.17,-393.79 C 151.9000,-378.7000 138.79,-357.3500 129.5300,-342.26"/></g><g fill="rgb(0%, 0%, 0%)" stroke="rgb(-51%, 30%, 37%)" stroke-width="1.0" fill-opacity="0.0" stroke-opacity="1.0"><path d="M 311.75,-259.5300 C 278.53,-245.6800 232.81,-226.6 204.1,-214.6300"/></g><g fill="rgb(0%, 0%, 0%)" stroke="rgb(-51%, 30%, 37%)" stroke-width="1.0" fill-opacity="0.0" stroke-opacity="1.0"><path d="M 207.93,-284.39 C 201.11,-266.48 190.75,-239.3 183.95,-221.44"/></g><g fill="rgb(0%, 0%, 0%)" stroke="rgb(-51%, 30%, 37%)" stroke-width="1.0" fill-opacity="0.0" stroke-opacity="1.0"><path d="M 230.94,-284.5 C 245.7,-267.8700 267.47,-243.38 282.22,-226.77"/></g><g fill="rgb(0%, 0%, 0%)" stroke="rgb(-51%, 30%, 37%)" stroke-width="1.0" fill-opacity="0.0" stroke-opacity="1.0"><path d="M 269.4500,-292.38 C 283.48,-289.75 298.34,-286.97 311.58,-284.49"/></g><g fill="rgb(0%, 0%, 0%)" stroke="rgb(-51%, 30%, 37%)" stroke-width="1.0" fill-opacity="0.0" stroke-opacity="1.0"><path d="M 160.12,-314.77 C 157.57,-315.34 155.04,-315.9 152.56,-316.45"/></g></g><g class="shapes"><g fill="rgb(2%, 73%, 80%)" stroke="rgb(-51%, 30%, 37%)" stroke-width="1.0" fill-opacity="0.2" stroke-opacity="1.0"><rect x="76.85" width="54.0" y="-57.428" height="36.0"/></g><g fill="rgb(2%, 73%, 80%)" stroke="rgb(-51%, 30%, 37%)" stroke-width="1.0" fill-opacity="0.2" stroke-opacity="1.0"><rect x="150.06" width="54.0" y="-221.35" height="36.0"/></g><g fill="rgb(2%, 73%, 80%)" stroke="rgb(-51%, 30%, 37%)" stroke-width="1.0" fill-opacity="0.2" stroke-opacity="1.0"><rect x="0.0" width="54.0" y="-117.778" height="36.0"/></g><g fill="rgb(2%, 73%, 80%)" stroke="rgb(-51%, 30%, 37%)" stroke-width="1.0" fill-opacity="0.2" stroke-opacity="1.0"><rect x="21.299" width="36.0" y="-269.48" height="36.00000000000003"/></g><g fill="rgb(2%, 73%, 80%)" stroke="rgb(-51%, 30%, 37%)" stroke-width="1.0" fill-opacity="0.2" stroke-opacity="1.0"><rect x="166.53919999999997" width="74.0016" y="-36.0" height="36.0"/></g><g fill="rgb(2%, 73%, 80%)" stroke="rgb(-51%, 30%, 37%)" stroke-width="1.0" fill-opacity="0.2" stroke-opacity="1.0"><rect x="166.40004" width="61.99992000000003" y="-131.54000000000002" height="36.000000000000014"/></g><g fill="rgb(2%, 73%, 80%)" stroke="rgb(-51%, 30%, 37%)" stroke-width="1.0" fill-opacity="0.2" stroke-opacity="1.0"><rect x="271.25" width="54.0" y="-226.73" height="36.0"/></g><g fill="rgb(2%, 73%, 80%)" stroke="rgb(-51%, 30%, 37%)" stroke-width="1.0" fill-opacity="0.2" stroke-opacity="1.0"><rect x="50.38499999999999" width="54.0" y="-202.94" height="36.0"/></g><g fill="rgb(2%, 73%, 80%)" stroke="rgb(-51%, 30%, 37%)" stroke-width="1.0" fill-opacity="0.2" stroke-opacity="1.0"><rect x="130.3588" width="84.00240000000002" y="-430.02" height="36.0"/></g><g fill="rgb(2%, 73%, 80%)" stroke="rgb(-51%, 30%, 37%)" stroke-width="1.0" fill-opacity="0.2" stroke-opacity="1.0"><rect x="311.9896" width="82.00080000000003" y="-294.74" height="36.0"/></g><g fill="rgb(2%, 73%, 80%)" stroke="rgb(-51%, 30%, 37%)" stroke-width="1.0" fill-opacity="0.2" stroke-opacity="1.0"><rect x="84.35015999999999" width="67.99968000000001" y="-342.06" height="36.0"/></g><g fill="rgb(2%, 73%, 80%)" stroke="rgb(-51%, 30%, 37%)" stroke-width="1.0" fill-opacity="0.2" stroke-opacity="1.0"><rect x="160.3596" width="109.00080000000003" y="-320.5899999999999" height="36.0"/></g></g><g class="labels"><g fill="rgb(-51%, 30%, 37%)" stroke="none" stroke-width="0.0" font-size="14.0" fill-opacity="1.0" text-anchor="middle"><text x="103.85" y="-35.727999999999994">array</text><text x="177.06" y="-199.65">base</text><text x="27.0" y="-96.078">binary</text><text x="39.299" y="-247.77999999999997">bytestring</text><text x="203.53999999999996" y="-14.3">containers</text><text x="197.4" y="-109.84">deepseq</text><text x="298.25" y="-205.03">pretty</text><text x="77.38499999999999" y="-181.24">text</text><text x="172.36" y="-408.32">ghc-bignum</text><text x="352.99" y="-273.04">ghc-boot-th</text><text x="118.35" y="-320.36">ghc-prim</text><text x="214.86" y="-298.89">template-haskell</text></g></g></g><g class="hud"></g></svg>